AllBirdsCombinations-Full.ufo
<glyph name="numbersign" format="2">
  <advance width="979.4095225512604"/>
  <unicode hex="0023"/>
  <outline>
    <contour>
      <point x="159.88304901123047" y="-5" type="line"/>
      <point x="254.7857153231093" y="-5.0"/>
      <point x="351.48355438006746" y="61.243436268249994"/>
      <point x="394.8955612182617" y="150" type="curve"/>
      <point x="450" y="150" type="line"/>
      <point x="409.88304901123047" y="-5" type="line"/>
      <point x="506.68640020010935" y="-5.0"/>
      <point x="605.3575506206525" y="63.92341831139339"/>
      <point x="647.4392242431641" y="155.35082244873047" type="curve"/>
      <point x="741.0408977180349" y="176.16214290951635"/>
      <point x="827.2964982153914" y="255.465570374"/>
      <point x="851.7638090205043" y="350.0" type="curve"/>
      <point x="701.763801574707" y="350" type="line"/>
      <point x="729.2811965942383" y="456.3190231323242" type="line"/>
      <point x="821.2537352004365" y="478.5384823305988"/>
      <point x="905.3082691960333" y="556.879907753"/>
      <point x="929.4095225512605" y="650.0" type="curve"/>
      <point x="779.4095230102539" y="650" type="line"/>
      <point x="819.5264739990234" y="805" type="line"/>
      <point x="724.623807228151" y="805.0"/>
      <point x="627.925968171193" y="738.75656373175"/>
      <point x="584.5139617919922" y="650" type="curve"/>
      <point x="529.4095230102539" y="650" type="line"/>
      <point x="569.5264739990234" y="805" type="line"/>
      <point x="472.7231223511511" y="805.0"/>
      <point x="374.05197193060786" y="736.0765816886067"/>
      <point x="331.97029876708984" y="644.6491775512695" type="curve"/>
      <point x="238.3686248332255" y="623.8378570904837"/>
      <point x="152.113024335869" y="544.534429626"/>
      <point x="127.64571353075618" y="449.9999999999999" type="curve"/>
      <point x="277.6457061767578" y="450" type="line"/>
      <point x="250.1283187866211" y="343.6809768676758" type="line"/>
      <point x="158.15578735082397" y="321.4615176694012"/>
      <point x="74.10125335522717" y="243.120092247"/>
      <point x="49.999999999999986" y="150.00000000000003" type="curve"/>
      <point x="200" y="150" type="line"/>
    </contour>
    <contour>
      <point x="501.76380157470703" y="350" type="line"/>
      <point x="451.76380157470703" y="350" type="line"/>
      <point x="477.6457061767578" y="450" type="line"/>
      <point x="527.6457061767578" y="450" type="line"/>
    </contour>
  </outline>
</glyph>
<glyph name="dollar" format="2">
  <advance width="550.0"/>
  <unicode hex="0024"/>
  <outline>
    <contour>
      <point x="50.00000000000002" y="499.99999999999994" type="curve"/>
      <point x="50.0" y="389.617"/>
      <point x="139.61700000000002" y="300.0"/>
      <point x="250.0" y="300.0" type="curve"/>
      <point x="250" y="800" type="line"/>
      <point x="150" y="800" type="line"/>
      <point x="150" y="673.1887817382812" type="line"/>
      <point x="90.23831851339921" y="638.6062188229984"/>
      <point x="50.00000000000001" y="573.965109491"/>
    </contour>
    <contour>
      <point x="293.75" y="740.0" type="line"/>
      <point x="293.75" y="538.3251103447735"/>
      <point x="422.0191554084996" y="500.0"/>
      <point x="493.75" y="500.0" type="curve"/>
      <point x="493.75" y="700" type="line"/>
      <point x="393.75" y="700" type="line"/>
      <point x="393.75" y="800" type="line"/>
      <point x="293.75" y="800" type="line"/>
    </contour>
    <contour>
      <point x="300" y="0" type="line"/>
      <point x="400" y="0" type="line"/>
      <point x="400" y="126.81121826171875" type="line"/>
      <point x="459.7616814866008" y="161.39378117700164"/>
      <point x="500.0" y="226.03489050900004"/>
      <point x="499.99999999999994" y="300.0" type="curve"/>
      <point x="500.0" y="410.383"/>
      <point x="410.383" y="500.0"/>
      <point x="300.0" y="500.0" type="curve"/>
    </contour>
    <contour>
      <point x="150" y="0" type="line"/>
      <point x="250" y="0" type="line"/>
      <point x="250.0" y="60.0" type="line"/>
      <point x="250.0" y="261.6748896552265"/>
      <point x="121.73084459150036" y="300.0"/>
      <point x="50.0" y="300.0" type="curve"/>
      <point x="50" y="100" type="line"/>
      <point x="150" y="100" type="line"/>
    </contour>
  </outline>
</glyph>
<glyph name="percent" format="2">
  <advance width="910.0"/>
  <unicode hex="0025"/>
  <outline>
    <contour>
      <point x="155.0" y="805.0" type="line"/>
      <point x="97.04892000000001" y="805.0"/>
      <point x="50.0" y="757.95108"/>
      <point x="50.0" y="700.0" type="curve" smooth="yes"/>
      <point x="50.0" y="642.04892"/>
      <point x="97.04892000000001" y="595.0"/>
      <point x="155.0" y="595.0" type="curve"/>
    </contour>
    <contour>
      <point x="205.0" y="595.0" type="line"/>
      <point x="262.95108" y="595.0"/>
      <point x="310.0" y="642.04892"/>
      <point x="310.0" y="700.0" type="curve" smooth="yes"/>
      <point x="310.0" y="757.95108"/>
      <point x="262.95108" y="805.0"/>
      <point x="205.0" y="805.0" type="curve"/>
    </contour>
    <contour>
      <point x="355" y="0" type="line"/>
      <point x="426.7308445915004" y="0.0"/>
      <point x="555.0" y="38.32511034477355"/>
      <point x="555.0" y="240.0" type="curve"/>
      <point x="555" y="800" type="line"/>
      <point x="483.2691554084996" y="800.0"/>
      <point x="355.0" y="761.6748896552265"/>
      <point x="355.0" y="560.0" type="curve"/>
    </contour>
    <contour>
      <point x="705.0" y="205.0" type="line"/>
      <point x="647.04892" y="205.0"/>
      <point x="600.0" y="157.95108"/>
      <point x="600.0" y="100.0" type="curve" smooth="yes"/>
      <point x="600.0" y="42.04892"/>
      <point x="647.04892" y="-5.0"/>
      <point x="705.0" y="-5.0" type="curve"/>
    </contour>
    <contour>
      <point x="755.0" y="-5.0" type="line"/>
      <point x="812.95108" y="-5.0"/>
      <point x="860.0" y="42.04892"/>
      <point x="860.0" y="100.0" type="curve" smooth="yes"/>
      <point x="860.0" y="157.95108"/>
      <point x="812.95108" y="205.0"/>
      <point x="755.0" y="205.0" type="curve"/>
    </contour>
  </outline>
</glyph>
<glyph name="ampersand" format="2">
  <advance width="750.0"/>
  <unicode hex="0026"/>
  <outline>
    <contour>
      <point x="250" y="800" type="line"/>
      <point x="139.61700000000002" y="800.0"/>
      <point x="50.0" y="710.383"/>
      <point x="50.0" y="600.0" type="curve"/>
      <point x="50.0" y="489.617"/>
      <point x="139.61700000000002" y="400.0"/>
      <point x="250.0" y="400.0" type="curve"/>
    </contour>
    <contour>
      <point x="287.5" y="800.0" type="line"/>
      <point x="287.5" y="689.617"/>
      <point x="377.117" y="600.0"/>
      <point x="487.5" y="600.0" type="curve"/>
      <point x="487.5" y="800.0" type="line"/>
    </contour>
    <contour>
      <point x="300" y="-5" type="line"/>
      <point x="371.7308445915004" y="-5.0"/>
      <point x="500.0" y="33.32511034477355"/>
      <point x="500.0" y="235.0" type="curve"/>
      <point x="500" y="300" type="line"/>
      <point x="610.383" y="300.0"/>
      <point x="700.0" y="389.617"/>
      <point x="700.0" y="500.0" type="curve"/>
      <point x="540.0" y="500.0" type="line"/>
      <point x="456.5834690096494" y="500.0"/>
      <point x="300.0" y="491.4110869661358"/>
      <point x="300.0" y="260.0" type="curve"/>
    </contour>
    <contour>
      <point x="50" y="195" type="line"/>
      <point x="50.00000000000001" y="84.61699999999996"/>
      <point x="139.61699999999996" y="-4.999999999999987"/>
      <point x="250.0" y="-5.0" type="curve"/>
      <point x="250" y="400" type="line"/>
      <point x="139.61699999999996" y="400.0"/>
      <point x="50.00000000000001" y="310.38300000000004"/>
      <point x="50.0" y="200.0" type="curve"/>
    </contour>
  </outline>
</glyph>
<glyph name="parenleft" format="2">
  <advance width="300.0"/>
  <unicode hex="0028"/>
  <outline>
    <contour>
      <point x="50.0" y="140.0" type="line"/>
      <point x="50.000000000000014" y="-61.67488965522645"/>
      <point x="178.26915540849964" y="-99.99999999999999"/>
      <point x="250.0" y="-100.0" type="curve"/>
      <point x="250" y="900" type="line"/>
      <point x="178.26915540849964" y="900.0"/>
      <point x="50.000000000000014" y="861.6748896552265"/>
      <point x="50.0" y="660.0" type="curve"/>
    </contour>
  </outline>
</glyph>
<glyph name="parenright" format="2">
  <advance width="300.0"/>
  <unicode hex="0029"/>
  <outline>
    <contour>
      <point x="50" y="-100" type="line"/>
      <point x="121.73084459150036" y="-100.0"/>
      <point x="250.0" y="-61.67488965522645"/>
      <point x="250.0" y="140.0" type="curve"/>
      <point x="250.0" y="660.0" type="line"/>
      <point x="250.0" y="861.6748896552265"/>
      <point x="121.73084459150036" y="900.0"/>
      <point x="50.0" y="900.0" type="curve"/>
    </contour>
  </outline>
</glyph>
<glyph name="period" format="2">
  <advance width="300.0"/>
  <unicode hex="002E"/>
  <outline>
    <contour>
      <point x="255.0" y="93.75" type="curve" smooth="yes"/>
      <point x="255.0" y="151.70108"/>
      <point x="207.95108" y="198.75"/>
      <point x="150.0" y="198.75" type="curve" smooth="yes"/>
      <point x="92.04892000000001" y="198.75"/>
      <point x="45.0" y="151.70108"/>
      <point x="45.0" y="93.75" type="curve" smooth="yes"/>
      <point x="45.0" y="35.79892"/>
      <point x="92.04892000000001" y="-11.25"/>
      <point x="150.0" y="-11.25" type="curve" smooth="yes"/>
      <point x="207.95108" y="-11.25"/>
      <point x="255.0" y="35.79892"/>
    </contour>
  </outline>
</glyph>
<glyph name="slash" format="2">
  <advance width="552.0042103603344"/>
  <unicode hex="002F"/>
  <outline>
    <contour>
      <point x="50" y="-57.08100891113281" type="line"/>
      <point x="119.28667537743462" y="-75.6463174448462"/>
      <point x="253.10443353378784" y="-71.82560372730902"/>
      <point x="305.3017361286618" y="122.97738064219936" type="curve"/>
      <point x="502.00421142578125" y="857.0810089111328" type="line"/>
      <point x="432.71753600196695" y="875.6463172717548"/>
      <point x="298.8997766256503" y="871.8256037811391"/>
      <point x="246.70247428137642" y="677.0226193444826" type="curve"/>
    </contour>
  </outline>
</glyph>
<glyph name="two" format="2">
  <advance width="550.0"/>
  <unicode hex="0032"/>
  <outline>
    <contour>
      <point x="261.25" y="700.0" type="curve" smooth="yes"/>
      <point x="261.25" y="757.95108"/>
      <point x="214.20108" y="805.0"/>
      <point x="156.25" y="805.0" type="curve" smooth="yes"/>
      <point x="98.29892000000001" y="805.0"/>
      <point x="51.25" y="757.95108"/>
      <point x="51.25" y="700.0" type="curve" smooth="yes"/>
      <point x="51.25" y="642.04892"/>
      <point x="98.29892000000001" y="595.0"/>
      <point x="156.25" y="595.0" type="curve" smooth="yes"/>
      <point x="214.20108" y="595.0"/>
      <point x="261.25" y="642.04892"/>
    </contour>
    <contour>
      <point x="300" y="245" type="line"/>
      <point x="371.7308445915004" y="245.0"/>
      <point x="500.0" y="283.3251103447735"/>
      <point x="500.0" y="485.0" type="curve"/>
      <point x="500.0" y="565.0" type="line"/>
      <point x="500.0" y="766.6748896552265"/>
      <point x="371.7308445915004" y="805.0"/>
      <point x="300.0" y="805.0" type="curve"/>
    </contour>
    <contour>
      <point x="50.0" y="0.0" type="curve"/>
      <point x="500" y="0" type="line"/>
      <point x="500" y="200" type="line"/>
      <point x="290.0" y="200.0" type="line"/>
      <point x="88.32511034477355" y="200.00000000000003"/>
      <point x="50.00000000000001" y="71.73084459150036"/>
    </contour>
  </outline>
</glyph>
<glyph name="four" format="2">
  <advance width="550.0"/>
  <unicode hex="0034"/>
  <outline>
    <contour>
      <point x="50" y="300" type="line"/>
      <point x="121.73084459150036" y="300.0"/>
      <point x="250.0" y="338.3251103447735"/>
      <point x="250.0" y="540.0" type="curve"/>
      <point x="250" y="800" type="line"/>
      <point x="50" y="800" type="line"/>
    </contour>
    <contour>
      <point x="300" y="0" type="line"/>
      <point x="500" y="0" type="line"/>
      <point x="500" y="500" type="line"/>
      <point x="300" y="500" type="line"/>
    </contour>
  </outline>
</glyph>
<glyph name="five" format="2">
  <advance width="550.0"/>
  <unicode hex="0035"/>
  <outline>
    <contour>
      <point x="56.25" y="540.0" type="line"/>
      <point x="56.250000000000014" y="338.3251103447735"/>
      <point x="184.51915540849964" y="300.0"/>
      <point x="256.25" y="300.0" type="curve"/>
      <point x="256.25" y="800" type="line"/>
      <point x="56.25" y="800" type="line"/>
    </contour>
    <contour>
      <point x="293.75" y="800.0" type="line"/>
      <point x="293.75" y="689.617"/>
      <point x="383.367" y="600.0"/>
      <point x="493.75" y="600.0" type="curve"/>
      <point x="493.75" y="800.0" type="line"/>
    </contour>
    <contour>
      <point x="300" y="-5" type="line"/>
      <point x="371.7308445915004" y="-5.0"/>
      <point x="500.0" y="33.32511034477355"/>
      <point x="500.0" y="235.0" type="curve"/>
      <point x="500.0" y="260.0" type="line"/>
      <point x="500.0" y="461.6748896552265"/>
      <point x="371.7308445915004" y="500.0"/>
      <point x="300.0" y="500.0" type="curve"/>
    </contour>
    <contour>
      <point x="255.0" y="95.0" type="curve" smooth="yes"/>
      <point x="255.0" y="152.95108"/>
      <point x="207.95108" y="200.0"/>
      <point x="150.0" y="200.0" type="curve" smooth="yes"/>
      <point x="92.04892000000001" y="200.0"/>
      <point x="45.0" y="152.95108"/>
      <point x="45.0" y="95.0" type="curve" smooth="yes"/>
      <point x="45.0" y="37.04892"/>
      <point x="92.04892000000001" y="-10.0"/>
      <point x="150.0" y="-10.0" type="curve" smooth="yes"/>
      <point x="207.95108" y="-10.0"/>
      <point x="255.0" y="37.04892"/>
    </contour>
  </outline>
</glyph>
<glyph name="six" format="2">
  <advance width="550.0"/>
  <unicode hex="0036"/>
  <outline>
    <contour>
      <point x="50.0" y="235.0" type="line"/>
      <point x="50.000000000000014" y="33.32511034477355"/>
      <point x="178.26915540849964" y="-4.999999999999991"/>
      <point x="250.0" y="-5.0" type="curve"/>
      <point x="250" y="805" type="line"/>
      <point x="178.26915540849964" y="805.0"/>
      <point x="50.000000000000014" y="766.6748896552265"/>
      <point x="50.0" y="565.0" type="curve"/>
    </contour>
    <contour>
      <point x="493.75" y="705.0" type="curve" smooth="yes"/>
      <point x="493.75" y="760.1915"/>
      <point x="448.9415" y="805.0"/>
      <point x="393.75" y="805.0" type="curve" smooth="yes"/>
      <point x="338.5585" y="805.0"/>
      <point x="293.75" y="760.1915"/>
      <point x="293.75" y="705.0" type="curve" smooth="yes"/>
      <point x="293.75" y="649.8085"/>
      <point x="338.5585" y="605.0"/>
      <point x="393.75" y="605.0" type="curve" smooth="yes"/>
      <point x="448.9415" y="605.0"/>
      <point x="493.75" y="649.8085"/>
    </contour>
    <contour>
      <point x="300" y="-5" type="line"/>
      <point x="371.7308445915004" y="-5.0"/>
      <point x="500.0" y="33.32511034477355"/>
      <point x="500.0" y="235.0" type="curve"/>
      <point x="500.0" y="260.0" type="line"/>
      <point x="500.0" y="461.6748896552265"/>
      <point x="371.7308445915004" y="500.0"/>
      <point x="300.0" y="500.0" type="curve"/>
    </contour>
  </outline>
</glyph>
<glyph name="seven" format="2">
  <advance width="550.0"/>
  <unicode hex="0037"/>
  <outline>
    <contour>
      <point x="50" y="600" type="line"/>
      <point x="260.0" y="600.0" type="line"/>
      <point x="461.6748896552265" y="600.0"/>
      <point x="500.0" y="728.2691554084996"/>
      <point x="500.0" y="800.0" type="curve"/>
      <point x="50" y="800" type="line"/>
    </contour>
    <contour>
      <point x="300" y="0" type="line"/>
      <point x="500" y="0" type="line"/>
      <point x="500" y="600" type="line"/>
      <point x="428.2691554084996" y="600.0"/>
      <point x="300.0" y="561.6748896552265"/>
      <point x="300.0" y="360.0" type="curve"/>
    </contour>
  </outline>
</glyph>
<glyph name="eight" format="2">
  <advance width="550.0"/>
  <unicode hex="0038"/>
  <outline>
    <contour>
      <point x="50" y="600" type="line"/>
      <point x="50.00000000000001" y="489.61699999999996"/>
      <point x="139.61699999999996" y="400.0"/>
      <point x="250.0" y="400.0" type="curve"/>
      <point x="250" y="805" type="line"/>
      <point x="139.61699999999996" y="805.0"/>
      <point x="50.00000000000001" y="715.383"/>
      <point x="50.0" y="605.0" type="curve"/>
    </contour>
    <contour>
      <point x="300" y="400" type="line"/>
      <point x="410.38300000000004" y="400.0"/>
      <point x="500.0" y="489.61699999999996"/>
      <point x="500.0" y="600.0" type="curve"/>
      <point x="500" y="605" type="line"/>
      <point x="500.0" y="715.383"/>
      <point x="410.38300000000004" y="805.0"/>
      <point x="300.0" y="805.0" type="curve"/>
    </contour>
    <contour>
      <point x="50" y="195" type="line"/>
      <point x="50.00000000000001" y="84.61699999999996"/>
      <point x="139.61699999999996" y="-4.999999999999987"/>
      <point x="250.0" y="-5.0" type="curve"/>
      <point x="250" y="400" type="line"/>
      <point x="139.61699999999996" y="400.0"/>
      <point x="50.00000000000001" y="310.38300000000004"/>
      <point x="50.0" y="200.0" type="curve"/>
    </contour>
    <contour>
      <point x="300" y="-5" type="line"/>
      <point x="410.38300000000004" y="-5.0"/>
      <point x="500.0" y="84.61699999999998"/>
      <point x="500.0" y="195.0" type="curve"/>
      <point x="500" y="200" type="line"/>
      <point x="500.0" y="310.38300000000004"/>
      <point x="410.38300000000004" y="400.0"/>
      <point x="300.0" y="400.0" type="curve"/>
    </contour>
  </outline>
</glyph>
<glyph name="nine" format="2">
  <advance width="550.0"/>
  <unicode hex="0039"/>
  <outline>
    <contour>
      <point x="50.0" y="540.0" type="line"/>
      <point x="50.000000000000014" y="338.3251103447735"/>
      <point x="178.26915540849964" y="300.0"/>
      <point x="250.0" y="300.0" type="curve"/>
      <point x="250" y="805" type="line"/>
      <point x="178.26915540849964" y="805.0"/>
      <point x="50.000000000000014" y="766.6748896552265"/>
      <point x="50.0" y="565.0" type="curve"/>
    </contour>
    <contour>
      <point x="300" y="-5" type="line"/>
      <point x="371.7308445915004" y="-5.0"/>
      <point x="500.0" y="33.32511034477355"/>
      <point x="500.0" y="235.0" type="curve"/>
      <point x="500.0" y="565.0" type="line"/>
      <point x="500.0" y="766.6748896552265"/>
      <point x="371.7308445915004" y="805.0"/>
      <point x="300.0" y="805.0" type="curve"/>
    </contour>
    <contour>
      <point x="261.25" y="95.0" type="curve" smooth="yes"/>
      <point x="261.25" y="152.95108"/>
      <point x="214.20108" y="200.0"/>
      <point x="156.25" y="200.0" type="curve" smooth="yes"/>
      <point x="98.29892000000001" y="200.0"/>
      <point x="51.25" y="152.95108"/>
      <point x="51.25" y="95.0" type="curve" smooth="yes"/>
      <point x="51.25" y="37.04892"/>
      <point x="98.29892000000001" y="-10.0"/>
      <point x="156.25" y="-10.0" type="curve" smooth="yes"/>
      <point x="214.20108" y="-10.0"/>
      <point x="261.25" y="37.04892"/>
    </contour>
  </outline>
</glyph>
<glyph name="less" format="2">
  <advance width="500.0"/>
  <unicode hex="003C"/>
  <outline>
    <contour>
      <point x="50.0" y="340.0" type="line"/>
      <point x="50.000000000000014" y="109.910472819949"/>
      <point x="204.4794267876777" y="100.00000000000001"/>
      <point x="290.0" y="100.0" type="curve"/>
      <point x="450" y="100" type="line"/>
      <point x="450.0" y="210.383"/>
      <point x="360.383" y="300.0"/>
      <point x="250.0" y="300.0" type="curve"/>
      <point x="250" y="500" type="line"/>
      <point x="360.383" y="500.0"/>
      <point x="450.0" y="589.617"/>
      <point x="450.0" y="700.0" type="curve"/>
      <point x="290.0" y="700.0" type="line"/>
      <point x="206.58346900964938" y="700.0"/>
      <point x="50.000000000000014" y="691.4110869661358"/>
      <point x="50.0" y="460.0" type="curve"/>
    </contour>
  </outline>
</glyph>
<glyph name="greater" format="2">
  <advance width="500.0"/>
  <unicode hex="003E"/>
  <outline>
    <contour>
      <point x="210.0" y="100.0" type="line"/>
      <point x="440.089527180051" y="100.0"/>
      <point x="450.0" y="254.4794267876777"/>
      <point x="450.0" y="340.0" type="curve"/>
      <point x="450.0" y="460.0" type="line"/>
      <point x="450.0" y="690.0895271800509"/>
      <point x="295.5205732123223" y="700.0"/>
      <point x="210.0" y="700.0" type="curve"/>
      <point x="50" y="700" type="line"/>
      <point x="50.0" y="589.617"/>
      <point x="139.617" y="500.0"/>
      <point x="250.0" y="500.0" type="curve"/>
      <point x="250" y="300" type="line"/>
      <point x="139.617" y="300.0"/>
      <point x="50.0" y="210.383"/>
      <point x="50.0" y="100.0" type="curve"/>
    </contour>
  </outline>
</glyph>
<glyph name="question" format="2">
  <advance width="550.0"/>
  <unicode hex="003F"/>
  <outline>
    <contour>
      <point x="255.0" y="712.5" type="curve" smooth="yes"/>
      <point x="255.0" y="770.45108"/>
      <point x="207.95108" y="817.5"/>
      <point x="150.0" y="817.5" type="curve" smooth="yes"/>
      <point x="92.04892000000001" y="817.5"/>
      <point x="45.0" y="770.45108"/>
      <point x="45.0" y="712.5" type="curve" smooth="yes"/>
      <point x="45.0" y="654.54892"/>
      <point x="92.04892000000001" y="607.5"/>
      <point x="150.0" y="607.5" type="curve" smooth="yes"/>
      <point x="207.95108" y="607.5"/>
      <point x="255.0" y="654.54892"/>
    </contour>
    <contour>
      <point x="300" y="405" type="line"/>
      <point x="410.383" y="405.0"/>
      <point x="500.0" y="494.617"/>
      <point x="500.0" y="605.0" type="curve"/>
      <point x="500.0" y="715.383"/>
      <point x="410.383" y="805.0"/>
      <point x="300.0" y="805.0" type="curve"/>
    </contour>
    <contour>
      <point x="50" y="212.5" type="line"/>
      <point x="250" y="212.5" type="line"/>
      <point x="250" y="600" type="line"/>
      <point x="178.26915540849964" y="600.0"/>
      <point x="50.000000000000014" y="561.6748896552265"/>
      <point x="50.0" y="360.0" type="curve"/>
    </contour>
    <contour>
      <point x="255.0" y="93.75" type="curve" smooth="yes"/>
      <point x="255.0" y="151.70108"/>
      <point x="207.95108" y="198.75"/>
      <point x="150.0" y="198.75" type="curve" smooth="yes"/>
      <point x="92.04892000000001" y="198.75"/>
      <point x="45.0" y="151.70108"/>
      <point x="45.0" y="93.75" type="curve" smooth="yes"/>
      <point x="45.0" y="35.79892"/>
      <point x="92.04892000000001" y="-11.25"/>
      <point x="150.0" y="-11.25" type="curve" smooth="yes"/>
      <point x="207.95108" y="-11.25"/>
      <point x="255.0" y="35.79892"/>
    </contour>
  </outline>
</glyph>
<glyph name="B" format="2">
  <advance width="550.0"/>
  <unicode hex="0042"/>
  <outline>
    <contour>
      <point x="50" y="0" type="line"/>
      <point x="250" y="0" type="line"/>
      <point x="250" y="800" type="line"/>
      <point x="50" y="800" type="line"/>
    </contour>
    <contour>
      <point x="300" y="400" type="line"/>
      <point x="410.383" y="400.0"/>
      <point x="500.0" y="489.617"/>
      <point x="500.0" y="600.0" type="curve"/>
      <point x="500.0" y="710.383"/>
      <point x="410.383" y="800.0"/>
      <point x="300.0" y="800.0" type="curve"/>
    </contour>
    <contour>
      <point x="300" y="0" type="line"/>
      <point x="410.383" y="0.0"/>
      <point x="500.0" y="89.617"/>
      <point x="500.0" y="200.0" type="curve"/>
      <point x="500.0" y="310.383"/>
      <point x="410.383" y="400.0"/>
      <point x="300.0" y="400.0" type="curve"/>
    </contour>
  </outline>
</glyph>
<glyph name="D" format="2">
  <advance width="550.0"/>
  <unicode hex="0044"/>
  <outline>
    <contour>
      <point x="50" y="0" type="line"/>
      <point x="250" y="0" type="line"/>
      <point x="250" y="800" type="line"/>
      <point x="50" y="800" type="line"/>
    </contour>
    <contour>
      <point x="300" y="0" type="line"/>
      <point x="371.7308445915004" y="0.0"/>
      <point x="500.0" y="38.32511034477355"/>
      <point x="500.0" y="240.0" type="curve"/>
      <point x="500.0" y="560.0" type="line"/>
      <point x="500.0" y="761.6748896552265"/>
      <point x="371.7308445915004" y="800.0"/>
      <point x="300.0" y="800.0" type="curve"/>
    </contour>
  </outline>
</glyph>
<glyph name="H" format="2">
  <advance width="800.0"/>
  <unicode hex="0048"/>
  <outline>
    <contour>
      <point x="50" y="0" type="line"/>
      <point x="250" y="0" type="line"/>
      <point x="250" y="800" type="line"/>
      <point x="50" y="800" type="line"/>
    </contour>
    <contour>
      <point x="550" y="0" type="line"/>
      <point x="750" y="0" type="line"/>
      <point x="750" y="800" type="line"/>
      <point x="550" y="800" type="line"/>
    </contour>
    <contour>
      <point x="300.0" y="500.0" type="line"/>
      <point x="300.0" y="389.617"/>
      <point x="389.617" y="300.0"/>
      <point x="500.0" y="300.0" type="curve"/>
      <point x="500.0" y="500.0" type="line"/>
    </contour>
  </outline>
</glyph>
<glyph name="J" format="2">
  <advance width="550.0"/>
  <unicode hex="004A"/>
  <outline>
    <contour>
      <point x="300" y="-5" type="line"/>
      <point x="371.7308445915004" y="-5.0"/>
      <point x="500.0" y="33.32511034477355"/>
      <point x="500.0" y="235.0" type="curve"/>
      <point x="500" y="800" type="line"/>
      <point x="300" y="800" type="line"/>
    </contour>
    <contour>
      <point x="255.0" y="95.0" type="curve" smooth="yes"/>
      <point x="255.0" y="152.95108"/>
      <point x="207.95108" y="200.0"/>
      <point x="150.0" y="200.0" type="curve" smooth="yes"/>
      <point x="92.04892000000001" y="200.0"/>
      <point x="45.0" y="152.95108"/>
      <point x="45.0" y="95.0" type="curve" smooth="yes"/>
      <point x="45.0" y="37.04892"/>
      <point x="92.04892000000001" y="-10.0"/>
      <point x="150.0" y="-10.0" type="curve" smooth="yes"/>
      <point x="207.95108" y="-10.0"/>
      <point x="255.0" y="37.04892"/>
    </contour>
  </outline>
</glyph>
<glyph name="K" format="2">
  <advance width="550.0"/>
  <unicode hex="004B"/>
  <outline>
    <contour>
      <point x="50" y="0" type="line"/>
      <point x="250" y="0" type="line"/>
      <point x="250" y="800" type="line"/>
      <point x="50" y="800" type="line"/>
    </contour>
    <contour>
      <point x="300" y="400" type="line"/>
      <point x="371.7308445915004" y="400.0"/>
      <point x="500.0" y="438.3251103447735"/>
      <point x="500.0" y="640.0" type="curve"/>
      <point x="500" y="800" type="line"/>
      <point x="300" y="800" type="line"/>
    </contour>
    <contour>
      <point x="300" y="0" type="line"/>
      <point x="500" y="0" type="line"/>
      <point x="500.0" y="160.0" type="line"/>
      <point x="500.0" y="361.6748896552265"/>
      <point x="371.7308445915004" y="400.0"/>
      <point x="300.0" y="400.0" type="curve"/>
    </contour>
  </outline>
</glyph>
<glyph name="L" format="2">
  <advance width="550.0"/>
  <unicode hex="004C"/>
  <outline>
    <contour>
      <point x="50" y="0" type="line"/>
      <point x="250" y="0" type="line"/>
      <point x="250" y="800" type="line"/>
      <point x="50" y="800" type="line"/>
    </contour>
    <contour>
      <point x="500.0" y="200.0" type="line"/>
      <point x="389.617" y="200.0"/>
      <point x="300.0" y="110.383"/>
      <point x="300.0" y="0.0" type="curve"/>
      <point x="500.0" y="0.0" type="line"/>
    </contour>
  </outline>
</glyph>
<glyph name="M" format="2">
  <advance width="800.0"/>
  <unicode hex="004D"/>
  <outline>
    <contour>
      <point x="50" y="0" type="line"/>
      <point x="250" y="0" type="line"/>
      <point x="250" y="800" type="line"/>
      <point x="50" y="800" type="line"/>
    </contour>
    <contour>
      <point x="300" y="0" type="line"/>
      <point x="500" y="0" type="line"/>
      <point x="500" y="800" type="line"/>
      <point x="300" y="800" type="line"/>
    </contour>
    <contour>
      <point x="550" y="0" type="line"/>
      <point x="750" y="0" type="line"/>
      <point x="750.0" y="560.0" type="line"/>
      <point x="750.0" y="761.6748896552265"/>
      <point x="621.7308445915004" y="800.0"/>
      <point x="550.0" y="800.0" type="curve"/>
    </contour>
  </outline>
</glyph>
<glyph name="N" format="2">
  <advance width="550.0"/>
  <unicode hex="004E"/>
  <outline>
    <contour>
      <point x="50" y="0" type="line"/>
      <point x="250" y="0" type="line"/>
      <point x="250" y="800" type="line"/>
      <point x="50" y="800" type="line"/>
    </contour>
    <contour>
      <point x="300" y="0" type="line"/>
      <point x="500" y="0" type="line"/>
      <point x="500.0" y="560.0" type="line"/>
      <point x="500.0" y="761.6748896552265"/>
      <point x="371.7308445915004" y="800.0"/>
      <point x="300.0" y="800.0" type="curve"/>
    </contour>
  </outline>
</glyph>
<glyph name="P" format="2">
  <advance width="550.0"/>
  <unicode hex="0050"/>
  <outline>
    <contour>
      <point x="50" y="0" type="line"/>
      <point x="250" y="0" type="line"/>
      <point x="250" y="800" type="line"/>
      <point x="50" y="800" type="line"/>
    </contour>
    <contour>
      <point x="300" y="200" type="line"/>
      <point x="371.7308445915004" y="200.0"/>
      <point x="500.0" y="238.32511034477355"/>
      <point x="500.0" y="440.0" type="curve"/>
      <point x="500.0" y="560.0" type="line"/>
      <point x="500.0" y="761.6748896552265"/>
      <point x="371.7308445915004" y="800.0"/>
      <point x="300.0" y="800.0" type="curve"/>
    </contour>
  </outline>
</glyph>
<glyph name="Q" format="2">
  <advance width="550.0"/>
  <unicode hex="0051"/>
  <outline>
    <contour>
      <point x="50.0" y="235.0" type="line"/>
      <point x="50.000000000000014" y="33.32511034477355"/>
      <point x="178.26915540849964" y="-4.999999999999991"/>
      <point x="250.0" y="-5.0" type="curve"/>
      <point x="250" y="805" type="line"/>
      <point x="178.26915540849964" y="805.0"/>
      <point x="50.000000000000014" y="766.6748896552265"/>
      <point x="50.0" y="565.0" type="curve"/>
    </contour>
    <contour>
      <point x="300.03254256915994" y="35.000469172040276" type="line"/>
      <point x="300.04069325064273" y="-157.85526040554726"/>
      <point x="424.40465768888475" y="-200.0"/>
      <point x="500.0" y="-200.0" type="curve"/>
      <point x="500" y="0" type="line"/>
      <point x="344.5445327758789" y="0" type="line"/>
      <point x="495.94970494878834" y="34.471592489221145"/>
      <point x="499.99999999999994" y="183.03658945796"/>
      <point x="499.99999999999994" y="235.0" type="curve"/>
      <point x="500.0" y="565.0" type="line"/>
      <point x="500.00000000000006" y="766.6748896552265"/>
      <point x="371.7308445915004" y="805.0"/>
      <point x="300.0" y="805.0" type="curve"/>
    </contour>
  </outline>
</glyph>
<glyph name="W" format="2">
  <advance width="800.0"/>
  <unicode hex="0057"/>
  <outline>
    <contour>
      <point x="50.0" y="240.0" type="line"/>
      <point x="50.000000000000014" y="38.32511034477355"/>
      <point x="178.26915540849964" y="8.784494922911714e-15"/>
      <point x="250.0" y="0.0" type="curve"/>
      <point x="250.0" y="560.0" type="line"/>
      <point x="250.0" y="761.6748896552265"/>
      <point x="121.73084459150036" y="800.0"/>
      <point x="50.0" y="800.0" type="curve"/>
    </contour>
    <contour>
      <point x="300" y="0" type="line"/>
      <point x="500" y="0" type="line"/>
      <point x="500.0" y="560.0" type="line"/>
      <point x="500.0" y="761.6748896552265"/>
      <point x="371.7308445915004" y="800.0"/>
      <point x="300.0" y="800.0" type="curve"/>
    </contour>
    <contour>
      <point x="550" y="0" type="line"/>
      <point x="621.7308445915004" y="0.0"/>
      <point x="750.0" y="38.32511034477355"/>
      <point x="750.0" y="240.0" type="curve"/>
      <point x="750" y="800" type="line"/>
      <point x="550" y="800" type="line"/>
    </contour>
  </outline>
</glyph>
<glyph name="backslash" format="2">
  <advance width="552.0042103603344"/>
  <unicode hex="005C"/>
  <outline>
    <contour>
      <point x="246.70247498195803" y="122.97738033347024" type="line"/>
      <point x="298.89977749668765" y="-71.82560405751276"/>
      <point x="432.71753502787664" y="-75.64631733585153"/>
      <point x="502.00421036033435" y="-57.081008634282114" type="curve"/>
      <point x="305.3017363941195" y="677.0226196532117" type="line"/>
      <point x="253.10443412998993" y="871.8256041113427"/>
      <point x="119.28667533245773" y="875.6463173358516"/>
      <point x="50.0" y="857.0810086342822" type="curve"/>
    </contour>
  </outline>
</glyph>
<glyph name="bracketright" format="2">
  <advance width="500.0"/>
  <unicode hex="005D"/>
  <outline>
    <contour>
      <point x="250" y="100" type="line"/>
      <point x="139.617" y="100.0"/>
      <point x="50.0" y="10.383"/>
      <point x="50.0" y="-100.0" type="curve"/>
      <point x="450" y="-100" type="line"/>
      <point x="450" y="900" type="line"/>
      <point x="50" y="900" type="line"/>
      <point x="50.0" y="789.617"/>
      <point x="139.617" y="700.0"/>
      <point x="250.0" y="700.0" type="curve"/>
    </contour>
  </outline>
</glyph>
<glyph name="asciicircum" format="2">
  <advance width="500.0"/>
  <unicode hex="005E"/>
  <outline>
    <contour>
      <point x="50.0" y="700.0" type="line"/>
      <point x="160.38299999999998" y="700.0"/>
      <point x="250.0" y="789.617"/>
      <point x="250.0" y="900.0" type="curve"/>
      <point x="50.0" y="900.0" type="line"/>
    </contour>
    <contour>
      <point x="250.0" y="900.0" type="line"/>
      <point x="250.0" y="789.617"/>
      <point x="339.617" y="700.0"/>
      <point x="450.0" y="700.0" type="curve"/>
      <point x="450.0" y="900.0" type="line"/>
    </contour>
  </outline>
</glyph>
<glyph name="b" format="2">
  <advance width="550.0"/>
  <unicode hex="0062"/>
  <outline>
    <contour>
      <point x="50" y="0" type="line"/>
      <point x="250" y="0" type="line"/>
      <point x="250" y="800" type="line"/>
      <point x="50" y="800" type="line"/>
    </contour>
    <contour>
      <point x="300" y="0" type="line"/>
      <point x="371.7308445915004" y="0.0"/>
      <point x="500.0" y="38.32511034477355"/>
      <point x="500.0" y="240.0" type="curve"/>
      <point x="500.0" y="365.0" type="line"/>
      <point x="500.0" y="566.6748896552265"/>
      <point x="371.7308445915004" y="605.0"/>
      <point x="300.0" y="605.0" type="curve"/>
    </contour>
  </outline>
</glyph>
<glyph name="f" format="2">
  <advance width="550.0"/>
  <unicode hex="0066"/>
  <outline>
    <contour>
      <point x="50" y="0" type="line"/>
      <point x="250" y="0" type="line"/>
      <point x="250" y="800" type="line"/>
      <point x="178.26915540849964" y="800.0"/>
      <point x="50.000000000000014" y="761.6748896552265"/>
      <point x="50.0" y="560.0" type="curve"/>
    </contour>
    <contour>
      <point x="300.0" y="800.0" type="line"/>
      <point x="300.0" y="689.617"/>
      <point x="389.617" y="600.0"/>
      <point x="500.0" y="600.0" type="curve"/>
      <point x="500.0" y="800.0" type="line"/>
    </contour>
    <contour>
      <point x="300.0" y="587.5" type="line"/>
      <point x="300.0" y="477.117"/>
      <point x="389.617" y="387.5"/>
      <point x="500.0" y="387.5" type="curve"/>
      <point x="500.0" y="587.5" type="line"/>
    </contour>
  </outline>
</glyph>
<glyph name="i" format="2">
  <advance width="300.0"/>
  <unicode hex="0069"/>
  <outline>
    <contour>
      <point x="255.0" y="733.33333" type="curve" smooth="yes"/>
      <point x="255.0" y="791.28441"/>
      <point x="207.95108" y="838.33333"/>
      <point x="150.0" y="838.33333" type="curve" smooth="yes"/>
      <point x="92.04892000000001" y="838.33333"/>
      <point x="45.0" y="791.28441"/>
      <point x="45.0" y="733.33333" type="curve" smooth="yes"/>
      <point x="45.0" y="675.38225"/>
      <point x="92.04892000000001" y="628.33333"/>
      <point x="150.0" y="628.33333" type="curve" smooth="yes"/>
      <point x="207.95108" y="628.33333"/>
      <point x="255.0" y="675.38225"/>
    </contour>
    <contour>
      <point x="50" y="0" type="line"/>
      <point x="250" y="0" type="line"/>
      <point x="250" y="600" type="line"/>
      <point x="50" y="600" type="line"/>
    </contour>
  </outline>
</glyph>
<glyph name="j" format="2">
  <advance width="550.0"/>
  <unicode hex="006A"/>
  <outline>
    <contour>
      <point x="505.0" y="733.33333" type="curve" smooth="yes"/>
      <point x="505.0" y="791.28441"/>
      <point x="457.95108" y="838.33333"/>
      <point x="400.0" y="838.33333" type="curve" smooth="yes"/>
      <point x="342.04892" y="838.33333"/>
      <point x="295.0" y="791.28441"/>
      <point x="295.0" y="733.33333" type="curve" smooth="yes"/>
      <point x="295.0" y="675.38225"/>
      <point x="342.04892" y="628.33333"/>
      <point x="400.0" y="628.33333" type="curve" smooth="yes"/>
      <point x="457.95108" y="628.33333"/>
      <point x="505.0" y="675.38225"/>
    </contour>
    <contour>
      <point x="300" y="-210" type="line"/>
      <point x="371.7308445915004" y="-210.0"/>
      <point x="500.0" y="-171.67488965522645"/>
      <point x="500.0" y="30.0" type="curve"/>
      <point x="500" y="600" type="line"/>
      <point x="300" y="600" type="line"/>
    </contour>
    <contour>
      <point x="256.25" y="-110.0" type="curve" smooth="yes"/>
      <point x="256.25" y="-54.8085"/>
      <point x="211.4415" y="-10.0"/>
      <point x="156.25" y="-10.0" type="curve" smooth="yes"/>
      <point x="101.05850000000001" y="-10.0"/>
      <point x="56.25" y="-54.8085"/>
      <point x="56.25" y="-110.0" type="curve" smooth="yes"/>
      <point x="56.25" y="-165.1915"/>
      <point x="101.05850000000001" y="-210.0"/>
      <point x="156.25" y="-210.0" type="curve" smooth="yes"/>
      <point x="211.4415" y="-210.0"/>
      <point x="256.25" y="-165.1915"/>
    </contour>
  </outline>
</glyph>
<glyph name="l" format="2">
  <advance width="300.0"/>
  <unicode hex="006C"/>
  <outline>
    <contour>
      <point x="50.0" y="235.0" type="line"/>
      <point x="50.000000000000014" y="33.32511034477355"/>
      <point x="178.26915540849964" y="-4.999999999999991"/>
      <point x="250.0" y="-5.0" type="curve"/>
      <point x="250" y="800" type="line"/>
      <point x="50" y="800" type="line"/>
    </contour>
  </outline>
</glyph>
<glyph name="m" format="2">
  <advance width="800.0"/>
  <unicode hex="006D"/>
  <outline>
    <contour>
      <point x="50" y="0" type="line"/>
      <point x="250" y="0" type="line"/>
      <point x="250" y="600" type="line"/>
      <point x="50" y="600" type="line"/>
    </contour>
    <contour>
      <point x="300" y="0" type="line"/>
      <point x="500" y="0" type="line"/>
      <point x="500" y="600" type="line"/>
      <point x="300" y="600" type="line"/>
    </contour>
    <contour>
      <point x="550" y="0" type="line"/>
      <point x="750" y="0" type="line"/>
      <point x="750.0" y="360.0" type="line"/>
      <point x="750.0" y="561.6748896552265"/>
      <point x="621.7308445915004" y="600.0"/>
      <point x="550.0" y="600.0" type="curve"/>
    </contour>
  </outline>
</glyph>
<glyph name="n" format="2">
  <advance width="550.0"/>
  <unicode hex="006E"/>
  <outline>
    <contour>
      <point x="50" y="0" type="line"/>
      <point x="250" y="0" type="line"/>
      <point x="250" y="600" type="line"/>
      <point x="50" y="600" type="line"/>
    </contour>
    <contour>
      <point x="300" y="0" type="line"/>
      <point x="500" y="0" type="line"/>
      <point x="500.0" y="360.0" type="line"/>
      <point x="500.0" y="561.6748896552265"/>
      <point x="371.7308445915004" y="600.0"/>
      <point x="300.0" y="600.0" type="curve"/>
    </contour>
  </outline>
</glyph>
<glyph name="q" format="2">
  <advance width="550.0"/>
  <unicode hex="0071"/>
  <outline>
    <contour>
      <point x="50.0" y="240.0" type="line"/>
      <point x="50.000000000000014" y="38.32511034477355"/>
      <point x="178.26915540849964" y="8.784494922911714e-15"/>
      <point x="250.0" y="0.0" type="curve"/>
      <point x="250" y="600" type="line"/>
      <point x="178.26915540849964" y="600.0"/>
      <point x="50.000000000000014" y="561.6748896552265"/>
      <point x="50.0" y="360.0" type="curve"/>
    </contour>
    <contour>
      <point x="300" y="-200" type="line"/>
      <point x="500" y="-200" type="line"/>
      <point x="500" y="600" type="line"/>
      <point x="300" y="600" type="line"/>
    </contour>
  </outline>
</glyph>
<glyph name="r" format="2">
  <advance width="550.0"/>
  <unicode hex="0072"/>
  <outline>
    <contour>
      <point x="505.0" y="500.0" type="curve" smooth="yes"/>
      <point x="505.0" y="557.95108"/>
      <point x="457.95108" y="605.0"/>
      <point x="400.0" y="605.0" type="curve" smooth="yes"/>
      <point x="342.04892" y="605.0"/>
      <point x="295.0" y="557.95108"/>
      <point x="295.0" y="500.0" type="curve" smooth="yes"/>
      <point x="295.0" y="442.04892"/>
      <point x="342.04892" y="395.0"/>
      <point x="400.0" y="395.0" type="curve" smooth="yes"/>
      <point x="457.95108" y="395.0"/>
      <point x="505.0" y="442.04892"/>
    </contour>
    <contour>
      <point x="50" y="0" type="line"/>
      <point x="250" y="0" type="line"/>
      <point x="250" y="600" type="line"/>
      <point x="50" y="600" type="line"/>
    </contour>
  </outline>
</glyph>
<glyph name="s" format="2">
  <advance width="550.0"/>
  <unicode hex="0073"/>
  <outline>
    <contour>
      <point x="250" y="600" type="line"/>
      <point x="139.61700000000002" y="600.0"/>
      <point x="50.0" y="510.383"/>
      <point x="50.0" y="400.0" type="curve"/>
      <point x="50.0" y="289.617"/>
      <point x="139.61700000000002" y="200.0"/>
      <point x="250.0" y="200.0" type="curve"/>
    </contour>
    <contour>
      <point x="293.75" y="600.0" type="line"/>
      <point x="293.75" y="489.617"/>
      <point x="383.367" y="400.0"/>
      <point x="493.75" y="400.0" type="curve"/>
      <point x="493.75" y="600.0" type="line"/>
    </contour>
    <contour>
      <point x="300" y="-5" type="line"/>
      <point x="410.383" y="-5.0"/>
      <point x="500.0" y="84.617"/>
      <point x="500.0" y="195.0" type="curve"/>
      <point x="500.0" y="305.383"/>
      <point x="410.383" y="395.0"/>
      <point x="300.0" y="395.0" type="curve"/>
    </contour>
    <contour>
      <point x="253.125" y="0" type="line"/>
      <point x="253.125" y="110.383"/>
      <point x="163.50799999999998" y="200.0"/>
      <point x="53.125" y="200.0" type="curve"/>
      <point x="53.125" y="0" type="line"/>
    </contour>
  </outline>
</glyph>
<glyph name="t" format="2">
  <advance width="550.0"/>
  <unicode hex="0074"/>
  <outline>
    <contour>
      <point x="50" y="0" type="line"/>
      <point x="250" y="0" type="line"/>
      <point x="250" y="800" type="line"/>
      <point x="178.26915540849964" y="800.0"/>
      <point x="50.000000000000014" y="761.6748896552265"/>
      <point x="50.0" y="560.0" type="curve"/>
    </contour>
    <contour>
      <point x="300.0" y="400.0" type="line"/>
      <point x="410.383" y="400.0"/>
      <point x="500.0" y="489.617"/>
      <point x="500.0" y="600.0" type="curve"/>
      <point x="300.0" y="600.0" type="line"/>
    </contour>
  </outline>
</glyph>
<glyph name="z" format="2">
  <advance width="550.0"/>
  <unicode hex="007A"/>
  <outline>
    <contour>
      <point x="50.0" y="400.0" type="line"/>
      <point x="160.38299999999998" y="400.0"/>
      <point x="250.0" y="489.617"/>
      <point x="250.0" y="600.0" type="curve"/>
      <point x="50.0" y="600.0" type="line"/>
    </contour>
    <contour>
      <point x="300" y="200" type="line"/>
      <point x="371.7308445915004" y="200.0"/>
      <point x="500.0" y="238.32511034477355"/>
      <point x="500.0" y="440.0" type="curve"/>
      <point x="500" y="600" type="line"/>
      <point x="300" y="600" type="line"/>
    </contour>
    <contour>
      <point x="50" y="0" type="line"/>
      <point x="250" y="0" type="line"/>
      <point x="250" y="400" type="line"/>
      <point x="178.26915540849964" y="400.0"/>
      <point x="50.000000000000014" y="361.6748896552265"/>
      <point x="50.0" y="160.0" type="curve"/>
    </contour>
    <contour>
      <point x="500.0" y="200.0" type="line"/>
      <point x="389.617" y="200.0"/>
      <point x="300.0" y="110.383"/>
      <point x="300.0" y="0.0" type="curve"/>
      <point x="500.0" y="0.0" type="line"/>
    </contour>
  </outline>
</glyph>
<glyph name="braceleft" format="2">
  <advance width="300.0"/>
  <unicode hex="007B"/>
  <outline>
    <contour>
      <point x="50" y="400" type="line"/>
      <point x="121.73084459150036" y="400.0"/>
      <point x="250.0" y="438.3251103447735"/>
      <point x="250.0" y="640.0" type="curve"/>
      <point x="250" y="900" type="line"/>
      <point x="178.26915540849964" y="900.0"/>
      <point x="50.000000000000014" y="861.6748896552265"/>
      <point x="50.0" y="660.0" type="curve"/>
    </contour>
    <contour>
      <point x="50.0" y="140.0" type="line"/>
      <point x="50.000000000000014" y="-61.67488965522645"/>
      <point x="178.26915540849964" y="-99.99999999999999"/>
      <point x="250.0" y="-100.0" type="curve"/>
      <point x="250.0" y="160.0" type="line"/>
      <point x="250.0" y="361.6748896552265"/>
      <point x="121.73084459150036" y="400.0"/>
      <point x="50.0" y="400.0" type="curve"/>
    </contour>
  </outline>
</glyph>
<glyph name="tilde" format="2">
  <advance width="550.0"/>
  <unicode hex="007E"/>
  <outline>
    <contour>
      <point x="260.0" y="300.0" type="line"/>
      <point x="461.6748896552265" y="300.0"/>
      <point x="500.0" y="428.2691554084996"/>
      <point x="500.0" y="500.0" type="curve"/>
      <point x="290.0" y="500.0" type="line"/>
      <point x="88.32511034477355" y="500.0"/>
      <point x="50.00000000000001" y="371.7308445915004"/>
      <point x="50.0" y="300.0" type="curve"/>
    </contour>
  </outline>
</glyph>
<glyph name="invexclamation" format="2">
  <advance width="300.0"/>
  <unicode hex="00A1"/>
  <outline>
    <contour>
      <point x="255.0" y="506.25" type="curve" smooth="yes"/>
      <point x="255.0" y="564.20108"/>
      <point x="207.95108" y="611.25"/>
      <point x="150.0" y="611.25" type="curve" smooth="yes"/>
      <point x="92.04892000000001" y="611.25"/>
      <point x="45.0" y="564.20108"/>
      <point x="45.0" y="506.25" type="curve" smooth="yes"/>
      <point x="45.0" y="448.29892"/>
      <point x="92.04892000000001" y="401.25"/>
      <point x="150.0" y="401.25" type="curve" smooth="yes"/>
      <point x="207.95108" y="401.25"/>
      <point x="255.0" y="448.29892"/>
    </contour>
    <contour>
      <point x="50" y="-200" type="line"/>
      <point x="250" y="-200" type="line"/>
      <point x="250" y="387.5" type="line"/>
      <point x="50" y="387.5" type="line"/>
    </contour>
  </outline>
</glyph>
<glyph name="cent" format="2">
  <advance width="550.0"/>
  <unicode hex="00A2"/>
  <outline>
    <contour>
      <point x="150" y="0" type="line"/>
      <point x="250" y="0" type="line"/>
      <point x="250" y="600" type="line"/>
      <point x="150" y="600" type="line"/>
      <point x="150" y="473.18878173828125" type="line"/>
      <point x="90.23831851339921" y="438.6062188229984"/>
      <point x="50.00000000000001" y="373.965109491"/>
      <point x="50.00000000000002" y="300.0" type="curve"/>
      <point x="50.0" y="226.03489050899998"/>
      <point x="90.23831851339921" y="161.39378117700159"/>
      <point x="150" y="126.80882263183594" type="curve"/>
    </contour>
    <contour>
      <point x="300.0" y="540.0" type="line"/>
      <point x="300.0" y="338.3251103447735"/>
      <point x="428.2691554084996" y="300.0"/>
      <point x="500.0" y="300.0" type="curve"/>
      <point x="500" y="500" type="line"/>
      <point x="400" y="500" type="line"/>
      <point x="400" y="600" type="line"/>
      <point x="300" y="600" type="line"/>
    </contour>
    <contour>
      <point x="300" y="0" type="line"/>
      <point x="400" y="0" type="line"/>
      <point x="400" y="100" type="line"/>
      <point x="500" y="100" type="line"/>
      <point x="500" y="300" type="line"/>
      <point x="428.2691554084996" y="300.0"/>
      <point x="300.0" y="261.6748896552265"/>
      <point x="300.0" y="60.0" type="curve"/>
    </contour>
  </outline>
</glyph>
<glyph name="pound" format="2">
  <advance width="705.0"/>
  <unicode hex="00A3"/>
  <outline>
    <contour>
      <point x="200" y="0" type="line"/>
      <point x="400" y="0" type="line"/>
      <point x="400" y="805" type="line"/>
      <point x="328.2691554084996" y="805.0"/>
      <point x="200.0" y="766.6748896552265"/>
      <point x="200.0" y="565.0" type="curve"/>
    </contour>
    <contour>
      <point x="655.0" y="700.0" type="curve" smooth="yes"/>
      <point x="655.0" y="757.95108"/>
      <point x="607.95108" y="805.0"/>
      <point x="550.0" y="805.0" type="curve" smooth="yes"/>
      <point x="492.04891999999995" y="805.0"/>
      <point x="445.0" y="757.95108"/>
      <point x="445.0" y="700.0" type="curve" smooth="yes"/>
      <point x="445.0" y="642.04892"/>
      <point x="492.04891999999995" y="595.0"/>
      <point x="550.0" y="595.0" type="curve" smooth="yes"/>
      <point x="607.95108" y="595.0"/>
      <point x="655.0" y="642.04892"/>
    </contour>
    <contour>
      <point x="50.0" y="350.0" type="line"/>
      <point x="150.0" y="350.0" type="line"/>
      <point x="150.0" y="450.0" type="line"/>
      <point x="50.0" y="450.0" type="line"/>
    </contour>
    <contour>
      <point x="450" y="350" type="line"/>
      <point x="600" y="350" type="line"/>
      <point x="600" y="450" type="line"/>
      <point x="450" y="450" type="line"/>
    </contour>
    <contour>
      <point x="650.0" y="200.0" type="line"/>
      <point x="539.617" y="200.0"/>
      <point x="450.0" y="110.383"/>
      <point x="450.0" y="0.0" type="curve"/>
      <point x="650.0" y="0.0" type="line"/>
    </contour>
    <contour>
      <point x="50.0" y="0" type="line"/>
      <point x="150.0" y="0" type="line"/>
      <point x="150.0" y="100.0" type="line"/>
      <point x="50.0" y="100.0" type="line"/>
    </contour>
  </outline>
</glyph>
<glyph name="currency" format="2">
  <advance width="550.0"/>
  <unicode hex="00A4"/>
  <outline>
    <contour>
      <point x="50" y="200" type="line"/>
      <point x="150" y="200" type="line"/>
      <point x="150" y="226.80882263183594" type="line"/>
      <point x="179.4245811770016" y="209.75473749539918"/>
      <point x="213.58210949099998" y="200.0"/>
      <point x="250.0" y="199.99999999999997" type="curve"/>
      <point x="250" y="600" type="line"/>
      <point x="213.582109491" y="600.0"/>
      <point x="179.4245811770016" y="590.2452625046008"/>
      <point x="150" y="573.1887817382812" type="curve"/>
      <point x="150" y="600" type="line"/>
      <point x="50" y="600" type="line"/>
      <point x="50" y="500" type="line"/>
      <point x="76.80882263183594" y="500" type="line"/>
      <point x="59.761302409077274" y="470.5984026309545"/>
      <point x="50.000000000000014" y="436.43014302200004"/>
      <point x="50.00000000000002" y="400.0" type="curve"/>
      <point x="50.0" y="363.568201233"/>
      <point x="59.76218972895042" y="329.3984914882992"/>
      <point x="76.81121826171875" y="300" type="curve"/>
      <point x="50" y="300" type="line"/>
    </contour>
    <contour>
      <point x="300" y="200" type="line"/>
      <point x="336.417890509" y="200.0"/>
      <point x="370.5754188229984" y="209.75473749539918"/>
      <point x="400" y="226.81121826171875" type="curve"/>
      <point x="400" y="200" type="line"/>
      <point x="500" y="200" type="line"/>
      <point x="500" y="300" type="line"/>
      <point x="473.19117736816406" y="300" type="line"/>
      <point x="490.2386975909227" y="329.4015973690455"/>
      <point x="499.99999999999994" y="363.56985697799996"/>
      <point x="499.99999999999994" y="400.0" type="curve"/>
      <point x="500.0" y="436.431798767"/>
      <point x="490.23781027104957" y="470.6015085117008"/>
      <point x="473.18878173828125" y="500" type="curve"/>
      <point x="500" y="500" type="line"/>
      <point x="500" y="600" type="line"/>
      <point x="400" y="600" type="line"/>
      <point x="400" y="573.1911773681641" type="line"/>
      <point x="370.57541882299836" y="590.2452625046009"/>
      <point x="336.41789050899996" y="600.0000000000001"/>
      <point x="300.0" y="600.0" type="curve"/>
    </contour>
  </outline>
</glyph>
<glyph name="yen" format="2">
  <advance width="850.0"/>
  <unicode hex="00A5"/>
  <outline>
    <contour>
      <point x="200.0" y="440.0" type="line"/>
      <point x="200.0" y="238.32511034477355"/>
      <point x="328.2691554084996" y="200.0"/>
      <point x="400.0" y="200.0" type="curve"/>
      <point x="400.0" y="565.0" type="line"/>
      <point x="400.0" y="766.6748896552265"/>
      <point x="271.7308445915004" y="805.0"/>
      <point x="200.0" y="805.0" type="curve"/>
    </contour>
    <contour>
      <point x="450" y="-5" type="line"/>
      <point x="521.7308445915004" y="-5.0"/>
      <point x="650.0" y="33.32511034477355"/>
      <point x="650.0" y="235.0" type="curve"/>
      <point x="650" y="800" type="line"/>
      <point x="450" y="800" type="line"/>
    </contour>
    <contour>
      <point x="50.0" y="525.0" type="line"/>
      <point x="150.0" y="525.0" type="line"/>
      <point x="150.0" y="625.0" type="line"/>
      <point x="50.0" y="625.0" type="line"/>
    </contour>
    <contour>
      <point x="700.0" y="525.0" type="line"/>
      <point x="800.0" y="525.0" type="line"/>
      <point x="800.0" y="625.0" type="line"/>
      <point x="700.0" y="625.0" type="line"/>
    </contour>
    <contour>
      <point x="50.0" y="375.0" type="line"/>
      <point x="150.0" y="375.0" type="line"/>
      <point x="150.0" y="475.0" type="line"/>
      <point x="50.0" y="475.0" type="line"/>
    </contour>
    <contour>
      <point x="700.0" y="375.0" type="line"/>
      <point x="800.0" y="375.0" type="line"/>
      <point x="800.0" y="475.0" type="line"/>
      <point x="700.0" y="475.0" type="line"/>
    </contour>
  </outline>
</glyph>
<glyph name="section" format="2">
  <advance width="550.0"/>
  <unicode hex="00A7"/>
  <outline>
    <contour>
      <point x="250" y="800" type="line"/>
      <point x="139.61700000000002" y="800.0"/>
      <point x="50.0" y="710.383"/>
      <point x="50.0" y="600.0" type="curve"/>
      <point x="50.0" y="540.28721232"/>
      <point x="76.22531469662721" y="486.6513395667456"/>
      <point x="117.77647399902344" y="449.99473571777344" type="curve"/>
      <point x="76.22531469662721" y="413.3486604332544"/>
      <point x="50.0" y="359.71278768"/>
      <point x="49.99999999999999" y="300.0" type="curve"/>
      <point x="50.0" y="189.617"/>
      <point x="139.61700000000002" y="100.0"/>
      <point x="250.0" y="100.0" type="curve"/>
    </contour>
    <contour>
      <point x="300.0" y="800.0" type="line"/>
      <point x="300.0" y="689.617"/>
      <point x="389.617" y="600.0"/>
      <point x="500.0" y="600.0" type="curve"/>
      <point x="500.0" y="800.0" type="line"/>
    </contour>
    <contour>
      <point x="300" y="-200" type="line"/>
      <point x="410.383" y="-200.0"/>
      <point x="500.0" y="-110.383"/>
      <point x="500.0" y="0.0" type="curve"/>
      <point x="500.0" y="59.71278768"/>
      <point x="473.7746853033728" y="113.3486604332544"/>
      <point x="432.22352600097656" y="150.00526428222656" type="curve"/>
      <point x="473.7746853033728" y="186.6513395667456"/>
      <point x="500.0" y="240.28721232"/>
      <point x="500.0" y="300.0" type="curve"/>
      <point x="500.0" y="410.383"/>
      <point x="410.383" y="500.0"/>
      <point x="300.0" y="500.0" type="curve"/>
    </contour>
    <contour>
      <point x="250.0" y="-200" type="line"/>
      <point x="250.0" y="-89.617"/>
      <point x="160.38299999999998" y="0.0"/>
      <point x="50.0" y="0.0" type="curve"/>
      <point x="50.0" y="-200" type="line"/>
    </contour>
  </outline>
</glyph>
<glyph name="diaeresis" format="2">
  <advance width="550.0"/>
  <unicode hex="00A8"/>
  <outline>
    <contour>
      <point x="255.0" y="900.0" type="curve" smooth="yes"/>
      <point x="255.0" y="957.95108"/>
      <point x="207.95108" y="1005.0"/>
      <point x="150.0" y="1005.0" type="curve" smooth="yes"/>
      <point x="92.04892000000001" y="1005.0"/>
      <point x="45.0" y="957.95108"/>
      <point x="45.0" y="900.0" type="curve" smooth="yes"/>
      <point x="45.0" y="842.04892"/>
      <point x="92.04892000000001" y="795.0"/>
      <point x="150.0" y="795.0" type="curve" smooth="yes"/>
      <point x="207.95108" y="795.0"/>
      <point x="255.0" y="842.04892"/>
    </contour>
    <contour>
      <point x="505.0" y="900.0" type="curve" smooth="yes"/>
      <point x="505.0" y="957.95108"/>
      <point x="457.95108" y="1005.0"/>
      <point x="400.0" y="1005.0" type="curve" smooth="yes"/>
      <point x="342.04892" y="1005.0"/>
      <point x="295.0" y="957.95108"/>
      <point x="295.0" y="900.0" type="curve" smooth="yes"/>
      <point x="295.0" y="842.04892"/>
      <point x="342.04892" y="795.0"/>
      <point x="400.0" y="795.0" type="curve" smooth="yes"/>
      <point x="457.95108" y="795.0"/>
      <point x="505.0" y="842.04892"/>
    </contour>
  </outline>
</glyph>
<glyph name="ordinalfeminine" format="2">
  <advance width="550.0"/>
  <unicode hex="00AA"/>
  <outline>
    <contour>
      <point x="250" y="800" type="line"/>
      <point x="139.61700000000002" y="800.0"/>
      <point x="50.0" y="710.383"/>
      <point x="50.0" y="600.0" type="curve"/>
      <point x="50.0" y="489.617"/>
      <point x="139.61700000000002" y="400.0"/>
      <point x="250.0" y="400.0" type="curve"/>
    </contour>
    <contour>
      <point x="300.0" y="640.0" type="line"/>
      <point x="300.0" y="438.3251103447735"/>
      <point x="428.2691554084996" y="400.0"/>
      <point x="500.0" y="400.0" type="curve"/>
      <point x="500" y="800" type="line"/>
      <point x="300" y="800" type="line"/>
    </contour>
  </outline>
</glyph>
<glyph name="angledblleft" format="2">
  <advance width="550.0"/>
  <unicode hex="00AB"/>
  <outline>
    <contour>
      <point x="250" y="600" type="line"/>
      <point x="139.61700000000002" y="600.0"/>
      <point x="50.0" y="510.383"/>
      <point x="50.0" y="400.0" type="curve"/>
      <point x="50.0" y="289.617"/>
      <point x="139.61700000000002" y="200.0"/>
      <point x="250.0" y="200.0" type="curve"/>
    </contour>
    <contour>
      <point x="500" y="600" type="line"/>
      <point x="389.617" y="600.0"/>
      <point x="300.0" y="510.383"/>
      <point x="300.0" y="400.0" type="curve"/>
      <point x="300.0" y="289.617"/>
      <point x="389.617" y="200.0"/>
      <point x="500.0" y="200.0" type="curve"/>
    </contour>
  </outline>
</glyph>
<glyph name="registered" format="2">
  <advance width="1148.52814"/>
  <unicode hex="00AE"/>
  <outline>
    <contour>
      <point x="998.5281399999999" y="400.0" type="curve" smooth="yes"/>
      <point x="998.5281399999999" y="634.15771"/>
      <point x="808.42178" y="824.26407"/>
      <point x="574.26407" y="824.26407" type="curve" smooth="yes"/>
      <point x="340.10636" y="824.26407"/>
      <point x="150.0" y="634.15771"/>
      <point x="150.0" y="400.0" type="curve" smooth="yes"/>
      <point x="150.0" y="165.84229"/>
      <point x="340.10636" y="-24.26407"/>
      <point x="574.26407" y="-24.26407" type="curve" smooth="yes"/>
      <point x="808.42178" y="-24.26407"/>
      <point x="998.5281399999999" y="165.84229"/>
    </contour>
    <contour>
      <point x="374.2640686035156" y="200" type="line"/>
      <point x="374.2640686035156" y="600" type="line"/>
      <point x="574.2640686035156" y="600" type="line"/>
      <point x="574.2640686035156" y="200" type="line"/>
    </contour>
    <contour>
      <point x="824.26407" y="500.0" type="curve" smooth="yes"/>
      <point x="824.26407" y="444.8085"/>
      <point x="779.4555700000001" y="400.0"/>
      <point x="724.26407" y="400.0" type="curve" smooth="yes"/>
      <point x="669.07257" y="400.0"/>
      <point x="624.26407" y="444.8085"/>
      <point x="624.26407" y="500.0" type="curve" smooth="yes"/>
      <point x="624.26407" y="555.1915"/>
      <point x="669.07257" y="600.0"/>
      <point x="724.26407" y="600.0" type="curve" smooth="yes"/>
      <point x="779.4555700000001" y="600.0"/>
      <point x="824.26407" y="555.1915"/>
    </contour>
  </outline>
</glyph>
<glyph name="sup_two" format="2">
  <advance width="550.0"/>
  <unicode hex="00B2"/>
  <outline>
    <contour>
      <point x="261.25" y="700.0" type="curve" smooth="yes"/>
      <point x="261.25" y="757.95108"/>
      <point x="214.20108" y="805.0"/>
      <point x="156.25" y="805.0" type="curve" smooth="yes"/>
      <point x="98.29892000000001" y="805.0"/>
      <point x="51.25" y="757.95108"/>
      <point x="51.25" y="700.0" type="curve" smooth="yes"/>
      <point x="51.25" y="642.04892"/>
      <point x="98.29892000000001" y="595.0"/>
      <point x="156.25" y="595.0" type="curve" smooth="yes"/>
      <point x="214.20108" y="595.0"/>
      <point x="261.25" y="642.04892"/>
    </contour>
    <contour>
      <point x="300" y="405" type="line"/>
      <point x="410.383" y="405.0"/>
      <point x="500.0" y="494.617"/>
      <point x="500.0" y="605.0" type="curve"/>
      <point x="500.0" y="715.383"/>
      <point x="410.383" y="805.0"/>
      <point x="300.0" y="805.0" type="curve"/>
    </contour>
    <contour>
      <point x="50.0" y="200.0" type="curve"/>
      <point x="500" y="200" type="line"/>
      <point x="500" y="400" type="line"/>
      <point x="290.0" y="400.0" type="line"/>
      <point x="88.32511034477355" y="400.0"/>
      <point x="50.00000000000001" y="271.7308445915004"/>
    </contour>
  </outline>
</glyph>
<glyph name="acute" format="2">
  <advance width="300.0"/>
  <unicode hex="00B4"/>
  <outline>
    <contour>
      <point x="137.5" y="800.0" type="line"/>
      <point x="247.883" y="800.0"/>
      <point x="337.5" y="889.617"/>
      <point x="337.5" y="1000.0" type="curve"/>
      <point x="137.5" y="1000.0" type="line"/>
    </contour>
  </outline>
</glyph>
<glyph name="mu" format="2">
  <advance width="600.0"/>
  <unicode hex="00B5"/>
  <outline>
    <contour>
      <point x="50" y="-200" type="line"/>
      <point x="250" y="-200" type="line"/>
      <point x="250" y="600" type="line"/>
      <point x="50" y="600" type="line"/>
    </contour>
    <contour>
      <point x="300.0" y="240.0" type="line"/>
      <point x="300.0" y="9.910472819949007"/>
      <point x="454.4794267876777" y="5.5746624279823235e-15"/>
      <point x="540.0" y="-4.898587196589413e-15" type="curve"/>
      <point x="550" y="0" type="line"/>
      <point x="550" y="200" type="line"/>
      <point x="500" y="200" type="line"/>
      <point x="500" y="600" type="line"/>
      <point x="300" y="600" type="line"/>
    </contour>
  </outline>
</glyph>
<glyph name="pilcrow" format="2">
  <advance width="550.0"/>
  <unicode hex="00B6"/>
  <outline>
    <contour>
      <point x="250" y="800" type="line"/>
      <point x="139.61700000000002" y="800.0"/>
      <point x="50.0" y="710.383"/>
      <point x="50.0" y="600.0" type="curve"/>
      <point x="50.0" y="489.617"/>
      <point x="139.61700000000002" y="400.0"/>
      <point x="250.0" y="400.0" type="curve"/>
    </contour>
    <contour>
      <point x="300" y="-100" type="line"/>
      <point x="500" y="-100" type="line"/>
      <point x="500" y="800" type="line"/>
      <point x="300" y="800" type="line"/>
    </contour>
  </outline>
</glyph>
<glyph name="one_over_four" format="2">
  <advance width="1050.0"/>
  <unicode hex="00BC"/>
  <outline>
    <contour>
      <point x="25" y="200" type="line"/>
      <point x="225" y="200" type="line"/>
      <point x="225" y="800" type="line"/>
      <point x="25" y="800" type="line"/>
    </contour>
    <contour>
      <point x="300" y="-200" type="line"/>
      <point x="371.7308445915004" y="-200.0"/>
      <point x="500.0" y="-161.67488965522645"/>
      <point x="500.0" y="40.0" type="curve"/>
      <point x="500" y="800" type="line"/>
      <point x="428.2691554084996" y="800.0"/>
      <point x="300.0" y="761.6748896552265"/>
      <point x="300.0" y="560.0" type="curve"/>
    </contour>
    <contour>
      <point x="575" y="0" type="line"/>
      <point x="646.7308445915004" y="0.0"/>
      <point x="775.0" y="38.32511034477355"/>
      <point x="775.0" y="240.0" type="curve"/>
      <point x="775" y="400" type="line"/>
      <point x="575" y="400" type="line"/>
    </contour>
    <contour>
      <point x="825" y="-200" type="line"/>
      <point x="1025" y="-200" type="line"/>
      <point x="1025" y="200" type="line"/>
      <point x="825" y="200" type="line"/>
    </contour>
  </outline>
</glyph>
<glyph name="one_over_two" format="2">
  <advance width="1050.0"/>
  <unicode hex="00BD"/>
  <outline>
    <contour>
      <point x="25" y="200" type="line"/>
      <point x="225" y="200" type="line"/>
      <point x="225" y="800" type="line"/>
      <point x="25" y="800" type="line"/>
    </contour>
    <contour>
      <point x="300" y="-200" type="line"/>
      <point x="371.7308445915004" y="-200.0"/>
      <point x="500.0" y="-161.67488965522645"/>
      <point x="500.0" y="40.0" type="curve"/>
      <point x="500" y="800" type="line"/>
      <point x="428.2691554084996" y="800.0"/>
      <point x="300.0" y="761.6748896552265"/>
      <point x="300.0" y="560.0" type="curve"/>
    </contour>
    <contour>
      <point x="786.25" y="300.0" type="curve" smooth="yes"/>
      <point x="786.25" y="357.95108"/>
      <point x="739.20108" y="405.0"/>
      <point x="681.25" y="405.0" type="curve" smooth="yes"/>
      <point x="623.29892" y="405.0"/>
      <point x="576.25" y="357.95108"/>
      <point x="576.25" y="300.0" type="curve" smooth="yes"/>
      <point x="576.25" y="242.04892"/>
      <point x="623.29892" y="195.0"/>
      <point x="681.25" y="195.0" type="curve" smooth="yes"/>
      <point x="739.20108" y="195.0"/>
      <point x="786.25" y="242.04892"/>
    </contour>
    <contour>
      <point x="825" y="5" type="line"/>
      <point x="935.383" y="5.0"/>
      <point x="1025.0" y="94.617"/>
      <point x="1025.0" y="205.0" type="curve"/>
      <point x="1025.0" y="315.383"/>
      <point x="935.383" y="405.0"/>
      <point x="825.0" y="405.0" type="curve"/>
    </contour>
    <contour>
      <point x="575.0" y="-200.0" type="curve"/>
      <point x="1025" y="-200" type="line"/>
      <point x="1025" y="0" type="line"/>
      <point x="815.0" y="-4.898587196589413e-15" type="line"/>
      <point x="613.3251103447735" y="1.979946361187746e-14"/>
      <point x="575.0" y="-128.26915540849964"/>
    </contour>
  </outline>
</glyph>
<glyph name="three_over_four" format="2">
  <advance width="1300.0"/>
  <unicode hex="00BE"/>
  <outline>
    <contour>
      <point x="230.0" y="700.0" type="curve" smooth="yes"/>
      <point x="230.0" y="757.95108"/>
      <point x="182.95108" y="805.0"/>
      <point x="125.0" y="805.0" type="curve" smooth="yes"/>
      <point x="67.04892" y="805.0"/>
      <point x="20.0" y="757.95108"/>
      <point x="20.0" y="700.0" type="curve" smooth="yes"/>
      <point x="20.0" y="642.04892"/>
      <point x="67.04892" y="595.0"/>
      <point x="125.0" y="595.0" type="curve" smooth="yes"/>
      <point x="182.95108" y="595.0"/>
      <point x="230.0" y="642.04892"/>
    </contour>
    <contour>
      <point x="275.0" y="600.0" type="line"/>
      <point x="385.383" y="600.0"/>
      <point x="475.0" y="689.617"/>
      <point x="475.0" y="800.0" type="curve"/>
      <point x="275.0" y="800.0" type="line"/>
    </contour>
    <contour>
      <point x="550" y="-200" type="line"/>
      <point x="621.7308445915004" y="-200.0"/>
      <point x="750.0" y="-161.67488965522645"/>
      <point x="750.0" y="40.0" type="curve"/>
      <point x="750" y="800" type="line"/>
      <point x="678.2691554084996" y="800.0"/>
      <point x="550.0" y="761.6748896552265"/>
      <point x="550.0" y="560.0" type="curve"/>
    </contour>
    <contour>
      <point x="275" y="195" type="line"/>
      <point x="385.38300000000004" y="195.0"/>
      <point x="475.0" y="284.61699999999996"/>
      <point x="475.0" y="395.0" type="curve"/>
      <point x="475" y="400" type="line"/>
      <point x="475.0" y="510.38300000000004"/>
      <point x="385.38300000000004" y="600.0"/>
      <point x="275.0" y="600.0" type="curve"/>
    </contour>
    <contour>
      <point x="230.0" y="300.0" type="curve" smooth="yes"/>
      <point x="230.0" y="357.95108"/>
      <point x="182.95108" y="405.0"/>
      <point x="125.0" y="405.0" type="curve" smooth="yes"/>
      <point x="67.04892" y="405.0"/>
      <point x="20.0" y="357.95108"/>
      <point x="20.0" y="300.0" type="curve" smooth="yes"/>
      <point x="20.0" y="242.04892"/>
      <point x="67.04892" y="195.0"/>
      <point x="125.0" y="195.0" type="curve" smooth="yes"/>
      <point x="182.95108" y="195.0"/>
      <point x="230.0" y="242.04892"/>
    </contour>
    <contour>
      <point x="825" y="0" type="line"/>
      <point x="896.7308445915004" y="0.0"/>
      <point x="1025.0" y="38.32511034477355"/>
      <point x="1025.0" y="240.0" type="curve"/>
      <point x="1025" y="400" type="line"/>
      <point x="825" y="400" type="line"/>
    </contour>
    <contour>
      <point x="1075" y="-200" type="line"/>
      <point x="1275" y="-200" type="line"/>
      <point x="1275" y="200" type="line"/>
      <point x="1075" y="200" type="line"/>
    </contour>
  </outline>
</glyph>
<glyph name="invquestion" format="2">
  <advance width="550.0"/>
  <unicode hex="00BF"/>
  <outline>
    <contour>
      <point x="505.0" y="506.25" type="curve" smooth="yes"/>
      <point x="505.0" y="564.20108"/>
      <point x="457.95108" y="611.25"/>
      <point x="400.0" y="611.25" type="curve" smooth="yes"/>
      <point x="342.04892" y="611.25"/>
      <point x="295.0" y="564.20108"/>
      <point x="295.0" y="506.25" type="curve" smooth="yes"/>
      <point x="295.0" y="448.29892"/>
      <point x="342.04892" y="401.25"/>
      <point x="400.0" y="401.25" type="curve" smooth="yes"/>
      <point x="457.95108" y="401.25"/>
      <point x="505.0" y="448.29892"/>
    </contour>
    <contour>
      <point x="300" y="0" type="line"/>
      <point x="371.7308445915004" y="0.0"/>
      <point x="500.0" y="38.32511034477355"/>
      <point x="500.0" y="240.0" type="curve"/>
      <point x="500" y="387.5" type="line"/>
      <point x="300" y="387.5" type="line"/>
    </contour>
    <contour>
      <point x="250" y="195" type="line"/>
      <point x="139.61700000000002" y="195.0"/>
      <point x="50.0" y="105.383"/>
      <point x="50.0" y="-5.0" type="curve"/>
      <point x="50.0" y="-115.383"/>
      <point x="139.61700000000002" y="-205.0"/>
      <point x="250.0" y="-205.0" type="curve"/>
    </contour>
    <contour>
      <point x="505.0" y="-112.5" type="curve" smooth="yes"/>
      <point x="505.0" y="-54.54892"/>
      <point x="457.95108" y="-7.5"/>
      <point x="400.0" y="-7.5" type="curve" smooth="yes"/>
      <point x="342.04892" y="-7.5"/>
      <point x="295.0" y="-54.54892"/>
      <point x="295.0" y="-112.5" type="curve" smooth="yes"/>
      <point x="295.0" y="-170.45108"/>
      <point x="342.04892" y="-217.5"/>
      <point x="400.0" y="-217.5" type="curve" smooth="yes"/>
      <point x="457.95108" y="-217.5"/>
      <point x="505.0" y="-170.45108"/>
    </contour>
  </outline>
</glyph>
<glyph name="A_with_diaeresis" format="2">
  <advance width="550.0"/>
  <unicode hex="00C4"/>
  <outline>
    <contour>
      <point x="255.0" y="933.3333333333334" type="curve" smooth="yes"/>
      <point x="255.0" y="991.2844133333333"/>
      <point x="207.95108" y="1038.3333333333335"/>
      <point x="150.0" y="1038.3333333333335" type="curve" smooth="yes"/>
      <point x="92.04892000000001" y="1038.3333333333335"/>
      <point x="45.0" y="991.2844133333333"/>
      <point x="45.0" y="933.3333333333334" type="curve" smooth="yes"/>
      <point x="45.0" y="875.3822533333333"/>
      <point x="92.04892000000001" y="828.3333333333334"/>
      <point x="150.0" y="828.3333333333334" type="curve" smooth="yes"/>
      <point x="207.95108" y="828.3333333333334"/>
      <point x="255.0" y="875.3822533333333"/>
    </contour>
    <contour>
      <point x="505.0" y="933.3333333333334" type="curve" smooth="yes"/>
      <point x="505.0" y="991.2844133333333"/>
      <point x="457.95108" y="1038.3333333333335"/>
      <point x="400.0" y="1038.3333333333335" type="curve" smooth="yes"/>
      <point x="342.04892" y="1038.3333333333335"/>
      <point x="295.0" y="991.2844133333333"/>
      <point x="295.0" y="933.3333333333334" type="curve" smooth="yes"/>
      <point x="295.0" y="875.3822533333333"/>
      <point x="342.04892" y="828.3333333333334"/>
      <point x="400.0" y="828.3333333333334" type="curve" smooth="yes"/>
      <point x="457.95108" y="828.3333333333334"/>
      <point x="505.0" y="875.3822533333333"/>
    </contour>
    <contour>
      <point x="50" y="0" type="line"/>
      <point x="250" y="0" type="line"/>
      <point x="250" y="805" type="line"/>
      <point x="178.26915540849964" y="805.0"/>
      <point x="50.000000000000014" y="766.6748896552265"/>
      <point x="50.0" y="565.0" type="curve"/>
    </contour>
    <contour>
      <point x="300" y="0" type="line"/>
      <point x="500" y="0" type="line"/>
      <point x="500.0" y="565.0" type="line"/>
      <point x="500.0" y="766.6748896552265"/>
      <point x="371.7308445915004" y="805.0"/>
      <point x="300.0" y="805.0" type="curve"/>
    </contour>
  </outline>
</glyph>
<glyph name="A_with_ring" format="2">
  <advance width="550.0"/>
  <unicode hex="00C5"/>
  <outline>
    <contour>
      <point x="250.0" y="1038.3333333333335" type="line"/>
      <point x="192.04892" y="1038.3333333333335"/>
      <point x="145.0" y="991.2844133333333"/>
      <point x="145.0" y="933.3333333333334" type="curve" smooth="yes"/>
      <point x="145.0" y="875.3822533333333"/>
      <point x="192.04892" y="828.3333333333334"/>
      <point x="250.0" y="828.3333333333334" type="curve"/>
    </contour>
    <contour>
      <point x="300.0" y="828.3333333333334" type="line"/>
      <point x="357.95108" y="828.3333333333334"/>
      <point x="405.0" y="875.3822533333333"/>
      <point x="405.0" y="933.3333333333334" type="curve" smooth="yes"/>
      <point x="405.0" y="991.2844133333333"/>
      <point x="357.95108" y="1038.3333333333335"/>
      <point x="300.0" y="1038.3333333333335" type="curve"/>
    </contour>
    <contour>
      <point x="50" y="0" type="line"/>
      <point x="250" y="0" type="line"/>
      <point x="250" y="805" type="line"/>
      <point x="178.26915540849964" y="805.0"/>
      <point x="50.000000000000014" y="766.6748896552265"/>
      <point x="50.0" y="565.0" type="curve"/>
    </contour>
    <contour>
      <point x="300" y="0" type="line"/>
      <point x="500" y="0" type="line"/>
      <point x="500.0" y="565.0" type="line"/>
      <point x="500.0" y="766.6748896552265"/>
      <point x="371.7308445915004" y="805.0"/>
      <point x="300.0" y="805.0" type="curve"/>
    </contour>
  </outline>
</glyph>
<glyph name="AE" format="2">
  <advance width="1050.0"/>
  <unicode hex="00C6"/>
  <outline>
    <contour>
      <point x="50" y="0" type="line"/>
      <point x="250" y="0" type="line"/>
      <point x="250" y="805" type="line"/>
      <point x="178.26915540849964" y="805.0"/>
      <point x="50.000000000000014" y="766.6748896552265"/>
      <point x="50.0" y="565.0" type="curve"/>
    </contour>
    <contour>
      <point x="300" y="0" type="line"/>
      <point x="500" y="0" type="line"/>
      <point x="500.0" y="565.0" type="line"/>
      <point x="500.0" y="766.6748896552265"/>
      <point x="371.7308445915004" y="805.0"/>
      <point x="300.0" y="805.0" type="curve"/>
    </contour>
    <contour>
      <point x="550" y="0" type="line"/>
      <point x="750" y="0" type="line"/>
      <point x="750" y="800" type="line"/>
      <point x="550" y="800" type="line"/>
    </contour>
    <contour>
      <point x="800.0" y="800.0" type="line"/>
      <point x="800.0" y="689.617"/>
      <point x="889.617" y="600.0"/>
      <point x="1000.0" y="600.0" type="curve"/>
      <point x="1000.0" y="800.0" type="line"/>
    </contour>
    <contour>
      <point x="800.0" y="500.0" type="line"/>
      <point x="800.0" y="389.617"/>
      <point x="889.617" y="300.0"/>
      <point x="1000.0" y="300.0" type="curve"/>
      <point x="1000.0" y="500.0" type="line"/>
    </contour>
    <contour>
      <point x="1000.0" y="200.0" type="line"/>
      <point x="889.617" y="200.0"/>
      <point x="800.0" y="110.383"/>
      <point x="800.0" y="0.0" type="curve"/>
      <point x="1000.0" y="0.0" type="line"/>
    </contour>
  </outline>
</glyph>
<glyph name="C_with_cedilla" format="2">
  <advance width="550.0"/>
  <unicode hex="00C7"/>
  <outline>
    <contour>
      <point x="50.0" y="240.0" type="line"/>
      <point x="50.000000000000014" y="38.32511034477355"/>
      <point x="178.26915540849964" y="8.784494922911714e-15"/>
      <point x="250.0" y="0.0" type="curve"/>
      <point x="250" y="800" type="line"/>
      <point x="178.26915540849964" y="800.0"/>
      <point x="50.000000000000014" y="761.6748896552265"/>
      <point x="50.0" y="560.0" type="curve"/>
    </contour>
    <contour>
      <point x="300.0" y="640.0" type="line"/>
      <point x="300.0" y="438.3251103447735"/>
      <point x="428.2691554084996" y="400.0"/>
      <point x="500.0" y="400.0" type="curve"/>
      <point x="500" y="800" type="line"/>
      <point x="300" y="800" type="line"/>
    </contour>
    <contour>
      <point x="500.0" y="200.0" type="line"/>
      <point x="389.617" y="200.0"/>
      <point x="300.0" y="110.383"/>
      <point x="300.0" y="0.0" type="curve"/>
      <point x="500.0" y="0.0" type="line"/>
    </contour>
    <contour>
      <point x="462.5" y="-225.0" type="line"/>
      <point x="462.5" y="-114.617"/>
      <point x="372.88300000000004" y="-25.0"/>
      <point x="262.5" y="-25.0" type="curve"/>
      <point x="262.5" y="-225.0" type="line"/>
    </contour>
  </outline>
</glyph>
<glyph name="I_with_acute" format="2">
  <advance width="300.0"/>
  <unicode hex="00CD"/>
  <outline>
    <contour>
      <point x="137.5" y="833.3333333333334" type="line"/>
      <point x="247.883" y="833.3333333333334"/>
      <point x="337.5" y="922.9503333333333"/>
      <point x="337.5" y="1033.3333333333335" type="curve"/>
      <point x="137.5" y="1033.3333333333335" type="line"/>
    </contour>
    <contour>
      <point x="50" y="0" type="line"/>
      <point x="250" y="0" type="line"/>
      <point x="250" y="800" type="line"/>
      <point x="50" y="800" type="line"/>
    </contour>
  </outline>
</glyph>
<glyph name="I_with_circumflex" format="2">
  <advance width="300.0"/>
  <unicode hex="00CE"/>
  <outline>
    <contour>
      <point x="-56.25" y="833.3333333333334" type="line"/>
      <point x="54.13300000000001" y="833.3333333333334"/>
      <point x="143.75" y="922.9503333333333"/>
      <point x="143.75" y="1033.3333333333335" type="curve"/>
      <point x="-56.25" y="1033.3333333333335" type="line"/>
    </contour>
    <contour>
      <point x="156.25" y="1033.3333333333335" type="line"/>
      <point x="156.25" y="922.9503333333333"/>
      <point x="245.86700000000002" y="833.3333333333334"/>
      <point x="356.25" y="833.3333333333334" type="curve"/>
      <point x="356.25" y="1033.3333333333335" type="line"/>
    </contour>
    <contour>
      <point x="50" y="0" type="line"/>
      <point x="250" y="0" type="line"/>
      <point x="250" y="800" type="line"/>
      <point x="50" y="800" type="line"/>
    </contour>
  </outline>
</glyph>
<glyph name="ETH" format="2">
  <advance width="800.0"/>
  <unicode hex="00D0"/>
  <outline>
    <contour>
      <point x="300" y="0" type="line"/>
      <point x="500" y="0" type="line"/>
      <point x="500" y="800" type="line"/>
      <point x="300" y="800" type="line"/>
      <point x="300" y="485.42669677734375" type="line"/>
      <point x="226.73240707824377" y="455.74552539268757"/>
      <point x="175.0" y="383.86646459099995"/>
      <point x="175.0" y="300.00000000000006" type="curve"/>
      <point x="300" y="300" type="line"/>
    </contour>
    <contour>
      <point x="550" y="0" type="line"/>
      <point x="621.7308445915004" y="0.0"/>
      <point x="750.0" y="38.32511034477355"/>
      <point x="750.0" y="240.0" type="curve"/>
      <point x="750.0" y="560.0" type="line"/>
      <point x="750.0" y="761.6748896552265"/>
      <point x="621.7308445915004" y="800.0"/>
      <point x="550.0" y="800.0" type="curve"/>
    </contour>
  </outline>
</glyph>
<glyph name="O_with_grave" format="2">
  <advance width="550.0"/>
  <unicode hex="00D2"/>
  <outline>
    <contour>
      <point x="87.5" y="1033.3333333333335" type="line"/>
      <point x="87.5" y="922.9503333333333"/>
      <point x="177.117" y="833.3333333333334"/>
      <point x="287.5" y="833.3333333333334" type="curve"/>
      <point x="287.5" y="1033.3333333333335" type="line"/>
    </contour>
    <contour>
      <point x="50.0" y="235.0" type="line"/>
      <point x="50.000000000000014" y="33.32511034477355"/>
      <point x="178.26915540849964" y="-4.999999999999991"/>
      <point x="250.0" y="-5.0" type="curve"/>
      <point x="250" y="805" type="line"/>
      <point x="178.26915540849964" y="805.0"/>
      <point x="50.000000000000014" y="766.6748896552265"/>
      <point x="50.0" y="565.0" type="curve"/>
    </contour>
    <contour>
      <point x="300" y="-5" type="line"/>
      <point x="371.7308445915004" y="-5.0"/>
      <point x="500.0" y="33.32511034477355"/>
      <point x="500.0" y="235.0" type="curve"/>
      <point x="500.0" y="565.0" type="line"/>
      <point x="500.0" y="766.6748896552265"/>
      <point x="371.7308445915004" y="805.0"/>
      <point x="300.0" y="805.0" type="curve"/>
    </contour>
  </outline>
</glyph>
<glyph name="O_with_stroke" format="2">
  <advance width="550.0"/>
  <unicode hex="00D8"/>
  <outline>
    <contour>
      <point x="300" y="-5" type="line"/>
      <point x="371.7308445915004" y="-5.0"/>
      <point x="500.0" y="33.32511034477355"/>
      <point x="500.0" y="235.0" type="curve"/>
      <point x="500.0" y="565.0" type="line"/>
      <point x="500.0" y="621.5448872580822"/>
      <point x="500.00000045059284" y="675.5056402231984"/>
      <point x="455.81959533691406" y="730.3051986694336" type="curve"/>
      <point x="512.35924189839" y="765.6462995375799"/>
      <point x="550.0" y="828.462102296"/>
      <point x="550.0" y="900.0" type="curve"/>
      <point x="350" y="900" type="line"/>
      <point x="350" y="798.6850509643555" type="line"/>
      <point x="334.01684631503707" y="802.8082745808815"/>
      <point x="317.262355838" y="805.0"/>
      <point x="300.00000000000006" y="805.0" type="curve"/>
    </contour>
    <contour>
      <point x="50.0" y="235.0" type="line"/>
      <point x="50.0" y="178.45511274191782"/>
      <point x="49.999999549407235" y="124.49435977680164"/>
      <point x="94.18040466308594" y="69.6948013305664" type="curve"/>
      <point x="37.64075810161004" y="34.35370046242009"/>
      <point x="-1.4210854715202004e-14" y="-28.462102295999998"/>
      <point x="-2.1316282072803006e-14" y="-100.0" type="curve"/>
      <point x="200" y="-100" type="line"/>
      <point x="200" y="1.3149490356445312" type="line"/>
      <point x="215.98315368496293" y="-2.808274580881461"/>
      <point x="232.73764416199998" y="-4.999999999999993"/>
      <point x="250.00000000000003" y="-4.999999999999993" type="curve"/>
      <point x="250" y="805" type="line"/>
      <point x="178.26915540849964" y="805.0"/>
      <point x="50.000000000000014" y="766.6748896552265"/>
      <point x="50.0" y="565.0" type="curve"/>
    </contour>
  </outline>
</glyph>
<glyph name="U_with_acute" format="2">
  <advance width="550.0"/>
  <unicode hex="00DA"/>
  <outline>
    <contour>
      <point x="262.5" y="833.3333333333334" type="line"/>
      <point x="372.88300000000004" y="833.3333333333334"/>
      <point x="462.5" y="922.9503333333333"/>
      <point x="462.5" y="1033.3333333333335" type="curve"/>
      <point x="262.5" y="1033.3333333333335" type="line"/>
    </contour>
    <contour>
      <point x="50.0" y="235.0" type="line"/>
      <point x="50.000000000000014" y="33.32511034477355"/>
      <point x="178.26915540849964" y="-4.999999999999991"/>
      <point x="250.0" y="-5.0" type="curve"/>
      <point x="250" y="800" type="line"/>
      <point x="50" y="800" type="line"/>
    </contour>
    <contour>
      <point x="300" y="-5" type="line"/>
      <point x="371.7308445915004" y="-5.0"/>
      <point x="500.0" y="33.32511034477355"/>
      <point x="500.0" y="235.0" type="curve"/>
      <point x="500" y="800" type="line"/>
      <point x="300" y="800" type="line"/>
    </contour>
  </outline>
</glyph>
<glyph name="THORN" format="2">
  <advance width="550.0"/>
  <unicode hex="00DE"/>
  <outline>
    <contour>
      <point x="50" y="0" type="line"/>
      <point x="250" y="0" type="line"/>
      <point x="250" y="800" type="line"/>
      <point x="50" y="800" type="line"/>
    </contour>
    <contour>
      <point x="300" y="100" type="line"/>
      <point x="371.7308445915004" y="100.0"/>
      <point x="500.0" y="138.32511034477355"/>
      <point x="500.0" y="340.0" type="curve"/>
      <point x="500.0" y="460.0" type="line"/>
      <point x="500.0" y="661.6748896552265"/>
      <point x="371.7308445915004" y="700.0"/>
      <point x="300.0" y="700.0" type="curve"/>
    </contour>
  </outline>
</glyph>
<glyph name="eszett" format="2">
  <advance width="550.0"/>
  <unicode hex="00DF"/>
  <outline>
    <contour>
      <point x="50" y="0" type="line"/>
      <point x="250" y="0" type="line"/>
      <point x="250" y="800" type="line"/>
      <point x="178.26915540849964" y="800.0"/>
      <point x="50.000000000000014" y="761.6748896552265"/>
      <point x="50.0" y="560.0" type="curve"/>
    </contour>
    <contour>
      <point x="300" y="400" type="line"/>
      <point x="410.383" y="400.0"/>
      <point x="500.0" y="489.617"/>
      <point x="500.0" y="600.0" type="curve"/>
      <point x="500.0" y="710.383"/>
      <point x="410.383" y="800.0"/>
      <point x="300.0" y="800.0" type="curve"/>
    </contour>
    <contour>
      <point x="300" y="0" type="line"/>
      <point x="410.383" y="0.0"/>
      <point x="500.0" y="89.617"/>
      <point x="500.0" y="200.0" type="curve"/>
      <point x="500.0" y="310.383"/>
      <point x="410.383" y="400.0"/>
      <point x="300.0" y="400.0" type="curve"/>
    </contour>
  </outline>
</glyph>
<glyph name="ae" format="2">
  <advance width="1050.0"/>
  <unicode hex="00E6"/>
  <outline>
    <contour>
      <point x="258.125" y="500.0" type="curve" smooth="yes"/>
      <point x="258.125" y="557.95108"/>
      <point x="211.07608" y="605.0"/>
      <point x="153.125" y="605.0" type="curve" smooth="yes"/>
      <point x="95.17392000000001" y="605.0"/>
      <point x="48.125" y="557.95108"/>
      <point x="48.125" y="500.0" type="curve" smooth="yes"/>
      <point x="48.125" y="442.04892"/>
      <point x="95.17392000000001" y="395.0"/>
      <point x="153.125" y="395.0" type="curve" smooth="yes"/>
      <point x="211.07608" y="395.0"/>
      <point x="258.125" y="442.04892"/>
    </contour>
    <contour>
      <point x="300" y="-5" type="line"/>
      <point x="371.7308445915004" y="-5.0"/>
      <point x="500.0" y="33.32511034477355"/>
      <point x="500.0" y="235.0" type="curve"/>
      <point x="500.0" y="365.0" type="line"/>
      <point x="500.0" y="566.6748896552265"/>
      <point x="371.7308445915004" y="605.0"/>
      <point x="300.0" y="605.0" type="curve"/>
    </contour>
    <contour>
      <point x="550.0" y="235.0" type="line"/>
      <point x="550.0" y="33.32511034477355"/>
      <point x="678.2691554084996" y="-4.999999999999991"/>
      <point x="750.0" y="-5.0" type="curve"/>
      <point x="750" y="605" type="line"/>
      <point x="678.2691554084996" y="605.0"/>
      <point x="550.0" y="566.6748896552265"/>
      <point x="550.0" y="365.0" type="curve"/>
    </contour>
    <contour>
      <point x="800" y="195" type="line"/>
      <point x="1000" y="195" type="line"/>
      <point x="1000.0" y="365.0" type="line"/>
      <point x="1000.0" y="566.6748896552265"/>
      <point x="871.7308445915004" y="605.0"/>
      <point x="800.0" y="605.0" type="curve"/>
    </contour>
    <contour>
      <point x="250" y="395" type="line"/>
      <point x="139.61700000000002" y="395.0"/>
      <point x="50.0" y="305.383"/>
      <point x="50.0" y="195.0" type="curve"/>
      <point x="50.0" y="84.617"/>
      <point x="139.61700000000002" y="-5.0"/>
      <point x="250.0" y="-5.0" type="curve"/>
    </contour>
  </outline>
</glyph>
<glyph name="e_with_circumflex" format="2">
  <advance width="550.0"/>
  <unicode hex="00EA"/>
  <outline>
    <contour>
      <point x="68.75" y="633.3333333333334" type="line"/>
      <point x="179.133" y="633.3333333333334"/>
      <point x="268.75" y="722.9503333333333"/>
      <point x="268.75" y="833.3333333333334" type="curve"/>
      <point x="68.75" y="833.3333333333334" type="line"/>
    </contour>
    <contour>
      <point x="281.25" y="833.3333333333334" type="line"/>
      <point x="281.25" y="722.9503333333333"/>
      <point x="370.867" y="633.3333333333334"/>
      <point x="481.25" y="633.3333333333334" type="curve"/>
      <point x="481.25" y="833.3333333333334" type="line"/>
    </contour>
    <contour>
      <point x="50.0" y="235.0" type="line"/>
      <point x="50.000000000000014" y="33.32511034477355"/>
      <point x="178.26915540849964" y="-4.999999999999991"/>
      <point x="250.0" y="-5.0" type="curve"/>
      <point x="250" y="605" type="line"/>
      <point x="178.26915540849964" y="605.0"/>
      <point x="50.000000000000014" y="566.6748896552265"/>
      <point x="50.0" y="365.0" type="curve"/>
    </contour>
    <contour>
      <point x="300" y="195" type="line"/>
      <point x="500" y="195" type="line"/>
      <point x="500.0" y="365.0" type="line"/>
      <point x="500.0" y="566.6748896552265"/>
      <point x="371.7308445915004" y="605.0"/>
      <point x="300.0" y="605.0" type="curve"/>
    </contour>
  </outline>
</glyph>
<glyph name="i_with_acute" format="2">
  <advance width="300.0"/>
  <unicode hex="00ED"/>
  <outline>
    <contour>
      <point x="137.5" y="633.3333333333334" type="line"/>
      <point x="247.883" y="633.3333333333334"/>
      <point x="337.5" y="722.9503333333333"/>
      <point x="337.5" y="833.3333333333334" type="curve"/>
      <point x="137.5" y="833.3333333333334" type="line"/>
    </contour>
    <contour>
      <point x="50" y="0" type="line"/>
      <point x="250" y="0" type="line"/>
      <point x="250" y="600" type="line"/>
      <point x="50" y="600" type="line"/>
    </contour>
  </outline>
</glyph>
<glyph name="n_with_smalltilde" format="2">
  <advance width="550.0"/>
  <unicode hex="00F1"/>
  <outline>
    <contour>
      <point x="235.0" y="633.3333353678386" type="line"/>
      <point x="436.6748896552264" y="633.3333379322673"/>
      <point x="475.0" y="761.602488741833"/>
      <point x="475.0" y="833.3333333333334" type="curve"/>
      <point x="315.0" y="833.3333353678386" type="line"/>
      <point x="113.32511034477358" y="833.3333379322673"/>
      <point x="75.0" y="705.0641779248338"/>
      <point x="75.0" y="633.3333333333334" type="curve"/>
    </contour>
    <contour>
      <point x="50" y="0" type="line"/>
      <point x="250" y="0" type="line"/>
      <point x="250" y="600" type="line"/>
      <point x="50" y="600" type="line"/>
    </contour>
    <contour>
      <point x="300" y="0" type="line"/>
      <point x="500" y="0" type="line"/>
      <point x="500.0" y="360.0" type="line"/>
      <point x="500.0" y="561.6748896552265"/>
      <point x="371.7308445915004" y="600.0"/>
      <point x="300.0" y="600.0" type="curve"/>
    </contour>
  </outline>
</glyph>
<glyph name="o_with_diaeresis" format="2">
  <advance width="550.0"/>
  <unicode hex="00F6"/>
  <outline>
    <contour>
      <point x="255.0" y="733.3333333333334" type="curve" smooth="yes"/>
      <point x="255.0" y="791.2844133333333"/>
      <point x="207.95108" y="838.3333333333334"/>
      <point x="150.0" y="838.3333333333334" type="curve" smooth="yes"/>
      <point x="92.04892000000001" y="838.3333333333334"/>
      <point x="45.0" y="791.2844133333333"/>
      <point x="45.0" y="733.3333333333334" type="curve" smooth="yes"/>
      <point x="45.0" y="675.3822533333333"/>
      <point x="92.04892000000001" y="628.3333333333334"/>
      <point x="150.0" y="628.3333333333334" type="curve" smooth="yes"/>
      <point x="207.95108" y="628.3333333333334"/>
      <point x="255.0" y="675.3822533333333"/>
    </contour>
    <contour>
      <point x="505.0" y="733.3333333333334" type="curve" smooth="yes"/>
      <point x="505.0" y="791.2844133333333"/>
      <point x="457.95108" y="838.3333333333334"/>
      <point x="400.0" y="838.3333333333334" type="curve" smooth="yes"/>
      <point x="342.04892" y="838.3333333333334"/>
      <point x="295.0" y="791.2844133333333"/>
      <point x="295.0" y="733.3333333333334" type="curve" smooth="yes"/>
      <point x="295.0" y="675.3822533333333"/>
      <point x="342.04892" y="628.3333333333334"/>
      <point x="400.0" y="628.3333333333334" type="curve" smooth="yes"/>
      <point x="457.95108" y="628.3333333333334"/>
      <point x="505.0" y="675.3822533333333"/>
    </contour>
    <contour>
      <point x="50.0" y="235.0" type="line"/>
      <point x="50.000000000000014" y="33.32511034477355"/>
      <point x="178.26915540849964" y="-4.999999999999991"/>
      <point x="250.0" y="-5.0" type="curve"/>
      <point x="250" y="605" type="line"/>
      <point x="178.26915540849964" y="605.0"/>
      <point x="50.000000000000014" y="566.6748896552265"/>
      <point x="50.0" y="365.0" type="curve"/>
    </contour>
    <contour>
      <point x="300" y="-5" type="line"/>
      <point x="371.7308445915004" y="-5.0"/>
      <point x="500.0" y="33.32511034477355"/>
      <point x="500.0" y="235.0" type="curve"/>
      <point x="500.0" y="365.0" type="line"/>
      <point x="500.0" y="566.6748896552265"/>
      <point x="371.7308445915004" y="605.0"/>
      <point x="300.0" y="605.0" type="curve"/>
    </contour>
  </outline>
</glyph>
<glyph name="divide" format="2">
  <advance width="800.0"/>
  <unicode hex="00F7"/>
  <outline>
    <contour>
      <point x="505.0" y="650.0" type="curve" smooth="yes"/>
      <point x="505.0" y="707.95108"/>
      <point x="457.95108" y="755.0"/>
      <point x="400.0" y="755.0" type="curve" smooth="yes"/>
      <point x="342.04892" y="755.0"/>
      <point x="295.0" y="707.95108"/>
      <point x="295.0" y="650.0" type="curve" smooth="yes"/>
      <point x="295.0" y="592.04892"/>
      <point x="342.04892" y="545.0"/>
      <point x="400.0" y="545.0" type="curve" smooth="yes"/>
      <point x="457.95108" y="545.0"/>
      <point x="505.0" y="592.04892"/>
    </contour>
    <contour>
      <point x="100" y="300" type="line"/>
      <point x="700" y="300" type="line"/>
      <point x="700" y="500" type="line"/>
      <point x="100" y="500" type="line"/>
    </contour>
    <contour>
      <point x="505.0" y="150.0" type="curve" smooth="yes"/>
      <point x="505.0" y="207.95108"/>
      <point x="457.95108" y="255.0"/>
      <point x="400.0" y="255.0" type="curve" smooth="yes"/>
      <point x="342.04892" y="255.0"/>
      <point x="295.0" y="207.95108"/>
      <point x="295.0" y="150.0" type="curve" smooth="yes"/>
      <point x="295.0" y="92.04892"/>
      <point x="342.04892" y="45.0"/>
      <point x="400.0" y="45.0" type="curve" smooth="yes"/>
      <point x="457.95108" y="45.0"/>
      <point x="505.0" y="92.04892"/>
    </contour>
  </outline>
</glyph>
<glyph name="o_with_stroke" format="2">
  <advance width="550.0"/>
  <unicode hex="00F8"/>
  <outline>
    <contour>
      <point x="300" y="-5" type="line"/>
      <point x="371.7308445915004" y="-5.0"/>
      <point x="500.0" y="33.32511034477355"/>
      <point x="500.0" y="235.0" type="curve"/>
      <point x="500.0" y="365.0" type="line"/>
      <point x="500.0" y="421.54488725808216"/>
      <point x="500.0000004505928" y="475.5056402231984"/>
      <point x="455.81959533691406" y="530.3051986694336" type="curve"/>
      <point x="512.35924189839" y="565.6462995375799"/>
      <point x="550.0" y="628.462102296"/>
      <point x="550.0" y="700.0" type="curve"/>
      <point x="350" y="700" type="line"/>
      <point x="350" y="598.6850509643555" type="line"/>
      <point x="334.01684631503707" y="602.8082745808815"/>
      <point x="317.262355838" y="605.0"/>
      <point x="300.00000000000006" y="605.0" type="curve"/>
    </contour>
    <contour>
      <point x="50.0" y="235.0" type="line"/>
      <point x="50.0" y="178.45511274191782"/>
      <point x="49.999999549407235" y="124.49435977680164"/>
      <point x="94.18040466308594" y="69.6948013305664" type="curve"/>
      <point x="37.64075810161004" y="34.35370046242009"/>
      <point x="-1.4210854715202004e-14" y="-28.462102295999998"/>
      <point x="-2.1316282072803006e-14" y="-100.0" type="curve"/>
      <point x="200" y="-100" type="line"/>
      <point x="200" y="1.3149490356445312" type="line"/>
      <point x="215.98315368496293" y="-2.808274580881461"/>
      <point x="232.73764416199998" y="-4.999999999999993"/>
      <point x="250.00000000000003" y="-4.999999999999993" type="curve"/>
      <point x="250" y="605" type="line"/>
      <point x="178.26915540849964" y="605.0"/>
      <point x="50.000000000000014" y="566.6748896552265"/>
      <point x="50.0" y="365.0" type="curve"/>
    </contour>
  </outline>
</glyph>
<glyph name="A_with_macron" format="2">
  <advance width="550.0"/>
  <unicode hex="0100"/>
  <outline>
    <contour>
      <point x="75" y="833.3333358764648" type="line"/>
      <point x="475" y="833.3333358764648" type="line"/>
      <point x="475" y="1033.3333358764648" type="line"/>
      <point x="75" y="1033.3333358764648" type="line"/>
    </contour>
    <contour>
      <point x="50" y="0" type="line"/>
      <point x="250" y="0" type="line"/>
      <point x="250" y="805" type="line"/>
      <point x="178.26915540849964" y="805.0"/>
      <point x="50.000000000000014" y="766.6748896552265"/>
      <point x="50.0" y="565.0" type="curve"/>
    </contour>
    <contour>
      <point x="300" y="0" type="line"/>
      <point x="500" y="0" type="line"/>
      <point x="500.0" y="565.0" type="line"/>
      <point x="500.0" y="766.6748896552265"/>
      <point x="371.7308445915004" y="805.0"/>
      <point x="300.0" y="805.0" type="curve"/>
    </contour>
  </outline>
</glyph>
<glyph name="A_with_ogonek" format="2">
  <advance width="550.0"/>
  <unicode hex="0104"/>
  <outline>
    <contour>
      <point x="50" y="0" type="line"/>
      <point x="250" y="0" type="line"/>
      <point x="250" y="805" type="line"/>
      <point x="178.26915540849964" y="805.0"/>
      <point x="50.000000000000014" y="766.6748896552265"/>
      <point x="50.0" y="565.0" type="curve"/>
    </contour>
    <contour>
      <point x="300" y="0" type="line"/>
      <point x="500" y="0" type="line"/>
      <point x="500.0" y="565.0" type="line"/>
      <point x="500.0" y="766.6748896552265"/>
      <point x="371.7308445915004" y="805.0"/>
      <point x="300.0" y="805.0" type="curve"/>
    </contour>
    <contour>
      <point x="500.0" y="-25.0" type="line"/>
      <point x="389.617" y="-25.0"/>
      <point x="300.0" y="-114.617"/>
      <point x="300.0" y="-225.0" type="curve"/>
      <point x="500.0" y="-225.0" type="line"/>
    </contour>
  </outline>
</glyph>
<glyph name="a_with_ogonek" format="2">
  <advance width="550.0"/>
  <unicode hex="0105"/>
  <outline>
    <contour>
      <point x="253.125" y="505.0" type="curve" smooth="yes"/>
      <point x="253.125" y="560.1915"/>
      <point x="208.3165" y="605.0"/>
      <point x="153.125" y="605.0" type="curve" smooth="yes"/>
      <point x="97.93350000000001" y="605.0"/>
      <point x="53.125" y="560.1915"/>
      <point x="53.125" y="505.0" type="curve" smooth="yes"/>
      <point x="53.125" y="449.8085"/>
      <point x="97.93350000000001" y="405.0"/>
      <point x="153.125" y="405.0" type="curve" smooth="yes"/>
      <point x="208.3165" y="405.0"/>
      <point x="253.125" y="449.8085"/>
    </contour>
    <contour>
      <point x="300.0" y="235.0" type="line"/>
      <point x="300.0" y="33.32511034477355"/>
      <point x="428.2691554084996" y="-4.999999999999991"/>
      <point x="500.0" y="-5.0" type="curve"/>
      <point x="500.0" y="362.5" type="line"/>
      <point x="500.0" y="564.1748896552265"/>
      <point x="371.7308445915004" y="602.5"/>
      <point x="300.0" y="602.5" type="curve"/>
    </contour>
    <contour>
      <point x="50" y="197.5" type="line"/>
      <point x="50.00000000000001" y="87.11699999999996"/>
      <point x="139.61699999999996" y="-2.4999999999999867"/>
      <point x="250.0" y="-2.5" type="curve"/>
      <point x="250" y="400" type="line"/>
      <point x="139.61699999999996" y="400.0"/>
      <point x="50.00000000000001" y="310.38300000000004"/>
      <point x="50.0" y="200.0" type="curve"/>
    </contour>
    <contour>
      <point x="500.0" y="-30.0" type="line"/>
      <point x="389.617" y="-30.0"/>
      <point x="300.0" y="-119.617"/>
      <point x="300.0" y="-230.0" type="curve"/>
      <point x="500.0" y="-230.0" type="line"/>
    </contour>
  </outline>
</glyph>
<glyph name="c_with_acute" format="2">
  <advance width="550.0"/>
  <unicode hex="0107"/>
  <outline>
    <contour>
      <point x="265.0" y="633.3333333333334" type="line"/>
      <point x="375.38300000000004" y="633.3333333333334"/>
      <point x="465.0" y="722.9503333333333"/>
      <point x="465.0" y="833.3333333333334" type="curve"/>
      <point x="265.0" y="833.3333333333334" type="line"/>
    </contour>
    <contour>
      <point x="50.0" y="240.0" type="line"/>
      <point x="50.000000000000014" y="38.32511034477355"/>
      <point x="178.26915540849964" y="8.784494922911714e-15"/>
      <point x="250.0" y="0.0" type="curve"/>
      <point x="250" y="605" type="line"/>
      <point x="178.26915540849964" y="605.0"/>
      <point x="50.000000000000014" y="566.6748896552265"/>
      <point x="50.0" y="365.0" type="curve"/>
    </contour>
    <contour>
      <point x="505.0" y="500.0" type="curve" smooth="yes"/>
      <point x="505.0" y="557.95108"/>
      <point x="457.95108" y="605.0"/>
      <point x="400.0" y="605.0" type="curve" smooth="yes"/>
      <point x="342.04892" y="605.0"/>
      <point x="295.0" y="557.95108"/>
      <point x="295.0" y="500.0" type="curve" smooth="yes"/>
      <point x="295.0" y="442.04892"/>
      <point x="342.04892" y="395.0"/>
      <point x="400.0" y="395.0" type="curve" smooth="yes"/>
      <point x="457.95108" y="395.0"/>
      <point x="505.0" y="442.04892"/>
    </contour>
    <contour>
      <point x="496.875" y="200.0" type="line"/>
      <point x="386.492" y="200.0"/>
      <point x="296.875" y="110.383"/>
      <point x="296.875" y="0.0" type="curve"/>
      <point x="496.875" y="0.0" type="line"/>
    </contour>
  </outline>
</glyph>
<glyph name="c_with_circumflex" format="2">
  <advance width="550.0"/>
  <unicode hex="0109"/>
  <outline>
    <contour>
      <point x="71.25" y="633.3333333333334" type="line"/>
      <point x="181.633" y="633.3333333333334"/>
      <point x="271.25" y="722.9503333333333"/>
      <point x="271.25" y="833.3333333333334" type="curve"/>
      <point x="71.25" y="833.3333333333334" type="line"/>
    </contour>
    <contour>
      <point x="283.75" y="833.3333333333334" type="line"/>
      <point x="283.75" y="722.9503333333333"/>
      <point x="373.367" y="633.3333333333334"/>
      <point x="483.75" y="633.3333333333334" type="curve"/>
      <point x="483.75" y="833.3333333333334" type="line"/>
    </contour>
    <contour>
      <point x="50.0" y="240.0" type="line"/>
      <point x="50.000000000000014" y="38.32511034477355"/>
      <point x="178.26915540849964" y="8.784494922911714e-15"/>
      <point x="250.0" y="0.0" type="curve"/>
      <point x="250" y="605" type="line"/>
      <point x="178.26915540849964" y="605.0"/>
      <point x="50.000000000000014" y="566.6748896552265"/>
      <point x="50.0" y="365.0" type="curve"/>
    </contour>
    <contour>
      <point x="505.0" y="500.0" type="curve" smooth="yes"/>
      <point x="505.0" y="557.95108"/>
      <point x="457.95108" y="605.0"/>
      <point x="400.0" y="605.0" type="curve" smooth="yes"/>
      <point x="342.04892" y="605.0"/>
      <point x="295.0" y="557.95108"/>
      <point x="295.0" y="500.0" type="curve" smooth="yes"/>
      <point x="295.0" y="442.04892"/>
      <point x="342.04892" y="395.0"/>
      <point x="400.0" y="395.0" type="curve" smooth="yes"/>
      <point x="457.95108" y="395.0"/>
      <point x="505.0" y="442.04892"/>
    </contour>
    <contour>
      <point x="496.875" y="200.0" type="line"/>
      <point x="386.492" y="200.0"/>
      <point x="296.875" y="110.383"/>
      <point x="296.875" y="0.0" type="curve"/>
      <point x="496.875" y="0.0" type="line"/>
    </contour>
  </outline>
</glyph>
<glyph name="e_with_macron" format="2">
  <advance width="550.0"/>
  <unicode hex="0113"/>
  <outline>
    <contour>
      <point x="75" y="633.3333358764648" type="line"/>
      <point x="475" y="633.3333358764648" type="line"/>
      <point x="475" y="833.3333358764648" type="line"/>
      <point x="75" y="833.3333358764648" type="line"/>
    </contour>
    <contour>
      <point x="50.0" y="235.0" type="line"/>
      <point x="50.000000000000014" y="33.32511034477355"/>
      <point x="178.26915540849964" y="-4.999999999999991"/>
      <point x="250.0" y="-5.0" type="curve"/>
      <point x="250" y="605" type="line"/>
      <point x="178.26915540849964" y="605.0"/>
      <point x="50.000000000000014" y="566.6748896552265"/>
      <point x="50.0" y="365.0" type="curve"/>
    </contour>
    <contour>
      <point x="300" y="195" type="line"/>
      <point x="500" y="195" type="line"/>
      <point x="500.0" y="365.0" type="line"/>
      <point x="500.0" y="566.6748896552265"/>
      <point x="371.7308445915004" y="605.0"/>
      <point x="300.0" y="605.0" type="curve"/>
    </contour>
  </outline>
</glyph>
<glyph name="e_with_ogonek" format="2">
  <advance width="550.0"/>
  <unicode hex="0119"/>
  <outline>
    <contour>
      <point x="50.0" y="235.0" type="line"/>
      <point x="50.000000000000014" y="33.32511034477355"/>
      <point x="178.26915540849964" y="-4.999999999999991"/>
      <point x="250.0" y="-5.0" type="curve"/>
      <point x="250" y="605" type="line"/>
      <point x="178.26915540849964" y="605.0"/>
      <point x="50.000000000000014" y="566.6748896552265"/>
      <point x="50.0" y="365.0" type="curve"/>
    </contour>
    <contour>
      <point x="300" y="195" type="line"/>
      <point x="500" y="195" type="line"/>
      <point x="500.0" y="365.0" type="line"/>
      <point x="500.0" y="566.6748896552265"/>
      <point x="371.7308445915004" y="605.0"/>
      <point x="300.0" y="605.0" type="curve"/>
    </contour>
    <contour>
      <point x="275.0" y="-30.0" type="line"/>
      <point x="164.617" y="-30.0"/>
      <point x="75.0" y="-119.617"/>
      <point x="75.0" y="-230.0" type="curve"/>
      <point x="275.0" y="-230.0" type="line"/>
    </contour>
  </outline>
</glyph>
<glyph name="g_with_circumflex" format="2">
  <advance width="550.0"/>
  <unicode hex="011D"/>
  <outline>
    <contour>
      <point x="68.75" y="633.3333333333334" type="line"/>
      <point x="179.133" y="633.3333333333334"/>
      <point x="268.75" y="722.9503333333333"/>
      <point x="268.75" y="833.3333333333334" type="curve"/>
      <point x="68.75" y="833.3333333333334" type="line"/>
    </contour>
    <contour>
      <point x="281.25" y="833.3333333333334" type="line"/>
      <point x="281.25" y="722.9503333333333"/>
      <point x="370.867" y="633.3333333333334"/>
      <point x="481.25" y="633.3333333333334" type="curve"/>
      <point x="481.25" y="833.3333333333334" type="line"/>
    </contour>
    <contour>
      <point x="50.0" y="240.0" type="line"/>
      <point x="50.000000000000014" y="38.32511034477355"/>
      <point x="178.26915540849964" y="8.784494922911714e-15"/>
      <point x="250.0" y="0.0" type="curve"/>
      <point x="250" y="600" type="line"/>
      <point x="178.26915540849964" y="600.0"/>
      <point x="50.000000000000014" y="561.6748896552265"/>
      <point x="50.0" y="360.0" type="curve"/>
    </contour>
    <contour>
      <point x="300" y="-210" type="line"/>
      <point x="371.7308445915004" y="-210.0"/>
      <point x="500.0" y="-171.67488965522645"/>
      <point x="500.0" y="30.0" type="curve"/>
      <point x="500" y="600" type="line"/>
      <point x="300" y="600" type="line"/>
    </contour>
    <contour>
      <point x="256.25" y="-110.0" type="curve" smooth="yes"/>
      <point x="256.25" y="-54.8085"/>
      <point x="211.4415" y="-10.0"/>
      <point x="156.25" y="-10.0" type="curve" smooth="yes"/>
      <point x="101.05850000000001" y="-10.0"/>
      <point x="56.25" y="-54.8085"/>
      <point x="56.25" y="-110.0" type="curve" smooth="yes"/>
      <point x="56.25" y="-165.1915"/>
      <point x="101.05850000000001" y="-210.0"/>
      <point x="156.25" y="-210.0" type="curve" smooth="yes"/>
      <point x="211.4415" y="-210.0"/>
      <point x="256.25" y="-165.1915"/>
    </contour>
  </outline>
</glyph>
<glyph name="G_with_breve" format="2">
  <advance width="550.0"/>
  <unicode hex="011E"/>
  <outline>
    <contour>
      <point x="75" y="1033.3333358764648" type="line"/>
      <point x="75.0" y="922.9503333333333"/>
      <point x="164.61700000000002" y="833.3333333333334"/>
      <point x="275.0" y="833.3333333333334" type="curve"/>
      <point x="385.383" y="833.3333333333334"/>
      <point x="475.0" y="922.9503333333333"/>
      <point x="475.0" y="1033.3333333333335" type="curve"/>
    </contour>
    <contour>
      <point x="50.0" y="240.0" type="line"/>
      <point x="50.000000000000014" y="38.32511034477355"/>
      <point x="178.26915540849964" y="8.784494922911714e-15"/>
      <point x="250.0" y="0.0" type="curve"/>
      <point x="250" y="800" type="line"/>
      <point x="178.26915540849964" y="800.0"/>
      <point x="50.000000000000014" y="761.6748896552265"/>
      <point x="50.0" y="560.0" type="curve"/>
    </contour>
    <contour>
      <point x="300.0" y="800.0" type="line"/>
      <point x="300.0" y="689.617"/>
      <point x="389.617" y="600.0"/>
      <point x="500.0" y="600.0" type="curve"/>
      <point x="500.0" y="800.0" type="line"/>
    </contour>
    <contour>
      <point x="300.0" y="240.0" type="line"/>
      <point x="300.0" y="38.32511034477355"/>
      <point x="428.2691554084996" y="8.784494922911714e-15"/>
      <point x="500.0" y="0.0" type="curve"/>
      <point x="500" y="400" type="line"/>
      <point x="300" y="400" type="line"/>
    </contour>
  </outline>
</glyph>
<glyph name="g_with_dotabove" format="2">
  <advance width="550.0"/>
  <unicode hex="0121"/>
  <outline>
    <contour>
      <point x="380.0" y="733.3333333333334" type="curve" smooth="yes"/>
      <point x="380.0" y="791.2844133333333"/>
      <point x="332.95108" y="838.3333333333334"/>
      <point x="275.0" y="838.3333333333334" type="curve" smooth="yes"/>
      <point x="217.04892" y="838.3333333333334"/>
      <point x="170.0" y="791.2844133333333"/>
      <point x="170.0" y="733.3333333333334" type="curve" smooth="yes"/>
      <point x="170.0" y="675.3822533333333"/>
      <point x="217.04892" y="628.3333333333334"/>
      <point x="275.0" y="628.3333333333334" type="curve" smooth="yes"/>
      <point x="332.95108" y="628.3333333333334"/>
      <point x="380.0" y="675.3822533333333"/>
    </contour>
    <contour>
      <point x="50.0" y="240.0" type="line"/>
      <point x="50.000000000000014" y="38.32511034477355"/>
      <point x="178.26915540849964" y="8.784494922911714e-15"/>
      <point x="250.0" y="0.0" type="curve"/>
      <point x="250" y="600" type="line"/>
      <point x="178.26915540849964" y="600.0"/>
      <point x="50.000000000000014" y="561.6748896552265"/>
      <point x="50.0" y="360.0" type="curve"/>
    </contour>
    <contour>
      <point x="300" y="-210" type="line"/>
      <point x="371.7308445915004" y="-210.0"/>
      <point x="500.0" y="-171.67488965522645"/>
      <point x="500.0" y="30.0" type="curve"/>
      <point x="500" y="600" type="line"/>
      <point x="300" y="600" type="line"/>
    </contour>
    <contour>
      <point x="256.25" y="-110.0" type="curve" smooth="yes"/>
      <point x="256.25" y="-54.8085"/>
      <point x="211.4415" y="-10.0"/>
      <point x="156.25" y="-10.0" type="curve" smooth="yes"/>
      <point x="101.05850000000001" y="-10.0"/>
      <point x="56.25" y="-54.8085"/>
      <point x="56.25" y="-110.0" type="curve" smooth="yes"/>
      <point x="56.25" y="-165.1915"/>
      <point x="101.05850000000001" y="-210.0"/>
      <point x="156.25" y="-210.0" type="curve" smooth="yes"/>
      <point x="211.4415" y="-210.0"/>
      <point x="256.25" y="-165.1915"/>
    </contour>
  </outline>
</glyph>
<glyph name="I_with_smalltilde" format="2">
  <advance width="300.0"/>
  <unicode hex="0128"/>
  <outline>
    <contour>
      <point x="110.0" y="833.3333353678386" type="line"/>
      <point x="311.6748896552264" y="833.3333379322673"/>
      <point x="350.0" y="961.6024887418331"/>
      <point x="350.0" y="1033.3333333333335" type="curve"/>
      <point x="190.0" y="1033.3333353678386" type="line"/>
      <point x="-11.674889655226423" y="1033.3333379322673"/>
      <point x="-49.99999999999999" y="905.0641779248338"/>
      <point x="-50.0" y="833.3333333333334" type="curve"/>
    </contour>
    <contour>
      <point x="50" y="0" type="line"/>
      <point x="250" y="0" type="line"/>
      <point x="250" y="800" type="line"/>
      <point x="50" y="800" type="line"/>
    </contour>
  </outline>
</glyph>
<glyph name="i_with_smalltilde" format="2">
  <advance width="300.0"/>
  <unicode hex="0129"/>
  <outline>
    <contour>
      <point x="110.0" y="633.3333353678386" type="line"/>
      <point x="311.6748896552264" y="633.3333379322673"/>
      <point x="350.0" y="761.602488741833"/>
      <point x="350.0" y="833.3333333333334" type="curve"/>
      <point x="190.0" y="833.3333353678386" type="line"/>
      <point x="-11.674889655226423" y="833.3333379322673"/>
      <point x="-49.99999999999999" y="705.0641779248338"/>
      <point x="-50.0" y="633.3333333333334" type="curve"/>
    </contour>
    <contour>
      <point x="50" y="0" type="line"/>
      <point x="250" y="0" type="line"/>
      <point x="250" y="600" type="line"/>
      <point x="50" y="600" type="line"/>
    </contour>
  </outline>
</glyph>
<glyph name="I_with_breve" format="2">
  <advance width="300.0"/>
  <unicode hex="012C"/>
  <outline>
    <contour>
      <point x="-50" y="1033.3333358764648" type="line"/>
      <point x="-50.0" y="922.9503333333333"/>
      <point x="39.617000000000004" y="833.3333333333334"/>
      <point x="150.0" y="833.3333333333334" type="curve"/>
      <point x="260.383" y="833.3333333333334"/>
      <point x="350.0" y="922.9503333333333"/>
      <point x="350.0" y="1033.3333333333335" type="curve"/>
    </contour>
    <contour>
      <point x="50" y="0" type="line"/>
      <point x="250" y="0" type="line"/>
      <point x="250" y="800" type="line"/>
      <point x="50" y="800" type="line"/>
    </contour>
  </outline>
</glyph>
<glyph name="i_with_ogonek" format="2">
  <advance width="300.0"/>
  <unicode hex="012F"/>
  <outline>
    <contour>
      <point x="255.0" y="733.33333" type="curve" smooth="yes"/>
      <point x="255.0" y="791.28441"/>
      <point x="207.95108" y="838.33333"/>
      <point x="150.0" y="838.33333" type="curve" smooth="yes"/>
      <point x="92.04892000000001" y="838.33333"/>
      <point x="45.0" y="791.28441"/>
      <point x="45.0" y="733.33333" type="curve" smooth="yes"/>
      <point x="45.0" y="675.38225"/>
      <point x="92.04892000000001" y="628.33333"/>
      <point x="150.0" y="628.33333" type="curve" smooth="yes"/>
      <point x="207.95108" y="628.33333"/>
      <point x="255.0" y="675.38225"/>
    </contour>
    <contour>
      <point x="50" y="0" type="line"/>
      <point x="250" y="0" type="line"/>
      <point x="250" y="600" type="line"/>
      <point x="50" y="600" type="line"/>
    </contour>
    <contour>
      <point x="255.0" y="-25.0" type="line"/>
      <point x="144.617" y="-25.0"/>
      <point x="55.0" y="-114.617"/>
      <point x="55.0" y="-225.0" type="curve"/>
      <point x="255.0" y="-225.0" type="line"/>
    </contour>
  </outline>
</glyph>
<glyph name="J_with_circumflex" format="2">
  <advance width="550.0"/>
  <unicode hex="0134"/>
  <outline>
    <contour>
      <point x="188.75" y="833.3333333333334" type="line"/>
      <point x="299.13300000000004" y="833.3333333333334"/>
      <point x="388.75" y="922.9503333333333"/>
      <point x="388.75" y="1033.3333333333335" type="curve"/>
      <point x="188.75" y="1033.3333333333335" type="line"/>
    </contour>
    <contour>
      <point x="401.25" y="1033.3333333333335" type="line"/>
      <point x="401.25" y="922.9503333333333"/>
      <point x="490.867" y="833.3333333333334"/>
      <point x="601.25" y="833.3333333333334" type="curve"/>
      <point x="601.25" y="1033.3333333333335" type="line"/>
    </contour>
    <contour>
      <point x="300" y="-5" type="line"/>
      <point x="371.7308445915004" y="-5.0"/>
      <point x="500.0" y="33.32511034477355"/>
      <point x="500.0" y="235.0" type="curve"/>
      <point x="500" y="800" type="line"/>
      <point x="300" y="800" type="line"/>
    </contour>
    <contour>
      <point x="255.0" y="95.0" type="curve" smooth="yes"/>
      <point x="255.0" y="152.95108"/>
      <point x="207.95108" y="200.0"/>
      <point x="150.0" y="200.0" type="curve" smooth="yes"/>
      <point x="92.04892000000001" y="200.0"/>
      <point x="45.0" y="152.95108"/>
      <point x="45.0" y="95.0" type="curve" smooth="yes"/>
      <point x="45.0" y="37.04892"/>
      <point x="92.04892000000001" y="-10.0"/>
      <point x="150.0" y="-10.0" type="curve" smooth="yes"/>
      <point x="207.95108" y="-10.0"/>
      <point x="255.0" y="37.04892"/>
    </contour>
  </outline>
</glyph>
<glyph name="j_with_circumflex" format="2">
  <advance width="550.0"/>
  <unicode hex="0135"/>
  <outline>
    <contour>
      <point x="194.375" y="633.3333333333334" type="line"/>
      <point x="304.75800000000004" y="633.3333333333334"/>
      <point x="394.375" y="722.9503333333333"/>
      <point x="394.375" y="833.3333333333334" type="curve"/>
      <point x="194.375" y="833.3333333333334" type="line"/>
    </contour>
    <contour>
      <point x="406.875" y="833.3333333333334" type="line"/>
      <point x="406.875" y="722.9503333333333"/>
      <point x="496.492" y="633.3333333333334"/>
      <point x="606.875" y="633.3333333333334" type="curve"/>
      <point x="606.875" y="833.3333333333334" type="line"/>
    </contour>
    <contour>
      <point x="300" y="-210" type="line"/>
      <point x="371.7308445915004" y="-210.0"/>
      <point x="500.0" y="-171.67488965522645"/>
      <point x="500.0" y="30.0" type="curve"/>
      <point x="500" y="600" type="line"/>
      <point x="300" y="600" type="line"/>
    </contour>
    <contour>
      <point x="256.25" y="-110.0" type="curve" smooth="yes"/>
      <point x="256.25" y="-54.8085"/>
      <point x="211.4415" y="-10.0"/>
      <point x="156.25" y="-10.0" type="curve" smooth="yes"/>
      <point x="101.05850000000001" y="-10.0"/>
      <point x="56.25" y="-54.8085"/>
      <point x="56.25" y="-110.0" type="curve" smooth="yes"/>
      <point x="56.25" y="-165.1915"/>
      <point x="101.05850000000001" y="-210.0"/>
      <point x="156.25" y="-210.0" type="curve" smooth="yes"/>
      <point x="211.4415" y="-210.0"/>
      <point x="256.25" y="-165.1915"/>
    </contour>
  </outline>
</glyph>
<glyph name="K_with_cedilla" format="2">
  <advance width="550.0"/>
  <unicode hex="0136"/>
  <outline>
    <contour>
      <point x="50" y="0" type="line"/>
      <point x="250" y="0" type="line"/>
      <point x="250" y="800" type="line"/>
      <point x="50" y="800" type="line"/>
    </contour>
    <contour>
      <point x="300" y="400" type="line"/>
      <point x="371.7308445915004" y="400.0"/>
      <point x="500.0" y="438.3251103447735"/>
      <point x="500.0" y="640.0" type="curve"/>
      <point x="500" y="800" type="line"/>
      <point x="300" y="800" type="line"/>
    </contour>
    <contour>
      <point x="300" y="0" type="line"/>
      <point x="500" y="0" type="line"/>
      <point x="500.0" y="160.0" type="line"/>
      <point x="500.0" y="361.6748896552265"/>
      <point x="371.7308445915004" y="400.0"/>
      <point x="300.0" y="400.0" type="curve"/>
    </contour>
    <contour>
      <point x="462.5" y="-225.0" type="line"/>
      <point x="462.5" y="-114.617"/>
      <point x="372.88300000000004" y="-25.0"/>
      <point x="262.5" y="-25.0" type="curve"/>
      <point x="262.5" y="-225.0" type="line"/>
    </contour>
  </outline>
</glyph>
<glyph name="k_with_cedilla" format="2">
  <advance width="550.0"/>
  <unicode hex="0137"/>
  <outline>
    <contour>
      <point x="50" y="0" type="line"/>
      <point x="250" y="0" type="line"/>
      <point x="250" y="800" type="line"/>
      <point x="50" y="800" type="line"/>
    </contour>
    <contour>
      <point x="300" y="300" type="line"/>
      <point x="371.7308445915004" y="300.0"/>
      <point x="500.0" y="338.3251103447735"/>
      <point x="500.0" y="540.0" type="curve"/>
      <point x="500" y="600" type="line"/>
      <point x="300" y="600" type="line"/>
    </contour>
    <contour>
      <point x="300" y="0" type="line"/>
      <point x="500" y="0" type="line"/>
      <point x="500.0" y="60.0" type="line"/>
      <point x="500.0" y="261.6748896552265"/>
      <point x="371.7308445915004" y="300.0"/>
      <point x="300.0" y="300.0" type="curve"/>
    </contour>
    <contour>
      <point x="462.5" y="-225.0" type="line"/>
      <point x="462.5" y="-114.617"/>
      <point x="372.88300000000004" y="-25.0"/>
      <point x="262.5" y="-25.0" type="curve"/>
      <point x="262.5" y="-225.0" type="line"/>
    </contour>
  </outline>
</glyph>
<glyph name="kra" format="2">
  <advance width="550.0"/>
  <unicode hex="0138"/>
  <outline>
    <contour>
      <point x="50" y="0" type="line"/>
      <point x="250" y="0" type="line"/>
      <point x="250" y="600" type="line"/>
      <point x="50" y="600" type="line"/>
    </contour>
    <contour>
      <point x="300" y="300" type="line"/>
      <point x="371.7308445915004" y="300.0"/>
      <point x="500.0" y="338.3251103447735"/>
      <point x="500.0" y="540.0" type="curve"/>
      <point x="500" y="600" type="line"/>
      <point x="300" y="600" type="line"/>
    </contour>
    <contour>
      <point x="300" y="0" type="line"/>
      <point x="500" y="0" type="line"/>
      <point x="500.0" y="60.0" type="line"/>
      <point x="500.0" y="261.6748896552265"/>
      <point x="371.7308445915004" y="300.0"/>
      <point x="300.0" y="300.0" type="curve"/>
    </contour>
  </outline>
</glyph>
<glyph name="L_with_acute" format="2">
  <advance width="550.0"/>
  <unicode hex="0139"/>
  <outline>
    <contour>
      <point x="262.5" y="833.3333333333334" type="line"/>
      <point x="372.88300000000004" y="833.3333333333334"/>
      <point x="462.5" y="922.9503333333333"/>
      <point x="462.5" y="1033.3333333333335" type="curve"/>
      <point x="262.5" y="1033.3333333333335" type="line"/>
    </contour>
    <contour>
      <point x="50" y="0" type="line"/>
      <point x="250" y="0" type="line"/>
      <point x="250" y="800" type="line"/>
      <point x="50" y="800" type="line"/>
    </contour>
    <contour>
      <point x="500.0" y="200.0" type="line"/>
      <point x="389.617" y="200.0"/>
      <point x="300.0" y="110.383"/>
      <point x="300.0" y="0.0" type="curve"/>
      <point x="500.0" y="0.0" type="line"/>
    </contour>
  </outline>
</glyph>
<glyph name="l_with_acute" format="2">
  <advance width="300.0"/>
  <unicode hex="013A"/>
  <outline>
    <contour>
      <point x="137.5" y="833.3333333333334" type="line"/>
      <point x="247.883" y="833.3333333333334"/>
      <point x="337.5" y="922.9503333333333"/>
      <point x="337.5" y="1033.3333333333335" type="curve"/>
      <point x="137.5" y="1033.3333333333335" type="line"/>
    </contour>
    <contour>
      <point x="50.0" y="235.0" type="line"/>
      <point x="50.000000000000014" y="33.32511034477355"/>
      <point x="178.26915540849964" y="-4.999999999999991"/>
      <point x="250.0" y="-5.0" type="curve"/>
      <point x="250" y="800" type="line"/>
      <point x="50" y="800" type="line"/>
    </contour>
  </outline>
</glyph>
<glyph name="l_with_cedilla" format="2">
  <advance width="300.0"/>
  <unicode hex="013C"/>
  <outline>
    <contour>
      <point x="50.0" y="235.0" type="line"/>
      <point x="50.000000000000014" y="33.32511034477355"/>
      <point x="178.26915540849964" y="-4.999999999999991"/>
      <point x="250.0" y="-5.0" type="curve"/>
      <point x="250" y="800" type="line"/>
      <point x="50" y="800" type="line"/>
    </contour>
    <contour>
      <point x="337.5" y="-230.0" type="line"/>
      <point x="337.5" y="-119.617"/>
      <point x="247.883" y="-30.0"/>
      <point x="137.5" y="-30.0" type="curve"/>
      <point x="137.5" y="-230.0" type="line"/>
    </contour>
  </outline>
</glyph>
<glyph name="L_with_stroke" format="2">
  <advance width="575.0"/>
  <unicode hex="0141"/>
  <outline>
    <contour>
      <point x="75" y="0" type="line"/>
      <point x="275" y="0" type="line"/>
      <point x="275" y="414.57330322265625" type="line"/>
      <point x="348.2675929217562" y="444.25447460731243"/>
      <point x="400.0" y="516.133535409"/>
      <point x="400.0" y="600.0" type="curve"/>
      <point x="275" y="600" type="line"/>
      <point x="275" y="800" type="line"/>
      <point x="75" y="800" type="line"/>
      <point x="75" y="485.42669677734375" type="line"/>
      <point x="1.7324070782437815" y="455.74552539268757"/>
      <point x="-50.00000000000002" y="383.86646459099995"/>
      <point x="-50.00000000000003" y="300.00000000000006" type="curve"/>
      <point x="75" y="300" type="line"/>
    </contour>
    <contour>
      <point x="525.0" y="200.0" type="line"/>
      <point x="414.617" y="200.0"/>
      <point x="325.0" y="110.383"/>
      <point x="325.0" y="0.0" type="curve"/>
      <point x="525.0" y="0.0" type="line"/>
    </contour>
  </outline>
</glyph>
<glyph name="l_with_stroke" format="2">
  <advance width="350.0"/>
  <unicode hex="0142"/>
  <outline>
    <contour>
      <point x="75.0" y="235.0" type="line"/>
      <point x="75.00000000000001" y="33.32511034477355"/>
      <point x="203.26915540849964" y="-4.999999999999991"/>
      <point x="275.0" y="-5.0" type="curve"/>
      <point x="275" y="414.57330322265625" type="line"/>
      <point x="348.2675929217562" y="444.25447460731243"/>
      <point x="400.0" y="516.133535409"/>
      <point x="400.0" y="600.0" type="curve"/>
      <point x="275" y="600" type="line"/>
      <point x="275" y="800" type="line"/>
      <point x="75" y="800" type="line"/>
      <point x="75" y="485.42669677734375" type="line"/>
      <point x="1.7324070782437815" y="455.74552539268757"/>
      <point x="-50.00000000000002" y="383.86646459099995"/>
      <point x="-50.00000000000003" y="300.00000000000006" type="curve"/>
      <point x="75" y="300" type="line"/>
    </contour>
  </outline>
</glyph>
<glyph name="n_with_acute" format="2">
  <advance width="550.0"/>
  <unicode hex="0144"/>
  <outline>
    <contour>
      <point x="262.5" y="633.3333333333334" type="line"/>
      <point x="372.88300000000004" y="633.3333333333334"/>
      <point x="462.5" y="722.9503333333333"/>
      <point x="462.5" y="833.3333333333334" type="curve"/>
      <point x="262.5" y="833.3333333333334" type="line"/>
    </contour>
    <contour>
      <point x="50" y="0" type="line"/>
      <point x="250" y="0" type="line"/>
      <point x="250" y="600" type="line"/>
      <point x="50" y="600" type="line"/>
    </contour>
    <contour>
      <point x="300" y="0" type="line"/>
      <point x="500" y="0" type="line"/>
      <point x="500.0" y="360.0" type="line"/>
      <point x="500.0" y="561.6748896552265"/>
      <point x="371.7308445915004" y="600.0"/>
      <point x="300.0" y="600.0" type="curve"/>
    </contour>
  </outline>
</glyph>
<glyph name="N_with_cedilla" format="2">
  <advance width="550.0"/>
  <unicode hex="0145"/>
  <outline>
    <contour>
      <point x="50" y="0" type="line"/>
      <point x="250" y="0" type="line"/>
      <point x="250" y="800" type="line"/>
      <point x="50" y="800" type="line"/>
    </contour>
    <contour>
      <point x="300" y="0" type="line"/>
      <point x="500" y="0" type="line"/>
      <point x="500.0" y="560.0" type="line"/>
      <point x="500.0" y="761.6748896552265"/>
      <point x="371.7308445915004" y="800.0"/>
      <point x="300.0" y="800.0" type="curve"/>
    </contour>
    <contour>
      <point x="462.5" y="-225.0" type="line"/>
      <point x="462.5" y="-114.617"/>
      <point x="372.88300000000004" y="-25.0"/>
      <point x="262.5" y="-25.0" type="curve"/>
      <point x="262.5" y="-225.0" type="line"/>
    </contour>
  </outline>
</glyph>
<glyph name="n_with_cedilla" format="2">
  <advance width="550.0"/>
  <unicode hex="0146"/>
  <outline>
    <contour>
      <point x="50" y="0" type="line"/>
      <point x="250" y="0" type="line"/>
      <point x="250" y="600" type="line"/>
      <point x="50" y="600" type="line"/>
    </contour>
    <contour>
      <point x="300" y="0" type="line"/>
      <point x="500" y="0" type="line"/>
      <point x="500.0" y="360.0" type="line"/>
      <point x="500.0" y="561.6748896552265"/>
      <point x="371.7308445915004" y="600.0"/>
      <point x="300.0" y="600.0" type="curve"/>
    </contour>
    <contour>
      <point x="462.5" y="-225.0" type="line"/>
      <point x="462.5" y="-114.617"/>
      <point x="372.88300000000004" y="-25.0"/>
      <point x="262.5" y="-25.0" type="curve"/>
      <point x="262.5" y="-225.0" type="line"/>
    </contour>
  </outline>
</glyph>
<glyph name="n_with_caron" format="2">
  <advance width="550.0"/>
  <unicode hex="0148"/>
  <outline>
    <contour>
      <point x="268.75" y="633.3333333333334" type="line"/>
      <point x="268.75" y="743.7163333333334"/>
      <point x="179.133" y="833.3333333333334"/>
      <point x="68.75" y="833.3333333333334" type="curve"/>
      <point x="68.75" y="633.3333333333334" type="line"/>
    </contour>
    <contour>
      <point x="481.25" y="833.3333333333334" type="line"/>
      <point x="370.867" y="833.3333333333334"/>
      <point x="281.25" y="743.7163333333334"/>
      <point x="281.25" y="633.3333333333334" type="curve"/>
      <point x="481.25" y="633.3333333333334" type="line"/>
    </contour>
    <contour>
      <point x="50" y="0" type="line"/>
      <point x="250" y="0" type="line"/>
      <point x="250" y="600" type="line"/>
      <point x="50" y="600" type="line"/>
    </contour>
    <contour>
      <point x="300" y="0" type="line"/>
      <point x="500" y="0" type="line"/>
      <point x="500.0" y="360.0" type="line"/>
      <point x="500.0" y="561.6748896552265"/>
      <point x="371.7308445915004" y="600.0"/>
      <point x="300.0" y="600.0" type="curve"/>
    </contour>
  </outline>
</glyph>
<glyph name="O_with_breve" format="2">
  <advance width="550.0"/>
  <unicode hex="014E"/>
  <outline>
    <contour>
      <point x="75" y="1033.3333358764648" type="line"/>
      <point x="75.0" y="922.9503333333333"/>
      <point x="164.61700000000002" y="833.3333333333334"/>
      <point x="275.0" y="833.3333333333334" type="curve"/>
      <point x="385.383" y="833.3333333333334"/>
      <point x="475.0" y="922.9503333333333"/>
      <point x="475.0" y="1033.3333333333335" type="curve"/>
    </contour>
    <contour>
      <point x="50.0" y="235.0" type="line"/>
      <point x="50.000000000000014" y="33.32511034477355"/>
      <point x="178.26915540849964" y="-4.999999999999991"/>
      <point x="250.0" y="-5.0" type="curve"/>
      <point x="250" y="805" type="line"/>
      <point x="178.26915540849964" y="805.0"/>
      <point x="50.000000000000014" y="766.6748896552265"/>
      <point x="50.0" y="565.0" type="curve"/>
    </contour>
    <contour>
      <point x="300" y="-5" type="line"/>
      <point x="371.7308445915004" y="-5.0"/>
      <point x="500.0" y="33.32511034477355"/>
      <point x="500.0" y="235.0" type="curve"/>
      <point x="500.0" y="565.0" type="line"/>
      <point x="500.0" y="766.6748896552265"/>
      <point x="371.7308445915004" y="805.0"/>
      <point x="300.0" y="805.0" type="curve"/>
    </contour>
  </outline>
</glyph>
<glyph name="OE" format="2">
  <advance width="1050.0"/>
  <unicode hex="0152"/>
  <outline>
    <contour>
      <point x="50.0" y="235.0" type="line"/>
      <point x="50.000000000000014" y="33.32511034477355"/>
      <point x="178.26915540849964" y="-4.999999999999991"/>
      <point x="250.0" y="-5.0" type="curve"/>
      <point x="250" y="805" type="line"/>
      <point x="178.26915540849964" y="805.0"/>
      <point x="50.000000000000014" y="766.6748896552265"/>
      <point x="50.0" y="565.0" type="curve"/>
    </contour>
    <contour>
      <point x="300" y="-5" type="line"/>
      <point x="371.7308445915004" y="-5.0"/>
      <point x="500.0" y="33.32511034477355"/>
      <point x="500.0" y="235.0" type="curve"/>
      <point x="500.0" y="565.0" type="line"/>
      <point x="500.0" y="766.6748896552265"/>
      <point x="371.7308445915004" y="805.0"/>
      <point x="300.0" y="805.0" type="curve"/>
    </contour>
    <contour>
      <point x="550" y="0" type="line"/>
      <point x="750" y="0" type="line"/>
      <point x="750" y="800" type="line"/>
      <point x="550" y="800" type="line"/>
    </contour>
    <contour>
      <point x="800.0" y="800.0" type="line"/>
      <point x="800.0" y="689.617"/>
      <point x="889.617" y="600.0"/>
      <point x="1000.0" y="600.0" type="curve"/>
      <point x="1000.0" y="800.0" type="line"/>
    </contour>
    <contour>
      <point x="800.0" y="500.0" type="line"/>
      <point x="800.0" y="389.617"/>
      <point x="889.617" y="300.0"/>
      <point x="1000.0" y="300.0" type="curve"/>
      <point x="1000.0" y="500.0" type="line"/>
    </contour>
    <contour>
      <point x="1000.0" y="200.0" type="line"/>
      <point x="889.617" y="200.0"/>
      <point x="800.0" y="110.383"/>
      <point x="800.0" y="0.0" type="curve"/>
      <point x="1000.0" y="0.0" type="line"/>
    </contour>
  </outline>
</glyph>
<glyph name="oe" format="2">
  <advance width="1050.0"/>
  <unicode hex="0153"/>
  <outline>
    <contour>
      <point x="50.0" y="235.0" type="line"/>
      <point x="50.000000000000014" y="33.32511034477355"/>
      <point x="178.26915540849964" y="-4.999999999999991"/>
      <point x="250.0" y="-5.0" type="curve"/>
      <point x="250" y="605" type="line"/>
      <point x="178.26915540849964" y="605.0"/>
      <point x="50.000000000000014" y="566.6748896552265"/>
      <point x="50.0" y="365.0" type="curve"/>
    </contour>
    <contour>
      <point x="300" y="-5" type="line"/>
      <point x="371.7308445915004" y="-5.0"/>
      <point x="500.0" y="33.32511034477355"/>
      <point x="500.0" y="235.0" type="curve"/>
      <point x="500.0" y="365.0" type="line"/>
      <point x="500.0" y="566.6748896552265"/>
      <point x="371.7308445915004" y="605.0"/>
      <point x="300.0" y="605.0" type="curve"/>
    </contour>
    <contour>
      <point x="550.0" y="235.0" type="line"/>
      <point x="550.0" y="33.32511034477355"/>
      <point x="678.2691554084996" y="-4.999999999999991"/>
      <point x="750.0" y="-5.0" type="curve"/>
      <point x="750" y="605" type="line"/>
      <point x="678.2691554084996" y="605.0"/>
      <point x="550.0" y="566.6748896552265"/>
      <point x="550.0" y="365.0" type="curve"/>
    </contour>
    <contour>
      <point x="800" y="195" type="line"/>
      <point x="1000" y="195" type="line"/>
      <point x="1000.0" y="365.0" type="line"/>
      <point x="1000.0" y="566.6748896552265"/>
      <point x="871.7308445915004" y="605.0"/>
      <point x="800.0" y="605.0" type="curve"/>
    </contour>
  </outline>
</glyph>
<glyph name="R_with_cedilla" format="2">
  <advance width="550.0"/>
  <unicode hex="0156"/>
  <outline>
    <contour>
      <point x="50" y="0" type="line"/>
      <point x="250" y="0" type="line"/>
      <point x="250" y="800" type="line"/>
      <point x="50" y="800" type="line"/>
    </contour>
    <contour>
      <point x="300" y="200" type="line"/>
      <point x="371.7308445915004" y="200.0"/>
      <point x="500.0" y="238.32511034477355"/>
      <point x="500.0" y="440.0" type="curve"/>
      <point x="500.0" y="560.0" type="line"/>
      <point x="500.0" y="761.6748896552265"/>
      <point x="371.7308445915004" y="800.0"/>
      <point x="300.0" y="800.0" type="curve"/>
    </contour>
    <contour>
      <point x="500.0" y="0" type="line"/>
      <point x="500.0" y="110.383"/>
      <point x="410.383" y="200.0"/>
      <point x="300.0" y="200.0" type="curve"/>
      <point x="300.0" y="0" type="line"/>
    </contour>
    <contour>
      <point x="462.5" y="-225.0" type="line"/>
      <point x="462.5" y="-114.617"/>
      <point x="372.88300000000004" y="-25.0"/>
      <point x="262.5" y="-25.0" type="curve"/>
      <point x="262.5" y="-225.0" type="line"/>
    </contour>
  </outline>
</glyph>
<glyph name="r_with_cedilla" format="2">
  <advance width="550.0"/>
  <unicode hex="0157"/>
  <outline>
    <contour>
      <point x="505.0" y="500.0" type="curve" smooth="yes"/>
      <point x="505.0" y="557.95108"/>
      <point x="457.95108" y="605.0"/>
      <point x="400.0" y="605.0" type="curve" smooth="yes"/>
      <point x="342.04892" y="605.0"/>
      <point x="295.0" y="557.95108"/>
      <point x="295.0" y="500.0" type="curve" smooth="yes"/>
      <point x="295.0" y="442.04892"/>
      <point x="342.04892" y="395.0"/>
      <point x="400.0" y="395.0" type="curve" smooth="yes"/>
      <point x="457.95108" y="395.0"/>
      <point x="505.0" y="442.04892"/>
    </contour>
    <contour>
      <point x="50" y="0" type="line"/>
      <point x="250" y="0" type="line"/>
      <point x="250" y="600" type="line"/>
      <point x="50" y="600" type="line"/>
    </contour>
    <contour>
      <point x="465.0" y="-225.0" type="line"/>
      <point x="465.0" y="-114.617"/>
      <point x="375.38300000000004" y="-25.0"/>
      <point x="265.0" y="-25.0" type="curve"/>
      <point x="265.0" y="-225.0" type="line"/>
    </contour>
  </outline>
</glyph>
<glyph name="R_with_caron" format="2">
  <advance width="550.0"/>
  <unicode hex="0158"/>
  <outline>
    <contour>
      <point x="268.75" y="833.3333333333334" type="line"/>
      <point x="268.75" y="943.7163333333334"/>
      <point x="179.133" y="1033.3333333333335"/>
      <point x="68.75" y="1033.3333333333335" type="curve"/>
      <point x="68.75" y="833.3333333333334" type="line"/>
    </contour>
    <contour>
      <point x="481.25" y="1033.3333333333335" type="line"/>
      <point x="370.867" y="1033.3333333333335"/>
      <point x="281.25" y="943.7163333333334"/>
      <point x="281.25" y="833.3333333333334" type="curve"/>
      <point x="481.25" y="833.3333333333334" type="line"/>
    </contour>
    <contour>
      <point x="50" y="0" type="line"/>
      <point x="250" y="0" type="line"/>
      <point x="250" y="800" type="line"/>
      <point x="50" y="800" type="line"/>
    </contour>
    <contour>
      <point x="300" y="200" type="line"/>
      <point x="371.7308445915004" y="200.0"/>
      <point x="500.0" y="238.32511034477355"/>
      <point x="500.0" y="440.0" type="curve"/>
      <point x="500.0" y="560.0" type="line"/>
      <point x="500.0" y="761.6748896552265"/>
      <point x="371.7308445915004" y="800.0"/>
      <point x="300.0" y="800.0" type="curve"/>
    </contour>
    <contour>
      <point x="500.0" y="0" type="line"/>
      <point x="500.0" y="110.383"/>
      <point x="410.383" y="200.0"/>
      <point x="300.0" y="200.0" type="curve"/>
      <point x="300.0" y="0" type="line"/>
    </contour>
  </outline>
</glyph>
<glyph name="r_with_caron" format="2">
  <advance width="550.0"/>
  <unicode hex="0159"/>
  <outline>
    <contour>
      <point x="271.25" y="633.3333333333334" type="line"/>
      <point x="271.25" y="743.7163333333334"/>
      <point x="181.633" y="833.3333333333334"/>
      <point x="71.25" y="833.3333333333334" type="curve"/>
      <point x="71.25" y="633.3333333333334" type="line"/>
    </contour>
    <contour>
      <point x="483.75" y="833.3333333333334" type="line"/>
      <point x="373.367" y="833.3333333333334"/>
      <point x="283.75" y="743.7163333333334"/>
      <point x="283.75" y="633.3333333333334" type="curve"/>
      <point x="483.75" y="633.3333333333334" type="line"/>
    </contour>
    <contour>
      <point x="505.0" y="500.0" type="curve" smooth="yes"/>
      <point x="505.0" y="557.95108"/>
      <point x="457.95108" y="605.0"/>
      <point x="400.0" y="605.0" type="curve" smooth="yes"/>
      <point x="342.04892" y="605.0"/>
      <point x="295.0" y="557.95108"/>
      <point x="295.0" y="500.0" type="curve" smooth="yes"/>
      <point x="295.0" y="442.04892"/>
      <point x="342.04892" y="395.0"/>
      <point x="400.0" y="395.0" type="curve" smooth="yes"/>
      <point x="457.95108" y="395.0"/>
      <point x="505.0" y="442.04892"/>
    </contour>
    <contour>
      <point x="50" y="0" type="line"/>
      <point x="250" y="0" type="line"/>
      <point x="250" y="600" type="line"/>
      <point x="50" y="600" type="line"/>
    </contour>
  </outline>
</glyph>
<glyph name="S_with_circumflex" format="2">
  <advance width="550.0"/>
  <unicode hex="015C"/>
  <outline>
    <contour>
      <point x="68.75" y="833.3333333333334" type="line"/>
      <point x="179.133" y="833.3333333333334"/>
      <point x="268.75" y="922.9503333333333"/>
      <point x="268.75" y="1033.3333333333335" type="curve"/>
      <point x="68.75" y="1033.3333333333335" type="line"/>
    </contour>
    <contour>
      <point x="281.25" y="1033.3333333333335" type="line"/>
      <point x="281.25" y="922.9503333333333"/>
      <point x="370.867" y="833.3333333333334"/>
      <point x="481.25" y="833.3333333333334" type="curve"/>
      <point x="481.25" y="1033.3333333333335" type="line"/>
    </contour>
    <contour>
      <point x="50.0" y="540.0" type="line"/>
      <point x="50.000000000000014" y="338.3251103447735"/>
      <point x="178.26915540849964" y="300.0"/>
      <point x="250.0" y="300.0" type="curve"/>
      <point x="250" y="800" type="line"/>
      <point x="178.26915540849964" y="800.0"/>
      <point x="50.000000000000014" y="761.6748896552265"/>
      <point x="50.0" y="560.0" type="curve"/>
    </contour>
    <contour>
      <point x="293.75" y="800.0" type="line"/>
      <point x="293.75" y="689.617"/>
      <point x="383.367" y="600.0"/>
      <point x="493.75" y="600.0" type="curve"/>
      <point x="493.75" y="800.0" type="line"/>
    </contour>
    <contour>
      <point x="300" y="0" type="line"/>
      <point x="371.7308445915004" y="0.0"/>
      <point x="500.0" y="38.32511034477355"/>
      <point x="500.0" y="240.0" type="curve"/>
      <point x="500.0" y="260.0" type="line"/>
      <point x="500.0" y="461.6748896552265"/>
      <point x="371.7308445915004" y="500.0"/>
      <point x="300.0" y="500.0" type="curve"/>
    </contour>
    <contour>
      <point x="253.125" y="0" type="line"/>
      <point x="253.125" y="110.383"/>
      <point x="163.50799999999998" y="200.0"/>
      <point x="53.125" y="200.0" type="curve"/>
      <point x="53.125" y="0" type="line"/>
    </contour>
  </outline>
</glyph>
<glyph name="t_with_cedilla" format="2">
  <advance width="550.0"/>
  <unicode hex="0163"/>
  <outline>
    <contour>
      <point x="50" y="0" type="line"/>
      <point x="250" y="0" type="line"/>
      <point x="250" y="800" type="line"/>
      <point x="178.26915540849964" y="800.0"/>
      <point x="50.000000000000014" y="761.6748896552265"/>
      <point x="50.0" y="560.0" type="curve"/>
    </contour>
    <contour>
      <point x="300.0" y="400.0" type="line"/>
      <point x="410.383" y="400.0"/>
      <point x="500.0" y="489.617"/>
      <point x="500.0" y="600.0" type="curve"/>
      <point x="300.0" y="600.0" type="line"/>
    </contour>
    <contour>
      <point x="350.0" y="-225.0" type="line"/>
      <point x="350.0" y="-114.617"/>
      <point x="260.38300000000004" y="-25.0"/>
      <point x="150.0" y="-25.0" type="curve"/>
      <point x="150.0" y="-225.0" type="line"/>
    </contour>
  </outline>
</glyph>
<glyph name="U_with_smalltilde" format="2">
  <advance width="550.0"/>
  <unicode hex="0168"/>
  <outline>
    <contour>
      <point x="235.0" y="833.3333353678386" type="line"/>
      <point x="436.6748896552264" y="833.3333379322673"/>
      <point x="475.0" y="961.6024887418331"/>
      <point x="475.0" y="1033.3333333333335" type="curve"/>
      <point x="315.0" y="1033.3333353678386" type="line"/>
      <point x="113.32511034477358" y="1033.3333379322673"/>
      <point x="75.0" y="905.0641779248338"/>
      <point x="75.0" y="833.3333333333334" type="curve"/>
    </contour>
    <contour>
      <point x="50.0" y="235.0" type="line"/>
      <point x="50.000000000000014" y="33.32511034477355"/>
      <point x="178.26915540849964" y="-4.999999999999991"/>
      <point x="250.0" y="-5.0" type="curve"/>
      <point x="250" y="800" type="line"/>
      <point x="50" y="800" type="line"/>
    </contour>
    <contour>
      <point x="300" y="-5" type="line"/>
      <point x="371.7308445915004" y="-5.0"/>
      <point x="500.0" y="33.32511034477355"/>
      <point x="500.0" y="235.0" type="curve"/>
      <point x="500" y="800" type="line"/>
      <point x="300" y="800" type="line"/>
    </contour>
  </outline>
</glyph>
<glyph name="U_with_ring" format="2">
  <advance width="550.0"/>
  <unicode hex="016E"/>
  <outline>
    <contour>
      <point x="250.0" y="1038.3333333333335" type="line"/>
      <point x="192.04892" y="1038.3333333333335"/>
      <point x="145.0" y="991.2844133333333"/>
      <point x="145.0" y="933.3333333333334" type="curve" smooth="yes"/>
      <point x="145.0" y="875.3822533333333"/>
      <point x="192.04892" y="828.3333333333334"/>
      <point x="250.0" y="828.3333333333334" type="curve"/>
    </contour>
    <contour>
      <point x="300.0" y="828.3333333333334" type="line"/>
      <point x="357.95108" y="828.3333333333334"/>
      <point x="405.0" y="875.3822533333333"/>
      <point x="405.0" y="933.3333333333334" type="curve" smooth="yes"/>
      <point x="405.0" y="991.2844133333333"/>
      <point x="357.95108" y="1038.3333333333335"/>
      <point x="300.0" y="1038.3333333333335" type="curve"/>
    </contour>
    <contour>
      <point x="50.0" y="235.0" type="line"/>
      <point x="50.000000000000014" y="33.32511034477355"/>
      <point x="178.26915540849964" y="-4.999999999999991"/>
      <point x="250.0" y="-5.0" type="curve"/>
      <point x="250" y="800" type="line"/>
      <point x="50" y="800" type="line"/>
    </contour>
    <contour>
      <point x="300" y="-5" type="line"/>
      <point x="371.7308445915004" y="-5.0"/>
      <point x="500.0" y="33.32511034477355"/>
      <point x="500.0" y="235.0" type="curve"/>
      <point x="500" y="800" type="line"/>
      <point x="300" y="800" type="line"/>
    </contour>
  </outline>
</glyph>
<glyph name="u_with_ring" format="2">
  <advance width="550.0"/>
  <unicode hex="016F"/>
  <outline>
    <contour>
      <point x="250.0" y="838.3333333333334" type="line"/>
      <point x="192.04892" y="838.3333333333334"/>
      <point x="145.0" y="791.2844133333333"/>
      <point x="145.0" y="733.3333333333334" type="curve" smooth="yes"/>
      <point x="145.0" y="675.3822533333333"/>
      <point x="192.04892" y="628.3333333333334"/>
      <point x="250.0" y="628.3333333333334" type="curve"/>
    </contour>
    <contour>
      <point x="300.0" y="628.3333333333334" type="line"/>
      <point x="357.95108" y="628.3333333333334"/>
      <point x="405.0" y="675.3822533333333"/>
      <point x="405.0" y="733.3333333333334" type="curve" smooth="yes"/>
      <point x="405.0" y="791.2844133333333"/>
      <point x="357.95108" y="838.3333333333334"/>
      <point x="300.0" y="838.3333333333334" type="curve"/>
    </contour>
    <contour>
      <point x="50.0" y="235.0" type="line"/>
      <point x="50.000000000000014" y="33.32511034477355"/>
      <point x="178.26915540849964" y="-4.999999999999991"/>
      <point x="250.0" y="-5.0" type="curve"/>
      <point x="250" y="600" type="line"/>
      <point x="50" y="600" type="line"/>
    </contour>
    <contour>
      <point x="300" y="-5" type="line"/>
      <point x="371.7308445915004" y="-5.0"/>
      <point x="500.0" y="33.32511034477355"/>
      <point x="500.0" y="235.0" type="curve"/>
      <point x="500" y="600" type="line"/>
      <point x="300" y="600" type="line"/>
    </contour>
  </outline>
</glyph>
<glyph name="U_with_acutedbl" format="2">
  <advance width="550.0"/>
  <unicode hex="0170"/>
  <outline>
    <contour>
      <point x="50.0" y="833.3333333333334" type="line"/>
      <point x="160.38299999999998" y="833.3333333333334"/>
      <point x="250.0" y="922.9503333333333"/>
      <point x="250.0" y="1033.3333333333335" type="curve"/>
      <point x="50.0" y="1033.3333333333335" type="line"/>
    </contour>
    <contour>
      <point x="300.0" y="833.3333333333334" type="line"/>
      <point x="410.383" y="833.3333333333334"/>
      <point x="500.0" y="922.9503333333333"/>
      <point x="500.0" y="1033.3333333333335" type="curve"/>
      <point x="300.0" y="1033.3333333333335" type="line"/>
    </contour>
    <contour>
      <point x="50.0" y="235.0" type="line"/>
      <point x="50.000000000000014" y="33.32511034477355"/>
      <point x="178.26915540849964" y="-4.999999999999991"/>
      <point x="250.0" y="-5.0" type="curve"/>
      <point x="250" y="800" type="line"/>
      <point x="50" y="800" type="line"/>
    </contour>
    <contour>
      <point x="300" y="-5" type="line"/>
      <point x="371.7308445915004" y="-5.0"/>
      <point x="500.0" y="33.32511034477355"/>
      <point x="500.0" y="235.0" type="curve"/>
      <point x="500" y="800" type="line"/>
      <point x="300" y="800" type="line"/>
    </contour>
  </outline>
</glyph>
<glyph name="u_with_ogonek" format="2">
  <advance width="550.0"/>
  <unicode hex="0173"/>
  <outline>
    <contour>
      <point x="50.0" y="235.0" type="line"/>
      <point x="50.000000000000014" y="33.32511034477355"/>
      <point x="178.26915540849964" y="-4.999999999999991"/>
      <point x="250.0" y="-5.0" type="curve"/>
      <point x="250" y="600" type="line"/>
      <point x="50" y="600" type="line"/>
    </contour>
    <contour>
      <point x="300" y="-5" type="line"/>
      <point x="371.7308445915004" y="-5.0"/>
      <point x="500.0" y="33.32511034477355"/>
      <point x="500.0" y="235.0" type="curve"/>
      <point x="500" y="600" type="line"/>
      <point x="300" y="600" type="line"/>
    </contour>
    <contour>
      <point x="275.0" y="-30.0" type="line"/>
      <point x="164.617" y="-30.0"/>
      <point x="75.0" y="-119.617"/>
      <point x="75.0" y="-230.0" type="curve"/>
      <point x="275.0" y="-230.0" type="line"/>
    </contour>
  </outline>
</glyph>
<glyph name="Y_with_diaeresis" format="2">
  <advance width="550.0"/>
  <unicode hex="0178"/>
  <outline>
    <contour>
      <point x="255.0" y="933.3333333333334" type="curve" smooth="yes"/>
      <point x="255.0" y="991.2844133333333"/>
      <point x="207.95108" y="1038.3333333333335"/>
      <point x="150.0" y="1038.3333333333335" type="curve" smooth="yes"/>
      <point x="92.04892000000001" y="1038.3333333333335"/>
      <point x="45.0" y="991.2844133333333"/>
      <point x="45.0" y="933.3333333333334" type="curve" smooth="yes"/>
      <point x="45.0" y="875.3822533333333"/>
      <point x="92.04892000000001" y="828.3333333333334"/>
      <point x="150.0" y="828.3333333333334" type="curve" smooth="yes"/>
      <point x="207.95108" y="828.3333333333334"/>
      <point x="255.0" y="875.3822533333333"/>
    </contour>
    <contour>
      <point x="505.0" y="933.3333333333334" type="curve" smooth="yes"/>
      <point x="505.0" y="991.2844133333333"/>
      <point x="457.95108" y="1038.3333333333335"/>
      <point x="400.0" y="1038.3333333333335" type="curve" smooth="yes"/>
      <point x="342.04892" y="1038.3333333333335"/>
      <point x="295.0" y="991.2844133333333"/>
      <point x="295.0" y="933.3333333333334" type="curve" smooth="yes"/>
      <point x="295.0" y="875.3822533333333"/>
      <point x="342.04892" y="828.3333333333334"/>
      <point x="400.0" y="828.3333333333334" type="curve" smooth="yes"/>
      <point x="457.95108" y="828.3333333333334"/>
      <point x="505.0" y="875.3822533333333"/>
    </contour>
    <contour>
      <point x="50.0" y="440.0" type="line"/>
      <point x="50.000000000000014" y="238.32511034477355"/>
      <point x="178.26915540849964" y="200.0"/>
      <point x="250.0" y="200.0" type="curve"/>
      <point x="250.0" y="565.0" type="line"/>
      <point x="250.0" y="766.6748896552265"/>
      <point x="121.73084459150036" y="805.0"/>
      <point x="50.0" y="805.0" type="curve"/>
    </contour>
    <contour>
      <point x="300" y="-5" type="line"/>
      <point x="371.7308445915004" y="-5.0"/>
      <point x="500.0" y="33.32511034477355"/>
      <point x="500.0" y="235.0" type="curve"/>
      <point x="500" y="800" type="line"/>
      <point x="300" y="800" type="line"/>
    </contour>
    <contour>
      <point x="261.25" y="90.0" type="curve" smooth="yes"/>
      <point x="261.25" y="147.95108"/>
      <point x="214.20108" y="195.0"/>
      <point x="156.25" y="195.0" type="curve" smooth="yes"/>
      <point x="98.29892000000001" y="195.0"/>
      <point x="51.25" y="147.95108"/>
      <point x="51.25" y="90.0" type="curve" smooth="yes"/>
      <point x="51.25" y="32.04892"/>
      <point x="98.29892000000001" y="-15.0"/>
      <point x="156.25" y="-15.0" type="curve" smooth="yes"/>
      <point x="214.20108" y="-15.0"/>
      <point x="261.25" y="32.04892"/>
    </contour>
  </outline>
</glyph>
<glyph name="Z_with_acute" format="2">
  <advance width="550.0"/>
  <unicode hex="0179"/>
  <outline>
    <contour>
      <point x="262.5" y="833.3333333333334" type="line"/>
      <point x="372.88300000000004" y="833.3333333333334"/>
      <point x="462.5" y="922.9503333333333"/>
      <point x="462.5" y="1033.3333333333335" type="curve"/>
      <point x="262.5" y="1033.3333333333335" type="line"/>
    </contour>
    <contour>
      <point x="50.0" y="600.0" type="line"/>
      <point x="160.38299999999998" y="600.0"/>
      <point x="250.0" y="689.617"/>
      <point x="250.0" y="800.0" type="curve"/>
      <point x="50.0" y="800.0" type="line"/>
    </contour>
    <contour>
      <point x="300" y="300" type="line"/>
      <point x="371.7308445915004" y="300.0"/>
      <point x="500.0" y="338.3251103447735"/>
      <point x="500.0" y="540.0" type="curve"/>
      <point x="500" y="800" type="line"/>
      <point x="300" y="800" type="line"/>
    </contour>
    <contour>
      <point x="50" y="0" type="line"/>
      <point x="250" y="0" type="line"/>
      <point x="250" y="500" type="line"/>
      <point x="178.26915540849964" y="500.0"/>
      <point x="50.000000000000014" y="461.6748896552265"/>
      <point x="50.0" y="260.0" type="curve"/>
    </contour>
    <contour>
      <point x="500.0" y="200.0" type="line"/>
      <point x="389.617" y="200.0"/>
      <point x="300.0" y="110.383"/>
      <point x="300.0" y="0.0" type="curve"/>
      <point x="500.0" y="0.0" type="line"/>
    </contour>
  </outline>
</glyph>
<glyph name="Z_with_caron" format="2">
  <advance width="550.0"/>
  <unicode hex="017D"/>
  <outline>
    <contour>
      <point x="268.75" y="833.3333333333334" type="line"/>
      <point x="268.75" y="943.7163333333334"/>
      <point x="179.133" y="1033.3333333333335"/>
      <point x="68.75" y="1033.3333333333335" type="curve"/>
      <point x="68.75" y="833.3333333333334" type="line"/>
    </contour>
    <contour>
      <point x="481.25" y="1033.3333333333335" type="line"/>
      <point x="370.867" y="1033.3333333333335"/>
      <point x="281.25" y="943.7163333333334"/>
      <point x="281.25" y="833.3333333333334" type="curve"/>
      <point x="481.25" y="833.3333333333334" type="line"/>
    </contour>
    <contour>
      <point x="50.0" y="600.0" type="line"/>
      <point x="160.38299999999998" y="600.0"/>
      <point x="250.0" y="689.617"/>
      <point x="250.0" y="800.0" type="curve"/>
      <point x="50.0" y="800.0" type="line"/>
    </contour>
    <contour>
      <point x="300" y="300" type="line"/>
      <point x="371.7308445915004" y="300.0"/>
      <point x="500.0" y="338.3251103447735"/>
      <point x="500.0" y="540.0" type="curve"/>
      <point x="500" y="800" type="line"/>
      <point x="300" y="800" type="line"/>
    </contour>
    <contour>
      <point x="50" y="0" type="line"/>
      <point x="250" y="0" type="line"/>
      <point x="250" y="500" type="line"/>
      <point x="178.26915540849964" y="500.0"/>
      <point x="50.000000000000014" y="461.6748896552265"/>
      <point x="50.0" y="260.0" type="curve"/>
    </contour>
    <contour>
      <point x="500.0" y="200.0" type="line"/>
      <point x="389.617" y="200.0"/>
      <point x="300.0" y="110.383"/>
      <point x="300.0" y="0.0" type="curve"/>
      <point x="500.0" y="0.0" type="line"/>
    </contour>
  </outline>
</glyph>
<glyph name="florin" format="2">
  <advance width="800.0"/>
  <unicode hex="0192"/>
  <outline>
    <contour>
      <point x="300" y="0" type="line"/>
      <point x="371.7308445915004" y="0.0"/>
      <point x="500.0" y="38.32511034477355"/>
      <point x="500.0" y="240.0" type="curve"/>
      <point x="500" y="805" type="line"/>
      <point x="428.2691554084996" y="805.0"/>
      <point x="300.0" y="766.6748896552265"/>
      <point x="300.0" y="565.0" type="curve"/>
    </contour>
    <contour>
      <point x="755.0" y="700.0" type="curve" smooth="yes"/>
      <point x="755.0" y="757.95108"/>
      <point x="707.95108" y="805.0"/>
      <point x="650.0" y="805.0" type="curve" smooth="yes"/>
      <point x="592.04892" y="805.0"/>
      <point x="545.0" y="757.95108"/>
      <point x="545.0" y="700.0" type="curve" smooth="yes"/>
      <point x="545.0" y="642.04892"/>
      <point x="592.04892" y="595.0"/>
      <point x="650.0" y="595.0" type="curve" smooth="yes"/>
      <point x="707.95108" y="595.0"/>
      <point x="755.0" y="642.04892"/>
    </contour>
    <contour>
      <point x="125" y="400" type="line"/>
      <point x="250" y="400" type="line"/>
      <point x="250" y="500" type="line"/>
      <point x="125" y="500" type="line"/>
    </contour>
    <contour>
      <point x="550" y="400" type="line"/>
      <point x="700" y="400" type="line"/>
      <point x="700" y="500" type="line"/>
      <point x="550" y="500" type="line"/>
    </contour>
    <contour>
      <point x="255.0" y="100.0" type="curve" smooth="yes"/>
      <point x="255.0" y="157.95108"/>
      <point x="207.95108" y="205.0"/>
      <point x="150.0" y="205.0" type="curve" smooth="yes"/>
      <point x="92.04892000000001" y="205.0"/>
      <point x="45.0" y="157.95108"/>
      <point x="45.0" y="100.0" type="curve" smooth="yes"/>
      <point x="45.0" y="42.04892"/>
      <point x="92.04892000000001" y="-5.0"/>
      <point x="150.0" y="-5.0" type="curve" smooth="yes"/>
      <point x="207.95108" y="-5.0"/>
      <point x="255.0" y="42.04892"/>
    </contour>
  </outline>
</glyph>
<glyph name="O_with_ogonek" format="2">
  <advance width="550.0"/>
  <unicode hex="01EA"/>
  <outline>
    <contour>
      <point x="50.0" y="235.0" type="line"/>
      <point x="50.000000000000014" y="33.32511034477355"/>
      <point x="178.26915540849964" y="-4.999999999999991"/>
      <point x="250.0" y="-5.0" type="curve"/>
      <point x="250" y="805" type="line"/>
      <point x="178.26915540849964" y="805.0"/>
      <point x="50.000000000000014" y="766.6748896552265"/>
      <point x="50.0" y="565.0" type="curve"/>
    </contour>
    <contour>
      <point x="300" y="-5" type="line"/>
      <point x="371.7308445915004" y="-5.0"/>
      <point x="500.0" y="33.32511034477355"/>
      <point x="500.0" y="235.0" type="curve"/>
      <point x="500.0" y="565.0" type="line"/>
      <point x="500.0" y="766.6748896552265"/>
      <point x="371.7308445915004" y="805.0"/>
      <point x="300.0" y="805.0" type="curve"/>
    </contour>
    <contour>
      <point x="275.0" y="-30.0" type="line"/>
      <point x="164.617" y="-30.0"/>
      <point x="75.0" y="-119.617"/>
      <point x="75.0" y="-230.0" type="curve"/>
      <point x="275.0" y="-230.0" type="line"/>
    </contour>
  </outline>
</glyph>
<glyph name="AE_with_acute" format="2">
  <advance width="1050.0"/>
  <unicode hex="01FC"/>
  <outline>
    <contour>
      <point x="512.5" y="833.3333333333334" type="line"/>
      <point x="622.883" y="833.3333333333334"/>
      <point x="712.5" y="922.9503333333333"/>
      <point x="712.5" y="1033.3333333333335" type="curve"/>
      <point x="512.5" y="1033.3333333333335" type="line"/>
    </contour>
    <contour>
      <point x="50" y="0" type="line"/>
      <point x="250" y="0" type="line"/>
      <point x="250" y="805" type="line"/>
      <point x="178.26915540849964" y="805.0"/>
      <point x="50.000000000000014" y="766.6748896552265"/>
      <point x="50.0" y="565.0" type="curve"/>
    </contour>
    <contour>
      <point x="300" y="0" type="line"/>
      <point x="500" y="0" type="line"/>
      <point x="500.0" y="565.0" type="line"/>
      <point x="500.0" y="766.6748896552265"/>
      <point x="371.7308445915004" y="805.0"/>
      <point x="300.0" y="805.0" type="curve"/>
    </contour>
    <contour>
      <point x="550" y="0" type="line"/>
      <point x="750" y="0" type="line"/>
      <point x="750" y="800" type="line"/>
      <point x="550" y="800" type="line"/>
    </contour>
    <contour>
      <point x="800.0" y="800.0" type="line"/>
      <point x="800.0" y="689.617"/>
      <point x="889.617" y="600.0"/>
      <point x="1000.0" y="600.0" type="curve"/>
      <point x="1000.0" y="800.0" type="line"/>
    </contour>
    <contour>
      <point x="800.0" y="500.0" type="line"/>
      <point x="800.0" y="389.617"/>
      <point x="889.617" y="300.0"/>
      <point x="1000.0" y="300.0" type="curve"/>
      <point x="1000.0" y="500.0" type="line"/>
    </contour>
    <contour>
      <point x="1000.0" y="200.0" type="line"/>
      <point x="889.617" y="200.0"/>
      <point x="800.0" y="110.383"/>
      <point x="800.0" y="0.0" type="curve"/>
      <point x="1000.0" y="0.0" type="line"/>
    </contour>
  </outline>
</glyph>
<glyph name="A_with_breveinv" format="2">
  <advance width="550.0"/>
  <unicode hex="0202"/>
  <outline>
    <contour>
      <point x="475" y="833.3333358764648" type="line"/>
      <point x="475.0" y="943.7163333333334"/>
      <point x="385.383" y="1033.3333333333335"/>
      <point x="275.0" y="1033.3333333333335" type="curve"/>
      <point x="164.61700000000002" y="1033.3333333333335"/>
      <point x="75.0" y="943.7163333333334"/>
      <point x="75.0" y="833.3333333333334" type="curve"/>
    </contour>
    <contour>
      <point x="50" y="0" type="line"/>
      <point x="250" y="0" type="line"/>
      <point x="250" y="805" type="line"/>
      <point x="178.26915540849964" y="805.0"/>
      <point x="50.000000000000014" y="766.6748896552265"/>
      <point x="50.0" y="565.0" type="curve"/>
    </contour>
    <contour>
      <point x="300" y="0" type="line"/>
      <point x="500" y="0" type="line"/>
      <point x="500.0" y="565.0" type="line"/>
      <point x="500.0" y="766.6748896552265"/>
      <point x="371.7308445915004" y="805.0"/>
      <point x="300.0" y="805.0" type="curve"/>
    </contour>
  </outline>
</glyph>
<glyph name="I_with_breveinv" format="2">
  <advance width="300.0"/>
  <unicode hex="020A"/>
  <outline>
    <contour>
      <point x="350" y="833.3333358764648" type="line"/>
      <point x="350.0" y="943.7163333333334"/>
      <point x="260.383" y="1033.3333333333335"/>
      <point x="150.0" y="1033.3333333333335" type="curve"/>
      <point x="39.617000000000004" y="1033.3333333333335"/>
      <point x="-50.0" y="943.7163333333334"/>
      <point x="-50.0" y="833.3333333333334" type="curve"/>
    </contour>
    <contour>
      <point x="50" y="0" type="line"/>
      <point x="250" y="0" type="line"/>
      <point x="250" y="800" type="line"/>
      <point x="50" y="800" type="line"/>
    </contour>
  </outline>
</glyph>
<glyph name="i_with_breveinv" format="2">
  <advance width="300.0"/>
  <unicode hex="020B"/>
  <outline>
    <contour>
      <point x="350" y="633.3333358764648" type="line"/>
      <point x="350.0" y="743.7163333333334"/>
      <point x="260.383" y="833.3333333333334"/>
      <point x="150.0" y="833.3333333333334" type="curve"/>
      <point x="39.617000000000004" y="833.3333333333334"/>
      <point x="-50.0" y="743.7163333333334"/>
      <point x="-50.0" y="633.3333333333334" type="curve"/>
    </contour>
    <contour>
      <point x="50" y="0" type="line"/>
      <point x="250" y="0" type="line"/>
      <point x="250" y="600" type="line"/>
      <point x="50" y="600" type="line"/>
    </contour>
  </outline>
</glyph>
<glyph name="o_with_gravedbl" format="2">
  <advance width="550.0"/>
  <unicode hex="020D"/>
  <outline>
    <contour>
      <point x="50.0" y="833.3333333333334" type="line"/>
      <point x="50.0" y="722.9503333333333"/>
      <point x="139.61700000000002" y="633.3333333333334"/>
      <point x="250.0" y="633.3333333333334" type="curve"/>
      <point x="250.0" y="833.3333333333334" type="line"/>
    </contour>
    <contour>
      <point x="300.0" y="833.3333333333334" type="line"/>
      <point x="300.0" y="722.9503333333333"/>
      <point x="389.617" y="633.3333333333334"/>
      <point x="500.0" y="633.3333333333334" type="curve"/>
      <point x="500.0" y="833.3333333333334" type="line"/>
    </contour>
    <contour>
      <point x="50.0" y="235.0" type="line"/>
      <point x="50.000000000000014" y="33.32511034477355"/>
      <point x="178.26915540849964" y="-4.999999999999991"/>
      <point x="250.0" y="-5.0" type="curve"/>
      <point x="250" y="605" type="line"/>
      <point x="178.26915540849964" y="605.0"/>
      <point x="50.000000000000014" y="566.6748896552265"/>
      <point x="50.0" y="365.0" type="curve"/>
    </contour>
    <contour>
      <point x="300" y="-5" type="line"/>
      <point x="371.7308445915004" y="-5.0"/>
      <point x="500.0" y="33.32511034477355"/>
      <point x="500.0" y="235.0" type="curve"/>
      <point x="500.0" y="365.0" type="line"/>
      <point x="500.0" y="566.6748896552265"/>
      <point x="371.7308445915004" y="605.0"/>
      <point x="300.0" y="605.0" type="curve"/>
    </contour>
  </outline>
</glyph>
<glyph name="r_with_breveinv" format="2">
  <advance width="550.0"/>
  <unicode hex="0213"/>
  <outline>
    <contour>
      <point x="477.5" y="633.3333358764648" type="line"/>
      <point x="477.5" y="743.7163333333334"/>
      <point x="387.883" y="833.3333333333334"/>
      <point x="277.5" y="833.3333333333334" type="curve"/>
      <point x="167.11700000000002" y="833.3333333333334"/>
      <point x="77.5" y="743.7163333333334"/>
      <point x="77.5" y="633.3333333333334" type="curve"/>
    </contour>
    <contour>
      <point x="505.0" y="500.0" type="curve" smooth="yes"/>
      <point x="505.0" y="557.95108"/>
      <point x="457.95108" y="605.0"/>
      <point x="400.0" y="605.0" type="curve" smooth="yes"/>
      <point x="342.04892" y="605.0"/>
      <point x="295.0" y="557.95108"/>
      <point x="295.0" y="500.0" type="curve" smooth="yes"/>
      <point x="295.0" y="442.04892"/>
      <point x="342.04892" y="395.0"/>
      <point x="400.0" y="395.0" type="curve" smooth="yes"/>
      <point x="457.95108" y="395.0"/>
      <point x="505.0" y="442.04892"/>
    </contour>
    <contour>
      <point x="50" y="0" type="line"/>
      <point x="250" y="0" type="line"/>
      <point x="250" y="600" type="line"/>
      <point x="50" y="600" type="line"/>
    </contour>
  </outline>
</glyph>
<glyph name="U_with_breveinv" format="2">
  <advance width="550.0"/>
  <unicode hex="0216"/>
  <outline>
    <contour>
      <point x="475" y="833.3333358764648" type="line"/>
      <point x="475.0" y="943.7163333333334"/>
      <point x="385.383" y="1033.3333333333335"/>
      <point x="275.0" y="1033.3333333333335" type="curve"/>
      <point x="164.61700000000002" y="1033.3333333333335"/>
      <point x="75.0" y="943.7163333333334"/>
      <point x="75.0" y="833.3333333333334" type="curve"/>
    </contour>
    <contour>
      <point x="50.0" y="235.0" type="line"/>
      <point x="50.000000000000014" y="33.32511034477355"/>
      <point x="178.26915540849964" y="-4.999999999999991"/>
      <point x="250.0" y="-5.0" type="curve"/>
      <point x="250" y="800" type="line"/>
      <point x="50" y="800" type="line"/>
    </contour>
    <contour>
      <point x="300" y="-5" type="line"/>
      <point x="371.7308445915004" y="-5.0"/>
      <point x="500.0" y="33.32511034477355"/>
      <point x="500.0" y="235.0" type="curve"/>
      <point x="500" y="800" type="line"/>
      <point x="300" y="800" type="line"/>
    </contour>
  </outline>
</glyph>
<glyph name="S_with_commabelow" format="2">
  <advance width="550.0"/>
  <unicode hex="0218"/>
  <outline>
    <contour>
      <point x="50.0" y="540.0" type="line"/>
      <point x="50.000000000000014" y="338.3251103447735"/>
      <point x="178.26915540849964" y="300.0"/>
      <point x="250.0" y="300.0" type="curve"/>
      <point x="250" y="800" type="line"/>
      <point x="178.26915540849964" y="800.0"/>
      <point x="50.000000000000014" y="761.6748896552265"/>
      <point x="50.0" y="560.0" type="curve"/>
    </contour>
    <contour>
      <point x="293.75" y="800.0" type="line"/>
      <point x="293.75" y="689.617"/>
      <point x="383.367" y="600.0"/>
      <point x="493.75" y="600.0" type="curve"/>
      <point x="493.75" y="800.0" type="line"/>
    </contour>
    <contour>
      <point x="300" y="0" type="line"/>
      <point x="371.7308445915004" y="0.0"/>
      <point x="500.0" y="38.32511034477355"/>
      <point x="500.0" y="240.0" type="curve"/>
      <point x="500.0" y="260.0" type="line"/>
      <point x="500.0" y="461.6748896552265"/>
      <point x="371.7308445915004" y="500.0"/>
      <point x="300.0" y="500.0" type="curve"/>
    </contour>
    <contour>
      <point x="253.125" y="0" type="line"/>
      <point x="253.125" y="110.383"/>
      <point x="163.50799999999998" y="200.0"/>
      <point x="53.125" y="200.0" type="curve"/>
      <point x="53.125" y="0" type="line"/>
    </contour>
    <contour>
      <point x="175.0" y="-225.0" type="line"/>
      <point x="285.383" y="-225.0"/>
      <point x="375.0" y="-135.38299999999998"/>
      <point x="375.0" y="-25.0" type="curve"/>
      <point x="175.0" y="-25.0" type="line"/>
    </contour>
  </outline>
</glyph>
<glyph name="s_with_commabelow" format="2">
  <advance width="550.0"/>
  <unicode hex="0219"/>
  <outline>
    <contour>
      <point x="250" y="600" type="line"/>
      <point x="139.61700000000002" y="600.0"/>
      <point x="50.0" y="510.383"/>
      <point x="50.0" y="400.0" type="curve"/>
      <point x="50.0" y="289.617"/>
      <point x="139.61700000000002" y="200.0"/>
      <point x="250.0" y="200.0" type="curve"/>
    </contour>
    <contour>
      <point x="293.75" y="600.0" type="line"/>
      <point x="293.75" y="489.617"/>
      <point x="383.367" y="400.0"/>
      <point x="493.75" y="400.0" type="curve"/>
      <point x="493.75" y="600.0" type="line"/>
    </contour>
    <contour>
      <point x="300" y="-5" type="line"/>
      <point x="410.383" y="-5.0"/>
      <point x="500.0" y="84.617"/>
      <point x="500.0" y="195.0" type="curve"/>
      <point x="500.0" y="305.383"/>
      <point x="410.383" y="395.0"/>
      <point x="300.0" y="395.0" type="curve"/>
    </contour>
    <contour>
      <point x="253.125" y="0" type="line"/>
      <point x="253.125" y="110.383"/>
      <point x="163.50799999999998" y="200.0"/>
      <point x="53.125" y="200.0" type="curve"/>
      <point x="53.125" y="0" type="line"/>
    </contour>
    <contour>
      <point x="175.0" y="-230.0" type="line"/>
      <point x="285.383" y="-230.0"/>
      <point x="375.0" y="-140.38299999999998"/>
      <point x="375.0" y="-30.0" type="curve"/>
      <point x="175.0" y="-30.0" type="line"/>
    </contour>
  </outline>
</glyph>
<glyph name="t_with_commabelow" format="2">
  <advance width="550.0"/>
  <unicode hex="021B"/>
  <outline>
    <contour>
      <point x="50" y="0" type="line"/>
      <point x="250" y="0" type="line"/>
      <point x="250" y="800" type="line"/>
      <point x="178.26915540849964" y="800.0"/>
      <point x="50.000000000000014" y="761.6748896552265"/>
      <point x="50.0" y="560.0" type="curve"/>
    </contour>
    <contour>
      <point x="300.0" y="400.0" type="line"/>
      <point x="410.383" y="400.0"/>
      <point x="500.0" y="489.617"/>
      <point x="500.0" y="600.0" type="curve"/>
      <point x="300.0" y="600.0" type="line"/>
    </contour>
    <contour>
      <point x="175.0" y="-225.0" type="line"/>
      <point x="285.383" y="-225.0"/>
      <point x="375.0" y="-135.38299999999998"/>
      <point x="375.0" y="-25.0" type="curve"/>
      <point x="175.0" y="-25.0" type="line"/>
    </contour>
  </outline>
</glyph>
<glyph name="Y_with_macron" format="2">
  <advance width="550.0"/>
  <unicode hex="0232"/>
  <outline>
    <contour>
      <point x="75" y="833.3333358764648" type="line"/>
      <point x="475" y="833.3333358764648" type="line"/>
      <point x="475" y="1033.3333358764648" type="line"/>
      <point x="75" y="1033.3333358764648" type="line"/>
    </contour>
    <contour>
      <point x="50.0" y="440.0" type="line"/>
      <point x="50.000000000000014" y="238.32511034477355"/>
      <point x="178.26915540849964" y="200.0"/>
      <point x="250.0" y="200.0" type="curve"/>
      <point x="250.0" y="565.0" type="line"/>
      <point x="250.0" y="766.6748896552265"/>
      <point x="121.73084459150036" y="805.0"/>
      <point x="50.0" y="805.0" type="curve"/>
    </contour>
    <contour>
      <point x="300" y="-5" type="line"/>
      <point x="371.7308445915004" y="-5.0"/>
      <point x="500.0" y="33.32511034477355"/>
      <point x="500.0" y="235.0" type="curve"/>
      <point x="500" y="800" type="line"/>
      <point x="300" y="800" type="line"/>
    </contour>
    <contour>
      <point x="261.25" y="90.0" type="curve" smooth="yes"/>
      <point x="261.25" y="147.95108"/>
      <point x="214.20108" y="195.0"/>
      <point x="156.25" y="195.0" type="curve" smooth="yes"/>
      <point x="98.29892000000001" y="195.0"/>
      <point x="51.25" y="147.95108"/>
      <point x="51.25" y="90.0" type="curve" smooth="yes"/>
      <point x="51.25" y="32.04892"/>
      <point x="98.29892000000001" y="-15.0"/>
      <point x="156.25" y="-15.0" type="curve" smooth="yes"/>
      <point x="214.20108" y="-15.0"/>
      <point x="261.25" y="32.04892"/>
    </contour>
  </outline>
</glyph>
<glyph name="apostrophe" format="2">
  <advance width="300.0"/>
  <unicode hex="02BC"/>
  <outline>
    <contour>
      <point x="50.0" y="600.0" type="line"/>
      <point x="160.38299999999998" y="600.0"/>
      <point x="250.0" y="689.617"/>
      <point x="250.0" y="800.0" type="curve"/>
      <point x="50.0" y="800.0" type="line"/>
    </contour>
  </outline>
</glyph>
<glyph name="circumflex" format="2">
  <advance width="550.0"/>
  <unicode hex="02C6"/>
  <outline>
    <contour>
      <point x="68.75" y="800.0" type="line"/>
      <point x="179.133" y="800.0"/>
      <point x="268.75" y="889.617"/>
      <point x="268.75" y="1000.0" type="curve"/>
      <point x="68.75" y="1000.0" type="line"/>
    </contour>
    <contour>
      <point x="281.25" y="1000.0" type="line"/>
      <point x="281.25" y="889.617"/>
      <point x="370.867" y="800.0"/>
      <point x="481.25" y="800.0" type="curve"/>
      <point x="481.25" y="1000.0" type="line"/>
    </contour>
  </outline>
</glyph>
<glyph name="caron" format="2">
  <advance width="550.0"/>
  <unicode hex="02C7"/>
  <outline>
    <contour>
      <point x="268.75" y="800" type="line"/>
      <point x="268.75" y="910.383"/>
      <point x="179.133" y="1000.0"/>
      <point x="68.75" y="1000.0" type="curve"/>
      <point x="68.75" y="800" type="line"/>
    </contour>
    <contour>
      <point x="481.25" y="1000.0" type="line"/>
      <point x="370.867" y="1000.0"/>
      <point x="281.25" y="910.383"/>
      <point x="281.25" y="800.0" type="curve"/>
      <point x="481.25" y="800.0" type="line"/>
    </contour>
  </outline>
</glyph>
<glyph name="dotabove" format="2">
  <advance width="300.0"/>
  <unicode hex="02D9"/>
  <outline>
    <contour>
      <point x="255.0" y="900.0" type="curve" smooth="yes"/>
      <point x="255.0" y="957.95108"/>
      <point x="207.95108" y="1005.0"/>
      <point x="150.0" y="1005.0" type="curve" smooth="yes"/>
      <point x="92.04892000000001" y="1005.0"/>
      <point x="45.0" y="957.95108"/>
      <point x="45.0" y="900.0" type="curve" smooth="yes"/>
      <point x="45.0" y="842.04892"/>
      <point x="92.04892000000001" y="795.0"/>
      <point x="150.0" y="795.0" type="curve" smooth="yes"/>
      <point x="207.95108" y="795.0"/>
      <point x="255.0" y="842.04892"/>
    </contour>
  </outline>
</glyph>
<glyph name="ring" format="2">
  <advance width="550.0"/>
  <unicode hex="02DA"/>
  <outline>
    <contour>
      <point x="250.0" y="1005.0" type="line"/>
      <point x="192.04892" y="1005.0"/>
      <point x="145.0" y="957.95108"/>
      <point x="145.0" y="900.0" type="curve" smooth="yes"/>
      <point x="145.0" y="842.04892"/>
      <point x="192.04892" y="795.0"/>
      <point x="250.0" y="795.0" type="curve"/>
    </contour>
    <contour>
      <point x="300.0" y="795.0" type="line"/>
      <point x="357.95108" y="795.0"/>
      <point x="405.0" y="842.04892"/>
      <point x="405.0" y="900.0" type="curve" smooth="yes"/>
      <point x="405.0" y="957.95108"/>
      <point x="357.95108" y="1005.0"/>
      <point x="300.0" y="1005.0" type="curve"/>
    </contour>
  </outline>
</glyph>
<glyph name="ogonek" format="2">
  <advance width="300.0"/>
  <unicode hex="02DB"/>
  <outline>
    <contour>
      <point x="150.0" y="0.0" type="line"/>
      <point x="39.617000000000004" y="0.0"/>
      <point x="-50.0" y="-89.617"/>
      <point x="-50.0" y="-200.0" type="curve"/>
      <point x="150.0" y="-200.0" type="line"/>
    </contour>
  </outline>
</glyph>
<glyph name="smalltilde" format="2">
  <advance width="550.0"/>
  <unicode hex="02DC"/>
  <outline>
    <contour>
      <point x="235.0" y="800.0" type="line"/>
      <point x="436.6748896552265" y="800.0"/>
      <point x="475.0" y="928.2691554084996"/>
      <point x="475.0" y="1000.0" type="curve"/>
      <point x="315.0" y="1000.0" type="line"/>
      <point x="113.32511034477355" y="1000.0"/>
      <point x="75.0" y="871.7308445915004"/>
      <point x="75.0" y="800.0" type="curve"/>
    </contour>
  </outline>
</glyph>
<glyph name="acutedbl" format="2">
  <advance width="550.0"/>
  <unicode hex="02DD"/>
  <outline>
    <contour>
      <point x="50.0" y="800.0" type="line"/>
      <point x="160.38299999999998" y="800.0"/>
      <point x="250.0" y="889.617"/>
      <point x="250.0" y="1000.0" type="curve"/>
      <point x="50.0" y="1000.0" type="line"/>
    </contour>
    <contour>
      <point x="300.0" y="800.0" type="line"/>
      <point x="410.383" y="800.0"/>
      <point x="500.0" y="889.617"/>
      <point x="500.0" y="1000.0" type="curve"/>
      <point x="300.0" y="1000.0" type="line"/>
    </contour>
  </outline>
</glyph>
<glyph name="combining_smalltilde" format="2">
  <advance width="550.0"/>
  <unicode hex="0303"/>
  <outline>
    <contour>
      <point x="-315.0" y="633.3333285976562" type="line"/>
      <point x="-113.32511034477355" y="633.3333268300468"/>
      <point x="-75.0" y="761.6024854084997"/>
      <point x="-75.0" y="833.33333" type="curve"/>
      <point x="-235.0" y="833.3333285976563" type="line"/>
      <point x="-436.6748896552265" y="833.3333268300468"/>
      <point x="-475.0" y="705.0641745915003"/>
      <point x="-475.0" y="633.3333299999999" type="curve"/>
    </contour>
  </outline>
</glyph>
<glyph name="combining_acutedbl" format="2">
  <advance width="550.0"/>
  <unicode hex="030B"/>
  <outline>
    <contour>
      <point x="-500.0" y="633.3333299999999" type="line"/>
      <point x="-389.617" y="633.3333299999999"/>
      <point x="-300.0" y="722.95033"/>
      <point x="-300.0" y="833.33333" type="curve"/>
      <point x="-500.0" y="833.33333" type="line"/>
    </contour>
    <contour>
      <point x="-250.0" y="633.3333299999999" type="line"/>
      <point x="-139.617" y="633.3333299999999"/>
      <point x="-50.0" y="722.95033"/>
      <point x="-50.0" y="833.33333" type="curve"/>
      <point x="-250.0" y="833.33333" type="line"/>
    </contour>
  </outline>
</glyph>
<glyph name="combining_caron" format="2">
  <advance width="550.0"/>
  <unicode hex="030C"/>
  <outline>
    <contour>
      <point x="-281.25" y="633.3333299999999" type="line"/>
      <point x="-281.25" y="743.71633"/>
      <point x="-370.867" y="833.33333"/>
      <point x="-481.25" y="833.33333" type="curve"/>
      <point x="-481.25" y="633.3333299999999" type="line"/>
    </contour>
    <contour>
      <point x="-68.75" y="833.33333" type="line"/>
      <point x="-179.133" y="833.33333"/>
      <point x="-268.75" y="743.71633"/>
      <point x="-268.75" y="633.3333299999999" type="curve"/>
      <point x="-68.75" y="633.3333299999999" type="line"/>
    </contour>
  </outline>
</glyph>
<glyph name="combining_breveinv" format="2">
  <advance width="550.0"/>
  <unicode hex="0311"/>
  <outline>
    <contour>
      <point x="-75" y="633.3333282470703" type="line"/>
      <point x="-75.0" y="743.71633"/>
      <point x="-164.617" y="833.33333"/>
      <point x="-275.0" y="833.33333" type="curve"/>
      <point x="-385.383" y="833.33333"/>
      <point x="-475.0" y="743.71633"/>
      <point x="-475.0" y="633.3333299999999" type="curve"/>
    </contour>
  </outline>
</glyph>
<glyph name="combining_dotbelow" format="2">
  <advance width="300.0"/>
  <unicode hex="0323"/>
  <outline>
    <contour>
      <point x="-295.0" y="-100.0" type="curve" smooth="yes"/>
      <point x="-295.0" y="-42.04892000000001"/>
      <point x="-342.04892" y="5.0"/>
      <point x="-400.0" y="5.0" type="curve" smooth="yes"/>
      <point x="-457.95108" y="5.0"/>
      <point x="-505.0" y="-42.04892000000001"/>
      <point x="-505.0" y="-100.0" type="curve" smooth="yes"/>
      <point x="-505.0" y="-157.95108"/>
      <point x="-457.95108" y="-205.0"/>
      <point x="-400.0" y="-205.0" type="curve" smooth="yes"/>
      <point x="-342.04892" y="-205.0"/>
      <point x="-295.0" y="-157.95108"/>
    </contour>
  </outline>
</glyph>
<glyph name="combining_cedilla" format="2">
  <advance width="300.0"/>
  <unicode hex="0327"/>
  <outline>
    <contour>
      <point x="-212.5" y="-200" type="line"/>
      <point x="-212.5" y="-89.617"/>
      <point x="-302.117" y="0.0"/>
      <point x="-412.5" y="0.0" type="curve"/>
      <point x="-412.5" y="-200" type="line"/>
    </contour>
  </outline>
</glyph>
<glyph name="SIGMA" format="2">
  <advance width="550.0"/>
  <unicode hex="03A3"/>
  <outline>
    <contour>
      <point x="50.0" y="640.0" type="line"/>
      <point x="50.000000000000014" y="438.3251103447735"/>
      <point x="178.26915540849964" y="400.0"/>
      <point x="250.0" y="400.0" type="curve"/>
      <point x="250" y="800" type="line"/>
      <point x="50" y="800" type="line"/>
    </contour>
    <contour>
      <point x="300.0" y="800.0" type="line"/>
      <point x="300.0" y="689.617"/>
      <point x="389.617" y="600.0"/>
      <point x="500.0" y="600.0" type="curve"/>
      <point x="500.0" y="800.0" type="line"/>
    </contour>
    <contour>
      <point x="50" y="0" type="line"/>
      <point x="250" y="0" type="line"/>
      <point x="250" y="400" type="line"/>
      <point x="178.26915540849964" y="400.0"/>
      <point x="50.000000000000014" y="361.6748896552265"/>
      <point x="50.0" y="160.0" type="curve"/>
    </contour>
    <contour>
      <point x="500.0" y="200.0" type="line"/>
      <point x="389.617" y="200.0"/>
      <point x="300.0" y="110.383"/>
      <point x="300.0" y="0.0" type="curve"/>
      <point x="500.0" y="0.0" type="line"/>
    </contour>
  </outline>
</glyph>
<glyph name="pi" format="2">
  <advance width="775.0"/>
  <unicode hex="03C0"/>
  <outline>
    <contour>
      <point x="485.0" y="400.0" type="line"/>
      <point x="686.6748896552265" y="400.0"/>
      <point x="725.0" y="528.2691554084996"/>
      <point x="725.0" y="600.0" type="curve"/>
      <point x="290.0" y="600.0" type="line"/>
      <point x="88.32511034477355" y="600.0"/>
      <point x="50.00000000000001" y="471.7308445915004"/>
      <point x="50.0" y="400.0" type="curve"/>
    </contour>
    <contour>
      <point x="150" y="0" type="line"/>
      <point x="350" y="0" type="line"/>
      <point x="350" y="362.5" type="line"/>
      <point x="150" y="362.5" type="line"/>
    </contour>
    <contour>
      <point x="400.0" y="240.0" type="line"/>
      <point x="400.0" y="9.910472819949007"/>
      <point x="554.4794267876778" y="5.5746624279823235e-15"/>
      <point x="640.0" y="-4.898587196589413e-15" type="curve"/>
      <point x="650" y="0" type="line"/>
      <point x="650" y="200" type="line"/>
      <point x="600" y="200" type="line"/>
      <point x="600" y="362.5" type="line"/>
      <point x="400" y="362.5" type="line"/>
    </contour>
  </outline>
</glyph>
<glyph name="sigma" format="2">
  <advance width="600.0"/>
  <unicode hex="03C3"/>
  <outline>
    <contour>
      <point x="50.0" y="235.0" type="line"/>
      <point x="50.000000000000014" y="33.32511034477355"/>
      <point x="178.26915540849964" y="-4.999999999999991"/>
      <point x="250.0" y="-5.0" type="curve"/>
      <point x="250" y="600" type="line"/>
      <point x="178.26915540849964" y="600.0"/>
      <point x="50.000000000000014" y="561.6748896552265"/>
      <point x="50.0" y="360.0" type="curve"/>
    </contour>
    <contour>
      <point x="300" y="-5" type="line"/>
      <point x="371.7308445915004" y="-5.0"/>
      <point x="500.0" y="33.32511034477355"/>
      <point x="500.0" y="235.0" type="curve"/>
      <point x="500" y="400" type="line"/>
      <point x="550" y="400" type="line"/>
      <point x="550" y="600" type="line"/>
      <point x="300" y="600" type="line"/>
    </contour>
  </outline>
</glyph>
<glyph name="u_with_diaeresisbelow" format="2">
  <advance width="550.0"/>
  <unicode hex="1E73"/>
  <outline>
    <contour>
      <point x="50.0" y="235.0" type="line"/>
      <point x="50.000000000000014" y="33.32511034477355"/>
      <point x="178.26915540849964" y="-4.999999999999991"/>
      <point x="250.0" y="-5.0" type="curve"/>
      <point x="250" y="600" type="line"/>
      <point x="50" y="600" type="line"/>
    </contour>
    <contour>
      <point x="300" y="-5" type="line"/>
      <point x="371.7308445915004" y="-5.0"/>
      <point x="500.0" y="33.32511034477355"/>
      <point x="500.0" y="235.0" type="curve"/>
      <point x="500" y="600" type="line"/>
      <point x="300" y="600" type="line"/>
    </contour>
    <contour>
      <point x="255.0" y="-130.0" type="curve" smooth="yes"/>
      <point x="255.0" y="-72.04892000000001"/>
      <point x="207.95108" y="-25.0"/>
      <point x="150.0" y="-25.0" type="curve" smooth="yes"/>
      <point x="92.04892000000001" y="-25.0"/>
      <point x="45.0" y="-72.04892000000001"/>
      <point x="45.0" y="-130.0" type="curve" smooth="yes"/>
      <point x="45.0" y="-187.95108"/>
      <point x="92.04892000000001" y="-235.0"/>
      <point x="150.0" y="-235.0" type="curve" smooth="yes"/>
      <point x="207.95108" y="-235.0"/>
      <point x="255.0" y="-187.95108"/>
    </contour>
    <contour>
      <point x="505.0" y="-130.0" type="curve" smooth="yes"/>
      <point x="505.0" y="-72.04892000000001"/>
      <point x="457.95108" y="-25.0"/>
      <point x="400.0" y="-25.0" type="curve" smooth="yes"/>
      <point x="342.04892" y="-25.0"/>
      <point x="295.0" y="-72.04892000000001"/>
      <point x="295.0" y="-130.0" type="curve" smooth="yes"/>
      <point x="295.0" y="-187.95108"/>
      <point x="342.04892" y="-235.0"/>
      <point x="400.0" y="-235.0" type="curve" smooth="yes"/>
      <point x="457.95108" y="-235.0"/>
      <point x="505.0" y="-187.95108"/>
    </contour>
  </outline>
</glyph>
<glyph name="W_with_grave" format="2">
  <advance width="800.0"/>
  <unicode hex="1E80"/>
  <outline>
    <contour>
      <point x="212.5" y="1033.3333333333335" type="line"/>
      <point x="212.5" y="922.9503333333333"/>
      <point x="302.117" y="833.3333333333334"/>
      <point x="412.5" y="833.3333333333334" type="curve"/>
      <point x="412.5" y="1033.3333333333335" type="line"/>
    </contour>
    <contour>
      <point x="50.0" y="240.0" type="line"/>
      <point x="50.000000000000014" y="38.32511034477355"/>
      <point x="178.26915540849964" y="8.784494922911714e-15"/>
      <point x="250.0" y="0.0" type="curve"/>
      <point x="250.0" y="560.0" type="line"/>
      <point x="250.0" y="761.6748896552265"/>
      <point x="121.73084459150036" y="800.0"/>
      <point x="50.0" y="800.0" type="curve"/>
    </contour>
    <contour>
      <point x="300" y="0" type="line"/>
      <point x="500" y="0" type="line"/>
      <point x="500.0" y="560.0" type="line"/>
      <point x="500.0" y="761.6748896552265"/>
      <point x="371.7308445915004" y="800.0"/>
      <point x="300.0" y="800.0" type="curve"/>
    </contour>
    <contour>
      <point x="550" y="0" type="line"/>
      <point x="621.7308445915004" y="0.0"/>
      <point x="750.0" y="38.32511034477355"/>
      <point x="750.0" y="240.0" type="curve"/>
      <point x="750" y="800" type="line"/>
      <point x="550" y="800" type="line"/>
    </contour>
  </outline>
</glyph>
<glyph name="w_with_acute" format="2">
  <advance width="800.0"/>
  <unicode hex="1E83"/>
  <outline>
    <contour>
      <point x="387.5" y="633.3333333333334" type="line"/>
      <point x="497.88300000000004" y="633.3333333333334"/>
      <point x="587.5" y="722.9503333333333"/>
      <point x="587.5" y="833.3333333333334" type="curve"/>
      <point x="387.5" y="833.3333333333334" type="line"/>
    </contour>
    <contour>
      <point x="50.0" y="240.0" type="line"/>
      <point x="50.000000000000014" y="38.32511034477355"/>
      <point x="178.26915540849964" y="8.784494922911714e-15"/>
      <point x="250.0" y="0.0" type="curve"/>
      <point x="250.0" y="360.0" type="line"/>
      <point x="250.0" y="561.6748896552265"/>
      <point x="121.73084459150036" y="600.0"/>
      <point x="50.0" y="600.0" type="curve"/>
    </contour>
    <contour>
      <point x="300" y="0" type="line"/>
      <point x="500" y="0" type="line"/>
      <point x="500.0" y="360.0" type="line"/>
      <point x="500.0" y="561.6748896552265"/>
      <point x="371.7308445915004" y="600.0"/>
      <point x="300.0" y="600.0" type="curve"/>
    </contour>
    <contour>
      <point x="550" y="0" type="line"/>
      <point x="621.7308445915004" y="0.0"/>
      <point x="750.0" y="38.32511034477355"/>
      <point x="750.0" y="240.0" type="curve"/>
      <point x="750" y="600" type="line"/>
      <point x="550" y="600" type="line"/>
    </contour>
  </outline>
</glyph>
<glyph name="w_with_diaeresis" format="2">
  <advance width="800.0"/>
  <unicode hex="1E85"/>
  <outline>
    <contour>
      <point x="380.0" y="733.3333333333334" type="curve" smooth="yes"/>
      <point x="380.0" y="791.2844133333333"/>
      <point x="332.95108" y="838.3333333333334"/>
      <point x="275.0" y="838.3333333333334" type="curve" smooth="yes"/>
      <point x="217.04892" y="838.3333333333334"/>
      <point x="170.0" y="791.2844133333333"/>
      <point x="170.0" y="733.3333333333334" type="curve" smooth="yes"/>
      <point x="170.0" y="675.3822533333333"/>
      <point x="217.04892" y="628.3333333333334"/>
      <point x="275.0" y="628.3333333333334" type="curve" smooth="yes"/>
      <point x="332.95108" y="628.3333333333334"/>
      <point x="380.0" y="675.3822533333333"/>
    </contour>
    <contour>
      <point x="630.0" y="733.3333333333334" type="curve" smooth="yes"/>
      <point x="630.0" y="791.2844133333333"/>
      <point x="582.95108" y="838.3333333333334"/>
      <point x="525.0" y="838.3333333333334" type="curve" smooth="yes"/>
      <point x="467.04892" y="838.3333333333334"/>
      <point x="420.0" y="791.2844133333333"/>
      <point x="420.0" y="733.3333333333334" type="curve" smooth="yes"/>
      <point x="420.0" y="675.3822533333333"/>
      <point x="467.04892" y="628.3333333333334"/>
      <point x="525.0" y="628.3333333333334" type="curve" smooth="yes"/>
      <point x="582.95108" y="628.3333333333334"/>
      <point x="630.0" y="675.3822533333333"/>
    </contour>
    <contour>
      <point x="50.0" y="240.0" type="line"/>
      <point x="50.000000000000014" y="38.32511034477355"/>
      <point x="178.26915540849964" y="8.784494922911714e-15"/>
      <point x="250.0" y="0.0" type="curve"/>
      <point x="250.0" y="360.0" type="line"/>
      <point x="250.0" y="561.6748896552265"/>
      <point x="121.73084459150036" y="600.0"/>
      <point x="50.0" y="600.0" type="curve"/>
    </contour>
    <contour>
      <point x="300" y="0" type="line"/>
      <point x="500" y="0" type="line"/>
      <point x="500.0" y="360.0" type="line"/>
      <point x="500.0" y="561.6748896552265"/>
      <point x="371.7308445915004" y="600.0"/>
      <point x="300.0" y="600.0" type="curve"/>
    </contour>
    <contour>
      <point x="550" y="0" type="line"/>
      <point x="621.7308445915004" y="0.0"/>
      <point x="750.0" y="38.32511034477355"/>
      <point x="750.0" y="240.0" type="curve"/>
      <point x="750" y="600" type="line"/>
      <point x="550" y="600" type="line"/>
    </contour>
  </outline>
</glyph>
<glyph name="A_with_dotbelow" format="2">
  <advance width="550.0"/>
  <unicode hex="1EA0"/>
  <outline>
    <contour>
      <point x="50" y="0" type="line"/>
      <point x="250" y="0" type="line"/>
      <point x="250" y="805" type="line"/>
      <point x="178.26915540849964" y="805.0"/>
      <point x="50.000000000000014" y="766.6748896552265"/>
      <point x="50.0" y="565.0" type="curve"/>
    </contour>
    <contour>
      <point x="300" y="0" type="line"/>
      <point x="500" y="0" type="line"/>
      <point x="500.0" y="565.0" type="line"/>
      <point x="500.0" y="766.6748896552265"/>
      <point x="371.7308445915004" y="805.0"/>
      <point x="300.0" y="805.0" type="curve"/>
    </contour>
    <contour>
      <point x="380.0" y="-125.0" type="curve" smooth="yes"/>
      <point x="380.0" y="-67.04892000000001"/>
      <point x="332.95108" y="-20.0"/>
      <point x="275.0" y="-20.0" type="curve" smooth="yes"/>
      <point x="217.04892" y="-20.0"/>
      <point x="170.0" y="-67.04892000000001"/>
      <point x="170.0" y="-125.0" type="curve" smooth="yes"/>
      <point x="170.0" y="-182.95108"/>
      <point x="217.04892" y="-230.0"/>
      <point x="275.0" y="-230.0" type="curve" smooth="yes"/>
      <point x="332.95108" y="-230.0"/>
      <point x="380.0" y="-182.95108"/>
    </contour>
  </outline>
</glyph>
<glyph name="A_with_hook" format="2">
  <advance width="550.0"/>
  <unicode hex="1EA2"/>
  <outline>
    <contour>
      <point x="462.5" y="833.3333333333334" type="line"/>
      <point x="462.5" y="943.7163333333334"/>
      <point x="372.88300000000004" y="1033.3333333333335"/>
      <point x="262.5" y="1033.3333333333335" type="curve"/>
      <point x="262.5" y="833.3333333333334" type="line"/>
    </contour>
    <contour>
      <point x="50" y="0" type="line"/>
      <point x="250" y="0" type="line"/>
      <point x="250" y="805" type="line"/>
      <point x="178.26915540849964" y="805.0"/>
      <point x="50.000000000000014" y="766.6748896552265"/>
      <point x="50.0" y="565.0" type="curve"/>
    </contour>
    <contour>
      <point x="300" y="0" type="line"/>
      <point x="500" y="0" type="line"/>
      <point x="500.0" y="565.0" type="line"/>
      <point x="500.0" y="766.6748896552265"/>
      <point x="371.7308445915004" y="805.0"/>
      <point x="300.0" y="805.0" type="curve"/>
    </contour>
  </outline>
</glyph>
